G75*
%MOIN*%
%OFA0B0*%
%FSLAX25Y25*%
%IPPOS*%
%LPD*%
%AMOC8*
5,1,8,0,0,1.08239X$1,22.5*
%
%ADD10C,0.00500*%
%ADD11C,0.13800*%
%ADD12C,0.00600*%
D10*
X0070388Y0143891D02*
X0070166Y0144226D01*
X0070023Y0144602D01*
X0069969Y0145000D01*
X0070020Y0145393D01*
X0070157Y0145765D01*
X0070373Y0146097D01*
X0070658Y0146372D01*
X0070997Y0146577D01*
X0071374Y0146702D01*
X0071768Y0146740D01*
X0072152Y0146693D01*
X0072515Y0146563D01*
X0072840Y0146354D01*
X0073111Y0146079D01*
X0073314Y0145750D01*
X0073438Y0145384D01*
X0073478Y0145000D01*
X0073444Y0144618D01*
X0073326Y0144254D01*
X0073130Y0143925D01*
X0072866Y0143648D01*
X0072546Y0143437D01*
X0072188Y0143302D01*
X0071808Y0143250D01*
X0071408Y0143285D01*
X0071025Y0143408D01*
X0070679Y0143614D01*
X0070388Y0143891D01*
X0070599Y0143690D02*
X0072906Y0143690D01*
X0073288Y0144189D02*
X0070190Y0144189D01*
X0070012Y0144687D02*
X0073451Y0144687D01*
X0073459Y0145186D02*
X0069993Y0145186D01*
X0070127Y0145684D02*
X0073336Y0145684D01*
X0073009Y0146183D02*
X0070462Y0146183D01*
X0071311Y0146681D02*
X0072185Y0146681D01*
X0071778Y0173280D02*
X0071378Y0173315D01*
X0070995Y0173438D01*
X0070649Y0173644D01*
X0070358Y0173921D01*
X0070136Y0174256D01*
X0069994Y0174632D01*
X0069939Y0175030D01*
X0069990Y0175423D01*
X0070127Y0175795D01*
X0070343Y0176127D01*
X0070628Y0176402D01*
X0070967Y0176607D01*
X0071344Y0176732D01*
X0071738Y0176770D01*
X0072122Y0176723D01*
X0072485Y0176593D01*
X0072811Y0176384D01*
X0073081Y0176109D01*
X0073284Y0175780D01*
X0073409Y0175414D01*
X0073448Y0175030D01*
X0073414Y0174648D01*
X0073296Y0174284D01*
X0073100Y0173955D01*
X0072836Y0173678D01*
X0072516Y0173467D01*
X0072158Y0173332D01*
X0071778Y0173280D01*
X0072720Y0173601D02*
X0070721Y0173601D01*
X0070239Y0174100D02*
X0073187Y0174100D01*
X0073398Y0174598D02*
X0070006Y0174598D01*
X0069947Y0175097D02*
X0073441Y0175097D01*
X0073347Y0175595D02*
X0070053Y0175595D01*
X0070322Y0176094D02*
X0073091Y0176094D01*
X0072486Y0176592D02*
X0070942Y0176592D01*
X0090376Y0193863D02*
X0090165Y0194182D01*
X0090030Y0194541D01*
X0089978Y0194920D01*
X0090013Y0195321D01*
X0090137Y0195703D01*
X0090342Y0196049D01*
X0090619Y0196340D01*
X0090954Y0196563D01*
X0091330Y0196705D01*
X0091728Y0196760D01*
X0092121Y0196709D01*
X0092493Y0196572D01*
X0092825Y0196355D01*
X0093101Y0196070D01*
X0093306Y0195731D01*
X0093430Y0195355D01*
X0093468Y0194960D01*
X0093422Y0194577D01*
X0093291Y0194213D01*
X0093083Y0193888D01*
X0092807Y0193617D01*
X0092478Y0193414D01*
X0092113Y0193290D01*
X0091728Y0193250D01*
X0091347Y0193284D01*
X0090982Y0193402D01*
X0090653Y0193598D01*
X0090376Y0193863D01*
X0090259Y0194040D02*
X0093180Y0194040D01*
X0093408Y0194539D02*
X0090031Y0194539D01*
X0089989Y0195037D02*
X0093461Y0195037D01*
X0093371Y0195536D02*
X0090083Y0195536D01*
X0090333Y0196034D02*
X0093123Y0196034D01*
X0092553Y0196533D02*
X0090909Y0196533D01*
X0090748Y0193541D02*
X0092685Y0193541D01*
X0100030Y0194541D02*
X0099978Y0194920D01*
X0100013Y0195321D01*
X0100137Y0195703D01*
X0100342Y0196049D01*
X0100619Y0196340D01*
X0100954Y0196563D01*
X0101330Y0196705D01*
X0101728Y0196760D01*
X0102121Y0196709D01*
X0102493Y0196572D01*
X0102825Y0196355D01*
X0103101Y0196070D01*
X0103306Y0195731D01*
X0103430Y0195355D01*
X0103468Y0194960D01*
X0103422Y0194577D01*
X0103291Y0194213D01*
X0103083Y0193888D01*
X0102807Y0193617D01*
X0102478Y0193414D01*
X0102113Y0193290D01*
X0101728Y0193250D01*
X0101347Y0193284D01*
X0100982Y0193402D01*
X0100653Y0193598D01*
X0100376Y0193863D01*
X0100165Y0194182D01*
X0100030Y0194541D01*
X0100031Y0194539D02*
X0103408Y0194539D01*
X0103461Y0195037D02*
X0099989Y0195037D01*
X0100083Y0195536D02*
X0103371Y0195536D01*
X0103123Y0196034D02*
X0100333Y0196034D01*
X0100909Y0196533D02*
X0102553Y0196533D01*
X0103180Y0194040D02*
X0100259Y0194040D01*
X0100748Y0193541D02*
X0102685Y0193541D01*
X0125342Y0171759D02*
X0125619Y0172050D01*
X0125954Y0172272D01*
X0126330Y0172415D01*
X0126728Y0172470D01*
X0127121Y0172419D01*
X0127493Y0172281D01*
X0127825Y0172065D01*
X0128101Y0171780D01*
X0128306Y0171441D01*
X0128430Y0171065D01*
X0128468Y0170670D01*
X0128422Y0170287D01*
X0128291Y0169923D01*
X0128083Y0169598D01*
X0127807Y0169327D01*
X0127478Y0169124D01*
X0127113Y0169000D01*
X0126728Y0168960D01*
X0126347Y0168994D01*
X0125982Y0169112D01*
X0125653Y0169308D01*
X0125376Y0169572D01*
X0125165Y0169892D01*
X0125030Y0170250D01*
X0124978Y0170630D01*
X0125013Y0171030D01*
X0125137Y0171413D01*
X0125342Y0171759D01*
X0125252Y0171607D02*
X0128205Y0171607D01*
X0128416Y0171108D02*
X0125038Y0171108D01*
X0124981Y0170610D02*
X0128461Y0170610D01*
X0128359Y0170111D02*
X0125082Y0170111D01*
X0125349Y0169613D02*
X0128092Y0169613D01*
X0127450Y0169114D02*
X0125978Y0169114D01*
X0125702Y0172105D02*
X0127763Y0172105D01*
X0126769Y0161750D02*
X0127162Y0161699D01*
X0127533Y0161561D01*
X0127865Y0161345D01*
X0128141Y0161060D01*
X0128346Y0160721D01*
X0128471Y0160345D01*
X0128508Y0159950D01*
X0128462Y0159567D01*
X0128331Y0159203D01*
X0128123Y0158878D01*
X0127847Y0158607D01*
X0127518Y0158404D01*
X0127153Y0158280D01*
X0126769Y0158240D01*
X0126387Y0158274D01*
X0126023Y0158392D01*
X0125694Y0158588D01*
X0125416Y0158852D01*
X0125205Y0159172D01*
X0125070Y0159530D01*
X0125019Y0159910D01*
X0125054Y0160310D01*
X0125177Y0160693D01*
X0125382Y0161039D01*
X0125659Y0161330D01*
X0125994Y0161552D01*
X0126370Y0161695D01*
X0126769Y0161750D01*
X0126217Y0161637D02*
X0127329Y0161637D01*
X0128065Y0161138D02*
X0125477Y0161138D01*
X0125160Y0160640D02*
X0128373Y0160640D01*
X0128490Y0160141D02*
X0125039Y0160141D01*
X0125055Y0159643D02*
X0128471Y0159643D01*
X0128293Y0159144D02*
X0125223Y0159144D01*
X0125633Y0158646D02*
X0127887Y0158646D01*
X0126739Y0151050D02*
X0127132Y0150999D01*
X0127503Y0150862D01*
X0127835Y0150645D01*
X0128111Y0150360D01*
X0128316Y0150021D01*
X0128441Y0149645D01*
X0128478Y0149250D01*
X0128432Y0148867D01*
X0128301Y0148503D01*
X0128093Y0148178D01*
X0127817Y0147907D01*
X0127489Y0147705D01*
X0127123Y0147580D01*
X0126739Y0147540D01*
X0126357Y0147574D01*
X0125993Y0147692D01*
X0125664Y0147888D01*
X0125387Y0148153D01*
X0125175Y0148472D01*
X0125040Y0148831D01*
X0124989Y0149210D01*
X0125024Y0149611D01*
X0125147Y0149993D01*
X0125352Y0150339D01*
X0125629Y0150630D01*
X0125964Y0150853D01*
X0126340Y0150995D01*
X0126739Y0151050D01*
X0125688Y0150670D02*
X0127798Y0150670D01*
X0128225Y0150171D02*
X0125252Y0150171D01*
X0125043Y0149672D02*
X0128432Y0149672D01*
X0128469Y0149174D02*
X0124994Y0149174D01*
X0125099Y0148675D02*
X0128363Y0148675D01*
X0128092Y0148177D02*
X0125370Y0148177D01*
X0126035Y0147678D02*
X0127412Y0147678D01*
D11*
X0156728Y0210000D03*
X0036728Y0210000D03*
X0036728Y0055000D03*
X0156728Y0055000D03*
D12*
X0094734Y0051966D02*
X0094590Y0052373D01*
X0094528Y0052800D01*
X0094532Y0053233D01*
X0094619Y0053657D01*
X0094788Y0054056D01*
X0095031Y0054414D01*
X0095340Y0054718D01*
X0095702Y0054956D01*
X0096103Y0055119D01*
X0096528Y0055200D01*
X0096999Y0055182D01*
X0097456Y0055066D01*
X0097880Y0054858D01*
X0098250Y0054567D01*
X0098552Y0054205D01*
X0098772Y0053788D01*
X0098900Y0053334D01*
X0098932Y0052864D01*
X0098865Y0052397D01*
X0098702Y0051955D01*
X0098451Y0051556D01*
X0098122Y0051218D01*
X0097731Y0050956D01*
X0097293Y0050780D01*
X0096828Y0050700D01*
X0096397Y0050723D01*
X0095979Y0050829D01*
X0095589Y0051015D01*
X0095243Y0051274D01*
X0094955Y0051595D01*
X0094734Y0051966D01*
X0094732Y0051970D02*
X0098708Y0051970D01*
X0098889Y0052569D02*
X0094562Y0052569D01*
X0094531Y0053167D02*
X0098911Y0053167D01*
X0098778Y0053766D02*
X0094665Y0053766D01*
X0094997Y0054364D02*
X0098419Y0054364D01*
X0097667Y0054963D02*
X0095718Y0054963D01*
X0095155Y0051372D02*
X0098272Y0051372D01*
X0097252Y0050773D02*
X0096199Y0050773D01*
X0096828Y0129400D02*
X0097293Y0129480D01*
X0097731Y0129656D01*
X0098122Y0129918D01*
X0098451Y0130256D01*
X0098702Y0130655D01*
X0098865Y0131097D01*
X0098932Y0131564D01*
X0098900Y0132034D01*
X0098772Y0132488D01*
X0098552Y0132905D01*
X0098250Y0133267D01*
X0097880Y0133558D01*
X0097456Y0133766D01*
X0096999Y0133882D01*
X0096528Y0133900D01*
X0096103Y0133819D01*
X0095702Y0133656D01*
X0095340Y0133418D01*
X0095031Y0133114D01*
X0094788Y0132756D01*
X0094619Y0132357D01*
X0094532Y0131933D01*
X0094528Y0131500D01*
X0094590Y0131073D01*
X0094734Y0130666D01*
X0094955Y0130295D01*
X0095243Y0129974D01*
X0095589Y0129715D01*
X0095979Y0129529D01*
X0096397Y0129423D01*
X0096828Y0129400D01*
X0097911Y0129777D02*
X0095507Y0129777D01*
X0094907Y0130375D02*
X0098526Y0130375D01*
X0098819Y0130974D02*
X0094625Y0130974D01*
X0094529Y0131572D02*
X0098931Y0131572D01*
X0098862Y0132171D02*
X0094581Y0132171D01*
X0094797Y0132769D02*
X0098623Y0132769D01*
X0098122Y0133368D02*
X0095289Y0133368D01*
M02*
