G75*
%MOIN*%
%OFA0B0*%
%FSLAX25Y25*%
%IPPOS*%
%LPD*%
%AMOC8*
5,1,8,0,0,1.08239X$1,22.5*
%
%ADD10C,0.01100*%
%ADD11C,0.07400*%
%ADD12C,0.08000*%
%ADD13C,0.07677*%
%ADD14C,0.01000*%
D10*
X0034351Y0230550D02*
X0038287Y0230550D01*
X0034351Y0234487D01*
X0034351Y0235471D01*
X0035335Y0236455D01*
X0037303Y0236455D01*
X0038287Y0235471D01*
X0040796Y0235471D02*
X0044733Y0231534D01*
X0043749Y0230550D01*
X0041780Y0230550D01*
X0040796Y0231534D01*
X0040796Y0235471D01*
X0041780Y0236455D01*
X0043749Y0236455D01*
X0044733Y0235471D01*
X0044733Y0231534D01*
X0047242Y0232518D02*
X0047242Y0236455D01*
X0051178Y0236455D02*
X0051178Y0232518D01*
X0049210Y0230550D01*
X0047242Y0232518D01*
D11*
X0091728Y0195000D03*
X0101728Y0195000D03*
X0126728Y0170700D03*
X0126728Y0160000D03*
X0126728Y0149300D03*
D12*
X0071728Y0145000D03*
X0071728Y0175000D03*
D13*
X0096728Y0131654D03*
X0096728Y0052913D03*
D14*
X0024906Y0040000D02*
X0021728Y0040000D01*
X0024906Y0040000D01*
X0023066Y0041337D01*
X0023066Y0041337D01*
X0023066Y0041337D01*
X0021728Y0043178D01*
X0021728Y0040000D01*
X0021728Y0040999D02*
X0023532Y0040999D01*
X0022586Y0041997D02*
X0021728Y0041997D01*
X0021728Y0042996D02*
X0021861Y0042996D01*
X0025722Y0044993D02*
X0167735Y0044993D01*
X0167314Y0044414D02*
X0165315Y0042961D01*
X0162964Y0042197D01*
X0161728Y0042100D01*
X0031728Y0042100D01*
X0030493Y0042197D01*
X0028142Y0042961D01*
X0026142Y0044414D01*
X0024689Y0046413D01*
X0023926Y0048764D01*
X0023828Y0050000D01*
X0023828Y0230000D01*
X0023926Y0231236D01*
X0024689Y0233587D01*
X0026142Y0235586D01*
X0028142Y0237039D01*
X0030493Y0237803D01*
X0031728Y0237900D01*
X0033598Y0237900D01*
X0033085Y0237387D01*
X0032857Y0237159D01*
X0032101Y0236403D01*
X0032101Y0233555D01*
X0033137Y0232518D01*
X0032101Y0231482D01*
X0032101Y0229618D01*
X0033419Y0228300D01*
X0039219Y0228300D01*
X0040034Y0229115D01*
X0040848Y0228300D01*
X0044681Y0228300D01*
X0045665Y0229284D01*
X0046479Y0230099D01*
X0048278Y0228300D01*
X0050142Y0228300D01*
X0051460Y0229618D01*
X0053428Y0231586D01*
X0053428Y0237387D01*
X0052915Y0237900D01*
X0066728Y0237900D01*
X0067964Y0237803D01*
X0070315Y0237039D01*
X0072314Y0235586D01*
X0073767Y0233587D01*
X0074531Y0231236D01*
X0074628Y0230000D01*
X0074628Y0228084D01*
X0075813Y0224438D01*
X0078066Y0221337D01*
X0081167Y0219084D01*
X0084812Y0217900D01*
X0087598Y0217900D01*
X0105858Y0217900D01*
X0108645Y0217900D01*
X0112290Y0219084D01*
X0115391Y0221337D01*
X0117644Y0224438D01*
X0117644Y0224438D01*
X0118828Y0228084D01*
X0118828Y0230000D01*
X0118926Y0231236D01*
X0119689Y0233587D01*
X0121142Y0235586D01*
X0123142Y0237039D01*
X0125493Y0237803D01*
X0126728Y0237900D01*
X0161728Y0237900D01*
X0162964Y0237803D01*
X0165315Y0237039D01*
X0167314Y0235586D01*
X0168767Y0233587D01*
X0169531Y0231236D01*
X0169628Y0230000D01*
X0169628Y0050000D01*
X0169531Y0048764D01*
X0168767Y0046413D01*
X0167314Y0044414D01*
X0166737Y0043994D02*
X0026720Y0043994D01*
X0028094Y0042996D02*
X0165362Y0042996D01*
X0168550Y0040000D02*
X0171728Y0040000D01*
X0171728Y0043178D01*
X0170391Y0041337D01*
X0170391Y0041337D01*
X0170391Y0041337D01*
X0168550Y0040000D01*
X0171728Y0040000D01*
X0171728Y0040999D02*
X0169925Y0040999D01*
X0170870Y0041997D02*
X0171728Y0041997D01*
X0171728Y0042996D02*
X0171596Y0042996D01*
X0168460Y0045991D02*
X0159460Y0045991D01*
X0158386Y0045600D02*
X0161501Y0046734D01*
X0164040Y0048865D01*
X0165698Y0051735D01*
X0165698Y0051735D01*
X0166273Y0055000D01*
X0165698Y0058265D01*
X0164040Y0061135D01*
X0164040Y0061135D01*
X0161501Y0063266D01*
X0161501Y0063266D01*
X0158386Y0064400D01*
X0155071Y0064400D01*
X0151956Y0063266D01*
X0149416Y0061135D01*
X0147759Y0058265D01*
X0147759Y0058265D01*
X0147183Y0055000D01*
X0147759Y0051735D01*
X0149416Y0048865D01*
X0149416Y0048865D01*
X0151956Y0046734D01*
X0155071Y0045600D01*
X0157598Y0045600D01*
X0158386Y0045600D01*
X0158386Y0045600D01*
X0161501Y0046734D02*
X0161501Y0046734D01*
X0161806Y0046990D02*
X0168954Y0046990D01*
X0169279Y0047988D02*
X0162996Y0047988D01*
X0164040Y0048865D02*
X0164040Y0048865D01*
X0164040Y0048865D01*
X0164111Y0048987D02*
X0169549Y0048987D01*
X0169627Y0049985D02*
X0164687Y0049985D01*
X0165264Y0050984D02*
X0169628Y0050984D01*
X0169628Y0051982D02*
X0165741Y0051982D01*
X0165917Y0052981D02*
X0169628Y0052981D01*
X0169628Y0053979D02*
X0166093Y0053979D01*
X0166269Y0054978D02*
X0169628Y0054978D01*
X0169628Y0055976D02*
X0166101Y0055976D01*
X0166273Y0055000D02*
X0166273Y0055000D01*
X0165925Y0056975D02*
X0169628Y0056975D01*
X0169628Y0057973D02*
X0165749Y0057973D01*
X0165698Y0058265D02*
X0165698Y0058265D01*
X0165289Y0058972D02*
X0169628Y0058972D01*
X0169628Y0059970D02*
X0164713Y0059970D01*
X0164136Y0060969D02*
X0169628Y0060969D01*
X0169628Y0061967D02*
X0163049Y0061967D01*
X0161859Y0062966D02*
X0169628Y0062966D01*
X0169628Y0063964D02*
X0159583Y0063964D01*
X0153874Y0063964D02*
X0039583Y0063964D01*
X0038386Y0064400D02*
X0035071Y0064400D01*
X0031956Y0063266D01*
X0029416Y0061135D01*
X0027759Y0058265D01*
X0027183Y0055000D01*
X0027759Y0051735D01*
X0029416Y0048865D01*
X0029416Y0048865D01*
X0031956Y0046734D01*
X0035071Y0045600D01*
X0035858Y0045600D01*
X0038386Y0045600D01*
X0041501Y0046734D01*
X0044040Y0048865D01*
X0045698Y0051735D01*
X0045698Y0051735D01*
X0046273Y0055000D01*
X0045698Y0058265D01*
X0044040Y0061135D01*
X0044040Y0061135D01*
X0041501Y0063266D01*
X0041501Y0063266D01*
X0038386Y0064400D01*
X0041859Y0062966D02*
X0151598Y0062966D01*
X0151956Y0063266D02*
X0151956Y0063266D01*
X0150408Y0061967D02*
X0043049Y0061967D01*
X0044136Y0060969D02*
X0149320Y0060969D01*
X0149416Y0061135D02*
X0149416Y0061135D01*
X0149416Y0061135D01*
X0148744Y0059970D02*
X0044713Y0059970D01*
X0045289Y0058972D02*
X0148167Y0058972D01*
X0147708Y0057973D02*
X0098986Y0057973D01*
X0099866Y0057609D02*
X0097830Y0058452D01*
X0095627Y0058452D01*
X0093591Y0057609D01*
X0092033Y0056051D01*
X0091190Y0054015D01*
X0091190Y0051812D01*
X0092033Y0049776D01*
X0093591Y0048218D01*
X0095627Y0047375D01*
X0097830Y0047375D01*
X0099866Y0048218D01*
X0101424Y0049776D01*
X0102267Y0051812D01*
X0102267Y0054015D01*
X0101424Y0056051D01*
X0099866Y0057609D01*
X0100500Y0056975D02*
X0147532Y0056975D01*
X0147355Y0055976D02*
X0101455Y0055976D01*
X0101868Y0054978D02*
X0147187Y0054978D01*
X0147183Y0055000D02*
X0147183Y0055000D01*
X0147363Y0053979D02*
X0102267Y0053979D01*
X0102267Y0052981D02*
X0147539Y0052981D01*
X0147715Y0051982D02*
X0102267Y0051982D01*
X0101924Y0050984D02*
X0148193Y0050984D01*
X0147759Y0051735D02*
X0147759Y0051735D01*
X0148770Y0049985D02*
X0101510Y0049985D01*
X0100634Y0048987D02*
X0149346Y0048987D01*
X0150461Y0047988D02*
X0099311Y0047988D01*
X0094146Y0047988D02*
X0042996Y0047988D01*
X0044040Y0048865D02*
X0044040Y0048865D01*
X0044040Y0048865D01*
X0044111Y0048987D02*
X0092822Y0048987D01*
X0091946Y0049985D02*
X0044687Y0049985D01*
X0045264Y0050984D02*
X0091533Y0050984D01*
X0091190Y0051982D02*
X0045741Y0051982D01*
X0045917Y0052981D02*
X0091190Y0052981D01*
X0091190Y0053979D02*
X0046093Y0053979D01*
X0046269Y0054978D02*
X0091588Y0054978D01*
X0092002Y0055976D02*
X0046101Y0055976D01*
X0046273Y0055000D02*
X0046273Y0055000D01*
X0045925Y0056975D02*
X0092957Y0056975D01*
X0094471Y0057973D02*
X0045749Y0057973D01*
X0045698Y0058265D02*
X0045698Y0058265D01*
X0033874Y0063964D02*
X0023828Y0063964D01*
X0023828Y0062966D02*
X0031598Y0062966D01*
X0031956Y0063266D02*
X0031956Y0063266D01*
X0030408Y0061967D02*
X0023828Y0061967D01*
X0023828Y0060969D02*
X0029320Y0060969D01*
X0028744Y0059970D02*
X0023828Y0059970D01*
X0023828Y0058972D02*
X0028167Y0058972D01*
X0027759Y0058265D02*
X0027759Y0058265D01*
X0027708Y0057973D02*
X0023828Y0057973D01*
X0023828Y0056975D02*
X0027532Y0056975D01*
X0027355Y0055976D02*
X0023828Y0055976D01*
X0023828Y0054978D02*
X0027187Y0054978D01*
X0027363Y0053979D02*
X0023828Y0053979D01*
X0023828Y0052981D02*
X0027539Y0052981D01*
X0027715Y0051982D02*
X0023828Y0051982D01*
X0023828Y0050984D02*
X0028193Y0050984D01*
X0027759Y0051735D02*
X0027759Y0051735D01*
X0028770Y0049985D02*
X0023830Y0049985D01*
X0023908Y0048987D02*
X0029346Y0048987D01*
X0030461Y0047988D02*
X0024178Y0047988D01*
X0024502Y0046990D02*
X0031651Y0046990D01*
X0031956Y0046734D02*
X0031956Y0046734D01*
X0033996Y0045991D02*
X0024996Y0045991D01*
X0039460Y0045991D02*
X0153996Y0045991D01*
X0151956Y0046734D02*
X0151956Y0046734D01*
X0151651Y0046990D02*
X0041806Y0046990D01*
X0041501Y0046734D02*
X0041501Y0046734D01*
X0023828Y0064963D02*
X0169628Y0064963D01*
X0169628Y0065961D02*
X0023828Y0065961D01*
X0023828Y0066960D02*
X0169628Y0066960D01*
X0169628Y0067958D02*
X0023828Y0067958D01*
X0023828Y0068957D02*
X0169628Y0068957D01*
X0169628Y0069955D02*
X0023828Y0069955D01*
X0023828Y0070954D02*
X0169628Y0070954D01*
X0169628Y0071952D02*
X0023828Y0071952D01*
X0023828Y0072951D02*
X0169628Y0072951D01*
X0169628Y0073949D02*
X0023828Y0073949D01*
X0023828Y0074948D02*
X0169628Y0074948D01*
X0169628Y0075946D02*
X0023828Y0075946D01*
X0023828Y0076945D02*
X0169628Y0076945D01*
X0169628Y0077943D02*
X0023828Y0077943D01*
X0023828Y0078942D02*
X0169628Y0078942D01*
X0169628Y0079940D02*
X0023828Y0079940D01*
X0023828Y0080939D02*
X0169628Y0080939D01*
X0169628Y0081937D02*
X0023828Y0081937D01*
X0023828Y0082936D02*
X0169628Y0082936D01*
X0169628Y0083934D02*
X0023828Y0083934D01*
X0023828Y0084933D02*
X0169628Y0084933D01*
X0169628Y0085932D02*
X0023828Y0085932D01*
X0023828Y0086930D02*
X0169628Y0086930D01*
X0169628Y0087929D02*
X0023828Y0087929D01*
X0023828Y0088927D02*
X0169628Y0088927D01*
X0169628Y0089926D02*
X0023828Y0089926D01*
X0023828Y0090924D02*
X0169628Y0090924D01*
X0169628Y0091923D02*
X0023828Y0091923D01*
X0023828Y0092921D02*
X0169628Y0092921D01*
X0169628Y0093920D02*
X0023828Y0093920D01*
X0023828Y0094918D02*
X0169628Y0094918D01*
X0169628Y0095917D02*
X0023828Y0095917D01*
X0023828Y0096915D02*
X0169628Y0096915D01*
X0169628Y0097914D02*
X0023828Y0097914D01*
X0023828Y0098912D02*
X0169628Y0098912D01*
X0169628Y0099911D02*
X0023828Y0099911D01*
X0023828Y0100909D02*
X0169628Y0100909D01*
X0169628Y0101908D02*
X0023828Y0101908D01*
X0023828Y0102906D02*
X0169628Y0102906D01*
X0169628Y0103905D02*
X0023828Y0103905D01*
X0023828Y0104903D02*
X0169628Y0104903D01*
X0169628Y0105902D02*
X0023828Y0105902D01*
X0023828Y0106900D02*
X0169628Y0106900D01*
X0169628Y0107899D02*
X0023828Y0107899D01*
X0023828Y0108897D02*
X0169628Y0108897D01*
X0169628Y0109896D02*
X0023828Y0109896D01*
X0023828Y0110894D02*
X0169628Y0110894D01*
X0169628Y0111893D02*
X0023828Y0111893D01*
X0023828Y0112891D02*
X0169628Y0112891D01*
X0169628Y0113890D02*
X0023828Y0113890D01*
X0023828Y0114888D02*
X0169628Y0114888D01*
X0169628Y0115887D02*
X0023828Y0115887D01*
X0023828Y0116885D02*
X0169628Y0116885D01*
X0169628Y0117884D02*
X0023828Y0117884D01*
X0023828Y0118882D02*
X0169628Y0118882D01*
X0169628Y0119881D02*
X0023828Y0119881D01*
X0023828Y0120879D02*
X0169628Y0120879D01*
X0169628Y0121878D02*
X0023828Y0121878D01*
X0023828Y0122876D02*
X0169628Y0122876D01*
X0169628Y0123875D02*
X0023828Y0123875D01*
X0023828Y0124873D02*
X0169628Y0124873D01*
X0169628Y0125872D02*
X0023828Y0125872D01*
X0023828Y0126870D02*
X0093803Y0126870D01*
X0093591Y0126958D02*
X0095627Y0126115D01*
X0097830Y0126115D01*
X0099866Y0126958D01*
X0101424Y0128516D01*
X0102267Y0130552D01*
X0102267Y0132755D01*
X0101424Y0134791D01*
X0099866Y0136349D01*
X0097830Y0137192D01*
X0095627Y0137192D01*
X0093591Y0136349D01*
X0092033Y0134791D01*
X0091190Y0132755D01*
X0091190Y0130552D01*
X0092033Y0128516D01*
X0093591Y0126958D01*
X0092680Y0127869D02*
X0023828Y0127869D01*
X0023828Y0128868D02*
X0091887Y0128868D01*
X0091474Y0129866D02*
X0023828Y0129866D01*
X0023828Y0130865D02*
X0091190Y0130865D01*
X0091190Y0131863D02*
X0023828Y0131863D01*
X0023828Y0132862D02*
X0091234Y0132862D01*
X0091647Y0133860D02*
X0023828Y0133860D01*
X0023828Y0134859D02*
X0092101Y0134859D01*
X0093099Y0135857D02*
X0023828Y0135857D01*
X0023828Y0136856D02*
X0094814Y0136856D01*
X0098642Y0136856D02*
X0169628Y0136856D01*
X0169628Y0137854D02*
X0023828Y0137854D01*
X0023828Y0138853D02*
X0169628Y0138853D01*
X0169628Y0139851D02*
X0074193Y0139851D01*
X0074957Y0140168D02*
X0072862Y0139300D01*
X0070595Y0139300D01*
X0068500Y0140168D01*
X0066896Y0141771D01*
X0066028Y0143866D01*
X0066028Y0146134D01*
X0066896Y0148229D01*
X0068500Y0149832D01*
X0070595Y0150700D01*
X0072862Y0150700D01*
X0074957Y0149832D01*
X0076561Y0148229D01*
X0077428Y0146134D01*
X0077428Y0143866D01*
X0076561Y0141771D01*
X0074957Y0140168D01*
X0075639Y0140850D02*
X0169628Y0140850D01*
X0169628Y0141848D02*
X0076592Y0141848D01*
X0077006Y0142847D02*
X0169628Y0142847D01*
X0169628Y0143845D02*
X0077420Y0143845D01*
X0077428Y0144844D02*
X0123548Y0144844D01*
X0123669Y0144722D02*
X0125654Y0143900D01*
X0127802Y0143900D01*
X0129787Y0144722D01*
X0131306Y0146241D01*
X0132128Y0148226D01*
X0132128Y0150374D01*
X0131306Y0152359D01*
X0129787Y0153878D01*
X0127923Y0154650D01*
X0129787Y0155422D01*
X0131306Y0156941D01*
X0132128Y0158926D01*
X0132128Y0161074D01*
X0131306Y0163059D01*
X0129787Y0164578D01*
X0127923Y0165350D01*
X0129787Y0166122D01*
X0131306Y0167641D01*
X0132128Y0169626D01*
X0132128Y0171774D01*
X0131306Y0173759D01*
X0129787Y0175278D01*
X0127802Y0176100D01*
X0125654Y0176100D01*
X0123669Y0175278D01*
X0122150Y0173759D01*
X0121328Y0171774D01*
X0121328Y0169626D01*
X0122150Y0167641D01*
X0123669Y0166122D01*
X0125534Y0165350D01*
X0123669Y0164578D01*
X0122150Y0163059D01*
X0121328Y0161074D01*
X0121328Y0158926D01*
X0122150Y0156941D01*
X0123669Y0155422D01*
X0125534Y0154650D01*
X0123669Y0153878D01*
X0122150Y0152359D01*
X0121328Y0150374D01*
X0121328Y0148226D01*
X0122150Y0146241D01*
X0123669Y0144722D01*
X0122549Y0145842D02*
X0077428Y0145842D01*
X0077136Y0146841D02*
X0121902Y0146841D01*
X0121488Y0147839D02*
X0076722Y0147839D01*
X0075952Y0148838D02*
X0121328Y0148838D01*
X0121328Y0149836D02*
X0074947Y0149836D01*
X0068509Y0149836D02*
X0023828Y0149836D01*
X0023828Y0148838D02*
X0067505Y0148838D01*
X0066735Y0147839D02*
X0023828Y0147839D01*
X0023828Y0146841D02*
X0066321Y0146841D01*
X0066028Y0145842D02*
X0023828Y0145842D01*
X0023828Y0144844D02*
X0066028Y0144844D01*
X0066037Y0143845D02*
X0023828Y0143845D01*
X0023828Y0142847D02*
X0066451Y0142847D01*
X0066864Y0141848D02*
X0023828Y0141848D01*
X0023828Y0140850D02*
X0067818Y0140850D01*
X0069264Y0139851D02*
X0023828Y0139851D01*
X0023828Y0150835D02*
X0121519Y0150835D01*
X0121933Y0151833D02*
X0023828Y0151833D01*
X0023828Y0152832D02*
X0122623Y0152832D01*
X0123622Y0153830D02*
X0023828Y0153830D01*
X0023828Y0154829D02*
X0125102Y0154829D01*
X0123264Y0155827D02*
X0023828Y0155827D01*
X0023828Y0156826D02*
X0122266Y0156826D01*
X0121785Y0157824D02*
X0023828Y0157824D01*
X0023828Y0158823D02*
X0121371Y0158823D01*
X0121328Y0159821D02*
X0023828Y0159821D01*
X0023828Y0160820D02*
X0121328Y0160820D01*
X0121637Y0161818D02*
X0023828Y0161818D01*
X0023828Y0162817D02*
X0122050Y0162817D01*
X0122907Y0163815D02*
X0023828Y0163815D01*
X0023828Y0164814D02*
X0124239Y0164814D01*
X0124417Y0165812D02*
X0023828Y0165812D01*
X0023828Y0166811D02*
X0122981Y0166811D01*
X0122081Y0167809D02*
X0023828Y0167809D01*
X0023828Y0168808D02*
X0121667Y0168808D01*
X0121328Y0169806D02*
X0074085Y0169806D01*
X0074957Y0170168D02*
X0076561Y0171771D01*
X0077428Y0173866D01*
X0077428Y0176134D01*
X0076561Y0178229D01*
X0074957Y0179832D01*
X0072862Y0180700D01*
X0070595Y0180700D01*
X0068500Y0179832D01*
X0066896Y0178229D01*
X0066028Y0176134D01*
X0066028Y0173866D01*
X0066896Y0171771D01*
X0068500Y0170168D01*
X0070595Y0169300D01*
X0072862Y0169300D01*
X0074957Y0170168D01*
X0075594Y0170805D02*
X0121328Y0170805D01*
X0121341Y0171803D02*
X0076574Y0171803D01*
X0076988Y0172802D02*
X0121754Y0172802D01*
X0122192Y0173801D02*
X0077401Y0173801D01*
X0077428Y0174799D02*
X0123191Y0174799D01*
X0124924Y0175798D02*
X0077428Y0175798D01*
X0077154Y0176796D02*
X0169628Y0176796D01*
X0169628Y0175798D02*
X0128533Y0175798D01*
X0130266Y0174799D02*
X0169628Y0174799D01*
X0169628Y0173801D02*
X0131265Y0173801D01*
X0131703Y0172802D02*
X0169628Y0172802D01*
X0169628Y0171803D02*
X0132116Y0171803D01*
X0132128Y0170805D02*
X0169628Y0170805D01*
X0169628Y0169806D02*
X0132128Y0169806D01*
X0131790Y0168808D02*
X0169628Y0168808D01*
X0169628Y0167809D02*
X0131376Y0167809D01*
X0130476Y0166811D02*
X0169628Y0166811D01*
X0169628Y0165812D02*
X0129040Y0165812D01*
X0129217Y0164814D02*
X0169628Y0164814D01*
X0169628Y0163815D02*
X0130550Y0163815D01*
X0131406Y0162817D02*
X0169628Y0162817D01*
X0169628Y0161818D02*
X0131820Y0161818D01*
X0132128Y0160820D02*
X0169628Y0160820D01*
X0169628Y0159821D02*
X0132128Y0159821D01*
X0132086Y0158823D02*
X0169628Y0158823D01*
X0169628Y0157824D02*
X0131672Y0157824D01*
X0131191Y0156826D02*
X0169628Y0156826D01*
X0169628Y0155827D02*
X0130192Y0155827D01*
X0129835Y0153830D02*
X0169628Y0153830D01*
X0169628Y0152832D02*
X0130833Y0152832D01*
X0131524Y0151833D02*
X0169628Y0151833D01*
X0169628Y0150835D02*
X0131938Y0150835D01*
X0132128Y0149836D02*
X0169628Y0149836D01*
X0169628Y0148838D02*
X0132128Y0148838D01*
X0131968Y0147839D02*
X0169628Y0147839D01*
X0169628Y0146841D02*
X0131555Y0146841D01*
X0130907Y0145842D02*
X0169628Y0145842D01*
X0169628Y0144844D02*
X0129909Y0144844D01*
X0128355Y0154829D02*
X0169628Y0154829D01*
X0169628Y0135857D02*
X0100358Y0135857D01*
X0101356Y0134859D02*
X0169628Y0134859D01*
X0169628Y0133860D02*
X0101809Y0133860D01*
X0102223Y0132862D02*
X0169628Y0132862D01*
X0169628Y0131863D02*
X0102267Y0131863D01*
X0102267Y0130865D02*
X0169628Y0130865D01*
X0169628Y0129866D02*
X0101983Y0129866D01*
X0101569Y0128868D02*
X0169628Y0128868D01*
X0169628Y0127869D02*
X0100777Y0127869D01*
X0099654Y0126870D02*
X0169628Y0126870D01*
X0169628Y0177795D02*
X0076740Y0177795D01*
X0075996Y0178793D02*
X0169628Y0178793D01*
X0169628Y0179792D02*
X0074998Y0179792D01*
X0068459Y0179792D02*
X0023828Y0179792D01*
X0023828Y0180790D02*
X0169628Y0180790D01*
X0169628Y0181789D02*
X0023828Y0181789D01*
X0023828Y0182787D02*
X0169628Y0182787D01*
X0169628Y0183786D02*
X0023828Y0183786D01*
X0023828Y0184784D02*
X0169628Y0184784D01*
X0169628Y0185783D02*
X0023828Y0185783D01*
X0023828Y0186781D02*
X0169628Y0186781D01*
X0169628Y0187780D02*
X0023828Y0187780D01*
X0023828Y0188778D02*
X0169628Y0188778D01*
X0169628Y0189777D02*
X0103229Y0189777D01*
X0102802Y0189600D02*
X0104787Y0190422D01*
X0106306Y0191941D01*
X0107128Y0193926D01*
X0107128Y0196074D01*
X0106306Y0198059D01*
X0104787Y0199578D01*
X0102802Y0200400D01*
X0100654Y0200400D01*
X0098669Y0199578D01*
X0097150Y0198059D01*
X0096728Y0197040D01*
X0096306Y0198059D01*
X0094787Y0199578D01*
X0092802Y0200400D01*
X0090654Y0200400D01*
X0088669Y0199578D01*
X0087150Y0198059D01*
X0086328Y0196074D01*
X0086328Y0193926D01*
X0087150Y0191941D01*
X0088669Y0190422D01*
X0090654Y0189600D01*
X0092802Y0189600D01*
X0094787Y0190422D01*
X0096306Y0191941D01*
X0096728Y0192960D01*
X0097150Y0191941D01*
X0098669Y0190422D01*
X0100654Y0189600D01*
X0102802Y0189600D01*
X0100228Y0189777D02*
X0093229Y0189777D01*
X0095140Y0190775D02*
X0098316Y0190775D01*
X0097318Y0191774D02*
X0096139Y0191774D01*
X0096650Y0192772D02*
X0096806Y0192772D01*
X0090228Y0189777D02*
X0023828Y0189777D01*
X0023828Y0190775D02*
X0088316Y0190775D01*
X0087318Y0191774D02*
X0023828Y0191774D01*
X0023828Y0192772D02*
X0086806Y0192772D01*
X0086393Y0193771D02*
X0023828Y0193771D01*
X0023828Y0194769D02*
X0086328Y0194769D01*
X0086328Y0195768D02*
X0023828Y0195768D01*
X0023828Y0196766D02*
X0086615Y0196766D01*
X0087029Y0197765D02*
X0023828Y0197765D01*
X0023828Y0198763D02*
X0087855Y0198763D01*
X0089114Y0199762D02*
X0023828Y0199762D01*
X0023828Y0200760D02*
X0034630Y0200760D01*
X0035071Y0200600D02*
X0037598Y0200600D01*
X0038386Y0200600D01*
X0041501Y0201734D01*
X0044040Y0203865D01*
X0045698Y0206735D01*
X0045698Y0206735D01*
X0046273Y0210000D01*
X0045698Y0213265D01*
X0044040Y0216135D01*
X0044040Y0216135D01*
X0041501Y0218266D01*
X0041501Y0218266D01*
X0038386Y0219400D01*
X0035071Y0219400D01*
X0031956Y0218266D01*
X0029416Y0216135D01*
X0027759Y0213265D01*
X0027759Y0213265D01*
X0027183Y0210000D01*
X0027759Y0206735D01*
X0029416Y0203865D01*
X0029416Y0203865D01*
X0031956Y0201734D01*
X0035071Y0200600D01*
X0038386Y0200600D02*
X0038386Y0200600D01*
X0038826Y0200760D02*
X0154630Y0200760D01*
X0155071Y0200600D02*
X0155858Y0200600D01*
X0158386Y0200600D01*
X0161501Y0201734D01*
X0164040Y0203865D01*
X0165698Y0206735D01*
X0165698Y0206735D01*
X0166273Y0210000D01*
X0165698Y0213265D01*
X0164040Y0216135D01*
X0161501Y0218266D01*
X0161501Y0218266D01*
X0158386Y0219400D01*
X0155071Y0219400D01*
X0151956Y0218266D01*
X0149416Y0216135D01*
X0147759Y0213265D01*
X0147759Y0213265D01*
X0147183Y0210000D01*
X0147759Y0206735D01*
X0149416Y0203865D01*
X0149416Y0203865D01*
X0151956Y0201734D01*
X0155071Y0200600D01*
X0151956Y0201734D02*
X0151956Y0201734D01*
X0151926Y0201759D02*
X0041531Y0201759D01*
X0041501Y0201734D02*
X0041501Y0201734D01*
X0042721Y0202757D02*
X0150736Y0202757D01*
X0149546Y0203756D02*
X0043911Y0203756D01*
X0044040Y0203865D02*
X0044040Y0203865D01*
X0044040Y0203865D01*
X0044554Y0204754D02*
X0148903Y0204754D01*
X0148326Y0205753D02*
X0045130Y0205753D01*
X0045701Y0206751D02*
X0147756Y0206751D01*
X0147759Y0206735D02*
X0147759Y0206735D01*
X0147580Y0207750D02*
X0045877Y0207750D01*
X0046053Y0208748D02*
X0147404Y0208748D01*
X0147228Y0209747D02*
X0046229Y0209747D01*
X0046273Y0210000D02*
X0046273Y0210000D01*
X0046142Y0210745D02*
X0147315Y0210745D01*
X0147183Y0210000D02*
X0147183Y0210000D01*
X0147491Y0211744D02*
X0045966Y0211744D01*
X0045790Y0212742D02*
X0147667Y0212742D01*
X0148034Y0213741D02*
X0045423Y0213741D01*
X0045698Y0213265D02*
X0045698Y0213265D01*
X0044846Y0214739D02*
X0148611Y0214739D01*
X0149187Y0215738D02*
X0044270Y0215738D01*
X0043324Y0216737D02*
X0150133Y0216737D01*
X0149416Y0216135D02*
X0149416Y0216135D01*
X0149416Y0216135D01*
X0151323Y0217735D02*
X0042134Y0217735D01*
X0040217Y0218734D02*
X0082247Y0218734D01*
X0081167Y0219084D02*
X0081167Y0219084D01*
X0080275Y0219732D02*
X0023828Y0219732D01*
X0023828Y0218734D02*
X0033240Y0218734D01*
X0031956Y0218266D02*
X0031956Y0218266D01*
X0031323Y0217735D02*
X0023828Y0217735D01*
X0023828Y0216737D02*
X0030133Y0216737D01*
X0029416Y0216135D02*
X0029416Y0216135D01*
X0029416Y0216135D01*
X0029187Y0215738D02*
X0023828Y0215738D01*
X0023828Y0214739D02*
X0028611Y0214739D01*
X0028034Y0213741D02*
X0023828Y0213741D01*
X0023828Y0212742D02*
X0027667Y0212742D01*
X0027491Y0211744D02*
X0023828Y0211744D01*
X0023828Y0210745D02*
X0027315Y0210745D01*
X0027183Y0210000D02*
X0027183Y0210000D01*
X0027228Y0209747D02*
X0023828Y0209747D01*
X0023828Y0208748D02*
X0027404Y0208748D01*
X0027580Y0207750D02*
X0023828Y0207750D01*
X0023828Y0206751D02*
X0027756Y0206751D01*
X0027759Y0206735D02*
X0027759Y0206735D01*
X0028326Y0205753D02*
X0023828Y0205753D01*
X0023828Y0204754D02*
X0028903Y0204754D01*
X0029546Y0203756D02*
X0023828Y0203756D01*
X0023828Y0202757D02*
X0030736Y0202757D01*
X0031926Y0201759D02*
X0023828Y0201759D01*
X0031956Y0201734D02*
X0031956Y0201734D01*
X0023828Y0220731D02*
X0078901Y0220731D01*
X0078066Y0221337D02*
X0078066Y0221337D01*
X0078066Y0221337D01*
X0077781Y0221729D02*
X0023828Y0221729D01*
X0023828Y0222728D02*
X0077056Y0222728D01*
X0076330Y0223726D02*
X0023828Y0223726D01*
X0023828Y0224725D02*
X0075720Y0224725D01*
X0075813Y0224438D02*
X0075813Y0224438D01*
X0075395Y0225723D02*
X0023828Y0225723D01*
X0023828Y0226722D02*
X0075071Y0226722D01*
X0074746Y0227720D02*
X0023828Y0227720D01*
X0023828Y0228719D02*
X0033000Y0228719D01*
X0032101Y0229717D02*
X0023828Y0229717D01*
X0023885Y0230716D02*
X0032101Y0230716D01*
X0032333Y0231714D02*
X0024081Y0231714D01*
X0024405Y0232713D02*
X0032943Y0232713D01*
X0032101Y0233711D02*
X0024780Y0233711D01*
X0025505Y0234710D02*
X0032101Y0234710D01*
X0032101Y0235708D02*
X0026310Y0235708D01*
X0027685Y0236707D02*
X0032405Y0236707D01*
X0033085Y0237387D02*
X0033085Y0237387D01*
X0033403Y0237705D02*
X0030192Y0237705D01*
X0024906Y0240000D02*
X0023066Y0238663D01*
X0023066Y0238663D01*
X0023066Y0238663D01*
X0021728Y0236822D01*
X0021728Y0240000D01*
X0024906Y0240000D01*
X0024497Y0239702D02*
X0021728Y0239702D01*
X0021728Y0238704D02*
X0023122Y0238704D01*
X0022370Y0237705D02*
X0021728Y0237705D01*
X0039040Y0237900D02*
X0040043Y0237900D01*
X0039542Y0237398D01*
X0039040Y0237900D01*
X0039235Y0237705D02*
X0039849Y0237705D01*
X0045486Y0237900D02*
X0045505Y0237900D01*
X0045495Y0237891D01*
X0045486Y0237900D01*
X0048979Y0237900D02*
X0049441Y0237900D01*
X0049210Y0237669D01*
X0048979Y0237900D01*
X0049173Y0237705D02*
X0049247Y0237705D01*
X0053110Y0237705D02*
X0068264Y0237705D01*
X0070772Y0236707D02*
X0053428Y0236707D01*
X0053428Y0235708D02*
X0072146Y0235708D01*
X0072951Y0234710D02*
X0053428Y0234710D01*
X0053428Y0233711D02*
X0073677Y0233711D01*
X0074051Y0232713D02*
X0053428Y0232713D01*
X0053428Y0231714D02*
X0074376Y0231714D01*
X0074572Y0230716D02*
X0052558Y0230716D01*
X0051559Y0229717D02*
X0074628Y0229717D01*
X0074628Y0228719D02*
X0050561Y0228719D01*
X0047859Y0228719D02*
X0045099Y0228719D01*
X0046098Y0229717D02*
X0046861Y0229717D01*
X0040430Y0228719D02*
X0039638Y0228719D01*
X0073550Y0240000D02*
X0119906Y0240000D01*
X0118066Y0238663D01*
X0118066Y0238663D01*
X0118066Y0238663D01*
X0115813Y0235562D01*
X0115813Y0235562D01*
X0114628Y0231916D01*
X0114628Y0230000D01*
X0114531Y0228764D01*
X0113767Y0226413D01*
X0112314Y0224414D01*
X0110315Y0222961D01*
X0107964Y0222197D01*
X0106728Y0222100D01*
X0105858Y0222100D01*
X0086728Y0222100D01*
X0085493Y0222197D01*
X0083142Y0222961D01*
X0081142Y0224414D01*
X0079689Y0226413D01*
X0078926Y0228764D01*
X0078828Y0230000D01*
X0078828Y0231916D01*
X0077644Y0235562D01*
X0075391Y0238663D01*
X0073550Y0240000D01*
X0073960Y0239702D02*
X0119497Y0239702D01*
X0118122Y0238704D02*
X0075334Y0238704D01*
X0075391Y0238663D02*
X0075391Y0238663D01*
X0075391Y0238663D01*
X0076087Y0237705D02*
X0117370Y0237705D01*
X0116645Y0236707D02*
X0076812Y0236707D01*
X0077537Y0235708D02*
X0115919Y0235708D01*
X0115536Y0234710D02*
X0077921Y0234710D01*
X0077644Y0235562D02*
X0077644Y0235562D01*
X0078245Y0233711D02*
X0115212Y0233711D01*
X0114887Y0232713D02*
X0078570Y0232713D01*
X0078828Y0231714D02*
X0114628Y0231714D01*
X0114628Y0230716D02*
X0078828Y0230716D01*
X0078851Y0229717D02*
X0114606Y0229717D01*
X0114516Y0228719D02*
X0078940Y0228719D01*
X0079265Y0227720D02*
X0114192Y0227720D01*
X0113867Y0226722D02*
X0079589Y0226722D01*
X0080191Y0225723D02*
X0113266Y0225723D01*
X0112540Y0224725D02*
X0080916Y0224725D01*
X0082089Y0223726D02*
X0111368Y0223726D01*
X0109596Y0222728D02*
X0083860Y0222728D01*
X0111210Y0218734D02*
X0153240Y0218734D01*
X0151956Y0218266D02*
X0151956Y0218266D01*
X0160217Y0218734D02*
X0169628Y0218734D01*
X0169628Y0219732D02*
X0113181Y0219732D01*
X0112290Y0219084D02*
X0112290Y0219084D01*
X0114556Y0220731D02*
X0169628Y0220731D01*
X0169628Y0221729D02*
X0115676Y0221729D01*
X0115391Y0221337D02*
X0115391Y0221337D01*
X0116401Y0222728D02*
X0169628Y0222728D01*
X0169628Y0223726D02*
X0117126Y0223726D01*
X0117737Y0224725D02*
X0169628Y0224725D01*
X0169628Y0225723D02*
X0118061Y0225723D01*
X0118386Y0226722D02*
X0169628Y0226722D01*
X0169628Y0227720D02*
X0118710Y0227720D01*
X0118828Y0228719D02*
X0169628Y0228719D01*
X0169628Y0229717D02*
X0118828Y0229717D01*
X0118885Y0230716D02*
X0169572Y0230716D01*
X0169376Y0231714D02*
X0119081Y0231714D01*
X0119405Y0232713D02*
X0169051Y0232713D01*
X0168677Y0233711D02*
X0119780Y0233711D01*
X0120505Y0234710D02*
X0167951Y0234710D01*
X0167146Y0235708D02*
X0121310Y0235708D01*
X0122685Y0236707D02*
X0165772Y0236707D01*
X0163264Y0237705D02*
X0125192Y0237705D01*
X0162134Y0217735D02*
X0169628Y0217735D01*
X0169628Y0216737D02*
X0163324Y0216737D01*
X0164040Y0216135D02*
X0164040Y0216135D01*
X0164270Y0215738D02*
X0169628Y0215738D01*
X0169628Y0214739D02*
X0164846Y0214739D01*
X0165423Y0213741D02*
X0169628Y0213741D01*
X0169628Y0212742D02*
X0165790Y0212742D01*
X0165698Y0213265D02*
X0165698Y0213265D01*
X0165966Y0211744D02*
X0169628Y0211744D01*
X0169628Y0210745D02*
X0166142Y0210745D01*
X0166273Y0210000D02*
X0166273Y0210000D01*
X0166229Y0209747D02*
X0169628Y0209747D01*
X0169628Y0208748D02*
X0166053Y0208748D01*
X0165877Y0207750D02*
X0169628Y0207750D01*
X0169628Y0206751D02*
X0165701Y0206751D01*
X0165130Y0205753D02*
X0169628Y0205753D01*
X0169628Y0204754D02*
X0164554Y0204754D01*
X0164040Y0203865D02*
X0164040Y0203865D01*
X0164040Y0203865D01*
X0163911Y0203756D02*
X0169628Y0203756D01*
X0169628Y0202757D02*
X0162721Y0202757D01*
X0161531Y0201759D02*
X0169628Y0201759D01*
X0169628Y0200760D02*
X0158826Y0200760D01*
X0161501Y0201734D02*
X0161501Y0201734D01*
X0169628Y0199762D02*
X0104343Y0199762D01*
X0105602Y0198763D02*
X0169628Y0198763D01*
X0169628Y0197765D02*
X0106428Y0197765D01*
X0106842Y0196766D02*
X0169628Y0196766D01*
X0169628Y0195768D02*
X0107128Y0195768D01*
X0107128Y0194769D02*
X0169628Y0194769D01*
X0169628Y0193771D02*
X0107064Y0193771D01*
X0106650Y0192772D02*
X0169628Y0192772D01*
X0169628Y0191774D02*
X0106139Y0191774D01*
X0105140Y0190775D02*
X0169628Y0190775D01*
X0099114Y0199762D02*
X0094343Y0199762D01*
X0095602Y0198763D02*
X0097855Y0198763D01*
X0097029Y0197765D02*
X0096428Y0197765D01*
X0067460Y0178793D02*
X0023828Y0178793D01*
X0023828Y0177795D02*
X0066716Y0177795D01*
X0066303Y0176796D02*
X0023828Y0176796D01*
X0023828Y0175798D02*
X0066028Y0175798D01*
X0066028Y0174799D02*
X0023828Y0174799D01*
X0023828Y0173801D02*
X0066056Y0173801D01*
X0066469Y0172802D02*
X0023828Y0172802D01*
X0023828Y0171803D02*
X0066883Y0171803D01*
X0067862Y0170805D02*
X0023828Y0170805D01*
X0023828Y0169806D02*
X0069372Y0169806D01*
X0168550Y0240000D02*
X0170391Y0238663D01*
X0170391Y0238663D01*
X0170391Y0238663D01*
X0171728Y0236822D01*
X0171728Y0240000D01*
X0168550Y0240000D01*
X0168960Y0239702D02*
X0171728Y0239702D01*
X0171728Y0238704D02*
X0170334Y0238704D01*
X0171087Y0237705D02*
X0171728Y0237705D01*
M02*
