G75*
%MOIN*%
%OFA0B0*%
%FSLAX25Y25*%
%IPPOS*%
%LPD*%
%AMOC8*
5,1,8,0,0,1.08239X$1,22.5*
%
%ADD10C,0.00300*%
%ADD11R,0.01890X0.00157*%
%ADD12R,0.02362X0.00157*%
%ADD13R,0.00630X0.00157*%
%ADD14R,0.02520X0.00157*%
%ADD15R,0.00945X0.00157*%
%ADD16R,0.02677X0.00157*%
%ADD17R,0.02835X0.00157*%
%ADD18R,0.00315X0.00157*%
%ADD19R,0.00787X0.00157*%
%ADD20R,0.03780X0.00157*%
%ADD21R,0.01417X0.00157*%
%ADD22R,0.02047X0.00157*%
%ADD23R,0.01732X0.00157*%
%ADD24R,0.03937X0.00157*%
%ADD25R,0.03307X0.00157*%
%ADD26R,0.01575X0.00157*%
%ADD27R,0.02205X0.00157*%
%ADD28R,0.01102X0.00157*%
%ADD29R,0.01260X0.00157*%
%ADD30R,0.02992X0.00157*%
%ADD31R,0.00157X0.00157*%
%ADD32R,0.00472X0.00157*%
%ADD33R,0.00157X0.00787*%
%ADD34R,0.00157X0.01575*%
%ADD35R,0.00157X0.02205*%
%ADD36R,0.00157X0.01102*%
%ADD37R,0.00157X0.00630*%
%ADD38R,0.00157X0.02520*%
%ADD39R,0.00157X0.00945*%
%ADD40R,0.00157X0.02677*%
%ADD41R,0.00157X0.02835*%
%ADD42R,0.00157X0.00472*%
%ADD43R,0.00157X0.00315*%
%ADD44R,0.00157X0.01417*%
%ADD45R,0.00157X0.01890*%
%ADD46R,0.00157X0.01260*%
%ADD47R,0.00157X0.01732*%
%ADD48R,0.00157X0.02047*%
%ADD49R,0.00157X0.02362*%
%ADD50R,0.00157X0.03465*%
%ADD51R,0.00157X0.03307*%
%ADD52R,0.00157X0.02992*%
%ADD53R,0.01102X0.00315*%
%ADD54R,0.01654X0.00315*%
%ADD55R,0.00827X0.00315*%
%ADD56R,0.01378X0.00315*%
%ADD57R,0.01654X0.00276*%
%ADD58R,0.01929X0.00276*%
%ADD59R,0.01378X0.00276*%
%ADD60R,0.01654X0.00236*%
%ADD61R,0.02480X0.00236*%
%ADD62R,0.01929X0.00236*%
%ADD63R,0.02205X0.00236*%
%ADD64R,0.01102X0.00236*%
%ADD65R,0.02756X0.00315*%
%ADD66R,0.02480X0.00315*%
%ADD67R,0.01929X0.00315*%
%ADD68R,0.02480X0.00276*%
%ADD69R,0.02756X0.00276*%
%ADD70R,0.00551X0.00315*%
%ADD71R,0.01102X0.00276*%
%ADD72R,0.03583X0.00276*%
%ADD73R,0.03307X0.00276*%
%ADD74R,0.03031X0.00276*%
%ADD75R,0.00827X0.00276*%
%ADD76R,0.03858X0.00276*%
%ADD77R,0.02205X0.00276*%
%ADD78R,0.04134X0.00276*%
%ADD79R,0.06614X0.00276*%
%ADD80R,0.04409X0.00276*%
%ADD81R,0.06063X0.00276*%
%ADD82R,0.04685X0.00276*%
%ADD83R,0.06890X0.00276*%
%ADD84R,0.02205X0.00315*%
%ADD85R,0.03583X0.00315*%
%ADD86R,0.03858X0.00236*%
%ADD87R,0.04409X0.00236*%
%ADD88R,0.04134X0.00236*%
%ADD89R,0.03583X0.00236*%
%ADD90R,0.00276X0.00236*%
%ADD91R,0.00827X0.00236*%
%ADD92R,0.01378X0.00236*%
%ADD93R,0.03031X0.00236*%
%ADD94R,0.00551X0.00276*%
%ADD95R,0.04961X0.00236*%
%ADD96R,0.04961X0.00315*%
%ADD97R,0.05236X0.00276*%
%ADD98R,0.05236X0.00236*%
%ADD99R,0.04685X0.00315*%
%ADD100R,0.04409X0.00315*%
%ADD101R,0.02756X0.00236*%
%ADD102R,0.00551X0.00236*%
%ADD103R,0.03307X0.00236*%
%ADD104R,0.01732X0.00315*%
%ADD105R,0.02047X0.00276*%
%ADD106R,0.01732X0.00276*%
%ADD107R,0.01457X0.00276*%
%ADD108R,0.01772X0.00315*%
%ADD109R,0.01457X0.00315*%
%ADD110R,0.00591X0.00276*%
%ADD111R,0.00591X0.00315*%
%ADD112R,0.00866X0.00315*%
%ADD113R,0.01181X0.00315*%
%ADD114R,0.00866X0.00276*%
%ADD115R,0.00315X0.00276*%
%ADD116R,0.01142X0.00276*%
%ADD117R,0.01181X0.00276*%
%ADD118R,0.48425X0.00315*%
%ADD119R,0.32677X0.00315*%
%ADD120R,0.48701X0.00276*%
%ADD121R,0.32677X0.00276*%
%ADD122R,0.01142X0.00315*%
%ADD123R,0.00906X0.00276*%
%ADD124R,0.00906X0.00315*%
%ADD125R,0.01772X0.00276*%
%ADD126R,0.00276X0.00315*%
%ADD127R,0.39685X0.00276*%
%ADD128R,0.39961X0.00276*%
%ADD129R,0.39685X0.00315*%
%ADD130R,0.38780X0.00315*%
D10*
X0124287Y0065394D02*
X0124681Y0065748D01*
X0125075Y0066063D01*
X0125469Y0066417D01*
X0125823Y0066772D01*
X0126217Y0067087D01*
X0126610Y0067441D01*
X0126965Y0067756D01*
X0127358Y0068110D01*
X0127358Y0082638D01*
X0127004Y0082717D01*
X0126650Y0082795D01*
X0126256Y0082835D01*
X0125902Y0082913D01*
X0125547Y0082953D01*
X0125193Y0083031D01*
X0124799Y0083110D01*
X0124445Y0083150D01*
X0124445Y0081732D01*
X0124130Y0082165D01*
X0123776Y0082520D01*
X0123421Y0082835D01*
X0123028Y0083071D01*
X0122594Y0083228D01*
X0122122Y0083386D01*
X0121610Y0083425D01*
X0121138Y0083465D01*
X0119917Y0083346D01*
X0118854Y0082992D01*
X0117988Y0082402D01*
X0117280Y0081654D01*
X0116728Y0080748D01*
X0116374Y0079764D01*
X0116138Y0078661D01*
X0116059Y0077480D01*
X0119130Y0077559D01*
X0119169Y0078228D01*
X0119248Y0078898D01*
X0119445Y0079488D01*
X0119720Y0080039D01*
X0120075Y0080512D01*
X0120547Y0080866D01*
X0121098Y0081063D01*
X0121807Y0081142D01*
X0122476Y0081063D01*
X0123067Y0080866D01*
X0123500Y0080512D01*
X0123854Y0080039D01*
X0124130Y0079488D01*
X0124287Y0078898D01*
X0124406Y0078228D01*
X0124445Y0077559D01*
X0124406Y0076890D01*
X0124287Y0076260D01*
X0124130Y0075669D01*
X0123854Y0075118D01*
X0123500Y0074685D01*
X0123028Y0074331D01*
X0122437Y0074094D01*
X0121768Y0074016D01*
X0121059Y0074094D01*
X0120508Y0074331D01*
X0120035Y0074685D01*
X0119681Y0075118D01*
X0119445Y0075669D01*
X0116728Y0074370D01*
X0117280Y0073504D01*
X0117949Y0072756D01*
X0118815Y0072205D01*
X0119799Y0071850D01*
X0120941Y0071732D01*
X0121453Y0071772D01*
X0121925Y0071850D01*
X0122398Y0071969D01*
X0122831Y0072165D01*
X0123264Y0072402D01*
X0123657Y0072677D01*
X0123972Y0073031D01*
X0124287Y0073425D01*
X0124287Y0065394D01*
X0124287Y0065672D02*
X0124597Y0065672D01*
X0124287Y0065970D02*
X0124959Y0065970D01*
X0125304Y0066269D02*
X0124287Y0066269D01*
X0124287Y0066568D02*
X0125619Y0066568D01*
X0125941Y0066866D02*
X0124287Y0066866D01*
X0124287Y0067165D02*
X0126303Y0067165D01*
X0126635Y0067463D02*
X0124287Y0067463D01*
X0124287Y0067762D02*
X0126971Y0067762D01*
X0127303Y0068060D02*
X0124287Y0068060D01*
X0124287Y0068359D02*
X0127358Y0068359D01*
X0127358Y0068657D02*
X0124287Y0068657D01*
X0124287Y0068956D02*
X0127358Y0068956D01*
X0127358Y0069254D02*
X0124287Y0069254D01*
X0124287Y0069553D02*
X0127358Y0069553D01*
X0127358Y0069851D02*
X0124287Y0069851D01*
X0124287Y0070150D02*
X0127358Y0070150D01*
X0127358Y0070448D02*
X0124287Y0070448D01*
X0124287Y0070747D02*
X0127358Y0070747D01*
X0127358Y0071045D02*
X0124287Y0071045D01*
X0124287Y0071344D02*
X0127358Y0071344D01*
X0127358Y0071642D02*
X0124287Y0071642D01*
X0124287Y0071941D02*
X0127358Y0071941D01*
X0127358Y0072239D02*
X0124287Y0072239D01*
X0124287Y0072538D02*
X0127358Y0072538D01*
X0127358Y0072836D02*
X0124287Y0072836D01*
X0124287Y0073135D02*
X0127358Y0073135D01*
X0127358Y0073433D02*
X0117343Y0073433D01*
X0117135Y0073732D02*
X0127358Y0073732D01*
X0127358Y0074030D02*
X0121891Y0074030D01*
X0121637Y0074030D02*
X0116945Y0074030D01*
X0116755Y0074329D02*
X0120512Y0074329D01*
X0120112Y0074627D02*
X0117266Y0074627D01*
X0116632Y0074627D01*
X0116728Y0074370D02*
X0119445Y0075669D01*
X0119248Y0076260D01*
X0119169Y0076890D01*
X0119130Y0077559D01*
X0116059Y0077480D01*
X0116138Y0076378D01*
X0116374Y0075315D01*
X0116728Y0074370D01*
X0116520Y0074926D02*
X0117890Y0074926D01*
X0119838Y0074926D01*
X0119636Y0075224D02*
X0118515Y0075224D01*
X0116408Y0075224D01*
X0116328Y0075523D02*
X0119139Y0075523D01*
X0119508Y0075523D01*
X0119394Y0075821D02*
X0116261Y0075821D01*
X0116195Y0076120D02*
X0119295Y0076120D01*
X0119228Y0076418D02*
X0116135Y0076418D01*
X0116114Y0076717D02*
X0119191Y0076717D01*
X0119162Y0077015D02*
X0116092Y0077015D01*
X0116071Y0077314D02*
X0119144Y0077314D01*
X0119133Y0077612D02*
X0116068Y0077612D01*
X0116088Y0077911D02*
X0119151Y0077911D01*
X0119168Y0078209D02*
X0116108Y0078209D01*
X0116128Y0078508D02*
X0119202Y0078508D01*
X0119237Y0078806D02*
X0116169Y0078806D01*
X0116233Y0079105D02*
X0119317Y0079105D01*
X0119417Y0079403D02*
X0116297Y0079403D01*
X0116361Y0079702D02*
X0119552Y0079702D01*
X0119701Y0080001D02*
X0116459Y0080001D01*
X0116567Y0080299D02*
X0119915Y0080299D01*
X0120189Y0080598D02*
X0116674Y0080598D01*
X0116818Y0080896D02*
X0120631Y0080896D01*
X0122977Y0080896D02*
X0127358Y0080896D01*
X0127358Y0080598D02*
X0123395Y0080598D01*
X0123660Y0080299D02*
X0127358Y0080299D01*
X0127358Y0080001D02*
X0123874Y0080001D01*
X0124023Y0079702D02*
X0127358Y0079702D01*
X0127358Y0079403D02*
X0124152Y0079403D01*
X0124232Y0079105D02*
X0127358Y0079105D01*
X0127358Y0078806D02*
X0124303Y0078806D01*
X0124356Y0078508D02*
X0127358Y0078508D01*
X0127358Y0078209D02*
X0124407Y0078209D01*
X0124424Y0077911D02*
X0127358Y0077911D01*
X0127358Y0077612D02*
X0124442Y0077612D01*
X0124430Y0077314D02*
X0127358Y0077314D01*
X0127358Y0077015D02*
X0124413Y0077015D01*
X0124373Y0076717D02*
X0127358Y0076717D01*
X0127358Y0076418D02*
X0124317Y0076418D01*
X0124250Y0076120D02*
X0127358Y0076120D01*
X0127358Y0075821D02*
X0124170Y0075821D01*
X0124057Y0075523D02*
X0127358Y0075523D01*
X0127358Y0075224D02*
X0123907Y0075224D01*
X0123697Y0074926D02*
X0127358Y0074926D01*
X0127358Y0074627D02*
X0123423Y0074627D01*
X0123023Y0074329D02*
X0127358Y0074329D01*
X0128736Y0074606D02*
X0129051Y0073780D01*
X0129563Y0073110D01*
X0130193Y0072559D01*
X0130980Y0072165D01*
X0131846Y0071929D01*
X0132752Y0071772D01*
X0133697Y0071732D01*
X0134642Y0071772D01*
X0135587Y0071929D01*
X0136453Y0072205D01*
X0137240Y0072598D01*
X0137909Y0073110D01*
X0138421Y0073780D01*
X0138776Y0074646D01*
X0138933Y0075630D01*
X0136374Y0075630D01*
X0136020Y0075630D01*
X0135980Y0075197D01*
X0135823Y0074803D01*
X0135587Y0074488D01*
X0135272Y0074213D01*
X0134917Y0074016D01*
X0134524Y0073898D01*
X0134130Y0073819D01*
X0133657Y0073780D01*
X0133343Y0073780D01*
X0132988Y0073858D01*
X0132673Y0073937D01*
X0132358Y0074094D01*
X0132083Y0074252D01*
X0131846Y0074528D01*
X0131728Y0074843D01*
X0131650Y0075197D01*
X0131728Y0075512D01*
X0131886Y0075787D01*
X0132201Y0076024D01*
X0132594Y0076220D01*
X0133067Y0076417D01*
X0133657Y0076575D01*
X0134366Y0076732D01*
X0135154Y0076929D01*
X0135783Y0077087D01*
X0136453Y0077283D01*
X0137043Y0077520D01*
X0137555Y0077795D01*
X0138028Y0078189D01*
X0138382Y0078661D01*
X0138579Y0079213D01*
X0138657Y0079882D01*
X0138539Y0080866D01*
X0138264Y0081654D01*
X0137752Y0082283D01*
X0137122Y0082756D01*
X0136413Y0083071D01*
X0135587Y0083307D01*
X0134720Y0083425D01*
X0133815Y0083465D01*
X0132909Y0083425D01*
X0132083Y0083307D01*
X0131256Y0083071D01*
X0130547Y0082717D01*
X0129917Y0082244D01*
X0129445Y0081614D01*
X0129091Y0080866D01*
X0128894Y0079921D01*
X0131807Y0079921D01*
X0131886Y0080315D01*
X0132043Y0080630D01*
X0132240Y0080906D01*
X0132476Y0081102D01*
X0132791Y0081260D01*
X0133146Y0081339D01*
X0133500Y0081417D01*
X0134169Y0081417D01*
X0134484Y0081378D01*
X0134760Y0081339D01*
X0135035Y0081260D01*
X0135272Y0081102D01*
X0135429Y0080945D01*
X0135547Y0080709D01*
X0135626Y0080394D01*
X0135547Y0080000D01*
X0135311Y0079724D01*
X0134957Y0079488D01*
X0134524Y0079291D01*
X0134012Y0079134D01*
X0133421Y0079016D01*
X0132791Y0078858D01*
X0132122Y0078740D01*
X0131492Y0078543D01*
X0130823Y0078346D01*
X0130232Y0078110D01*
X0129720Y0077795D01*
X0129248Y0077402D01*
X0128894Y0076890D01*
X0128697Y0076299D01*
X0128618Y0075591D01*
X0128736Y0074606D01*
X0128734Y0074627D02*
X0131809Y0074627D01*
X0131710Y0074926D02*
X0128698Y0074926D01*
X0128662Y0075224D02*
X0131656Y0075224D01*
X0131735Y0075523D02*
X0128626Y0075523D01*
X0128644Y0075821D02*
X0131931Y0075821D01*
X0132393Y0076120D02*
X0128677Y0076120D01*
X0128737Y0076418D02*
X0133071Y0076418D01*
X0134297Y0076717D02*
X0128836Y0076717D01*
X0128981Y0077015D02*
X0135499Y0077015D01*
X0136529Y0077314D02*
X0129187Y0077314D01*
X0129501Y0077612D02*
X0137216Y0077612D01*
X0137694Y0077911D02*
X0129908Y0077911D01*
X0130480Y0078209D02*
X0138043Y0078209D01*
X0138267Y0078508D02*
X0131372Y0078508D01*
X0132498Y0078806D02*
X0138434Y0078806D01*
X0138540Y0079105D02*
X0133867Y0079105D01*
X0134770Y0079403D02*
X0138601Y0079403D01*
X0138636Y0079702D02*
X0135277Y0079702D01*
X0135547Y0080001D02*
X0138643Y0080001D01*
X0138607Y0080299D02*
X0135607Y0080299D01*
X0135575Y0080598D02*
X0138572Y0080598D01*
X0138529Y0080896D02*
X0135454Y0080896D01*
X0135133Y0081195D02*
X0138424Y0081195D01*
X0138320Y0081493D02*
X0129388Y0081493D01*
X0129246Y0081195D02*
X0132661Y0081195D01*
X0132233Y0080896D02*
X0129105Y0080896D01*
X0129035Y0080598D02*
X0132027Y0080598D01*
X0131883Y0080299D02*
X0128972Y0080299D01*
X0128910Y0080001D02*
X0131823Y0080001D01*
X0129578Y0081792D02*
X0138152Y0081792D01*
X0137909Y0082090D02*
X0129802Y0082090D01*
X0130110Y0082389D02*
X0137612Y0082389D01*
X0137214Y0082687D02*
X0130508Y0082687D01*
X0131085Y0082986D02*
X0136605Y0082986D01*
X0135667Y0083284D02*
X0132002Y0083284D01*
X0127358Y0082389D02*
X0124445Y0082389D01*
X0124445Y0082687D02*
X0127136Y0082687D01*
X0127358Y0082090D02*
X0124445Y0082090D01*
X0124185Y0082090D02*
X0117693Y0082090D01*
X0117410Y0081792D02*
X0124402Y0081792D01*
X0124445Y0081792D02*
X0127358Y0081792D01*
X0127358Y0081493D02*
X0117182Y0081493D01*
X0117000Y0081195D02*
X0127358Y0081195D01*
X0125399Y0082986D02*
X0124445Y0082986D01*
X0123907Y0082389D02*
X0117976Y0082389D01*
X0118407Y0082687D02*
X0123587Y0082687D01*
X0123170Y0082986D02*
X0118845Y0082986D01*
X0119730Y0083284D02*
X0122427Y0083284D01*
X0114642Y0080709D02*
X0114484Y0081102D01*
X0114287Y0081496D01*
X0114051Y0081850D01*
X0113776Y0082165D01*
X0113421Y0082402D01*
X0113067Y0082638D01*
X0112713Y0082835D01*
X0112319Y0083031D01*
X0111886Y0083150D01*
X0111453Y0083268D01*
X0110980Y0083346D01*
X0110547Y0083386D01*
X0110075Y0083425D01*
X0108736Y0083425D01*
X0108343Y0083386D01*
X0107909Y0083307D01*
X0107476Y0083228D01*
X0107083Y0083150D01*
X0106689Y0083031D01*
X0106335Y0082874D01*
X0105980Y0082677D01*
X0105665Y0082441D01*
X0105390Y0082205D01*
X0105154Y0081890D01*
X0104957Y0081575D01*
X0104839Y0081181D01*
X0104720Y0080748D01*
X0104720Y0074094D01*
X0104681Y0073898D01*
X0104681Y0073386D01*
X0104642Y0073189D01*
X0104642Y0073031D01*
X0104602Y0072874D01*
X0104563Y0072717D01*
X0104524Y0072559D01*
X0104524Y0072441D01*
X0104484Y0072323D01*
X0104406Y0072205D01*
X0104366Y0072087D01*
X0104327Y0072008D01*
X0107437Y0072008D01*
X0107437Y0072087D01*
X0107476Y0072126D01*
X0107476Y0072205D01*
X0107516Y0072283D01*
X0107555Y0072323D01*
X0107555Y0072480D01*
X0107594Y0072520D01*
X0107594Y0072677D01*
X0107634Y0072756D01*
X0107634Y0073071D01*
X0107831Y0072913D01*
X0108028Y0072717D01*
X0108224Y0072559D01*
X0108421Y0072441D01*
X0108657Y0072323D01*
X0108894Y0072205D01*
X0109130Y0072087D01*
X0109366Y0072008D01*
X0109602Y0071929D01*
X0109839Y0071890D01*
X0110114Y0071811D01*
X0110350Y0071772D01*
X0110626Y0071732D01*
X0110862Y0071732D01*
X0111138Y0071693D01*
X0111768Y0071693D01*
X0112161Y0071732D01*
X0112516Y0071811D01*
X0112870Y0071890D01*
X0113224Y0072008D01*
X0113539Y0072165D01*
X0113815Y0072323D01*
X0114091Y0072520D01*
X0114327Y0072717D01*
X0114524Y0072992D01*
X0114720Y0073228D01*
X0114878Y0073543D01*
X0114996Y0073858D01*
X0115114Y0074252D01*
X0115154Y0074606D01*
X0115193Y0075039D01*
X0115075Y0075906D01*
X0114839Y0076575D01*
X0114484Y0077126D01*
X0113972Y0077559D01*
X0113421Y0077913D01*
X0112791Y0078150D01*
X0112122Y0078307D01*
X0111413Y0078425D01*
X0110823Y0076693D01*
X0110980Y0076654D01*
X0111138Y0076575D01*
X0111295Y0076535D01*
X0111453Y0076457D01*
X0111571Y0076378D01*
X0111689Y0076260D01*
X0111807Y0076142D01*
X0111886Y0076024D01*
X0111965Y0075906D01*
X0112043Y0075748D01*
X0112083Y0075591D01*
X0112122Y0075394D01*
X0112122Y0075000D01*
X0112083Y0074803D01*
X0112043Y0074646D01*
X0111965Y0074488D01*
X0111886Y0074370D01*
X0111807Y0074252D01*
X0111689Y0074134D01*
X0111571Y0074055D01*
X0111413Y0073976D01*
X0111295Y0073937D01*
X0111138Y0073858D01*
X0110980Y0073819D01*
X0110783Y0073780D01*
X0109839Y0073780D01*
X0109445Y0073858D01*
X0109130Y0073937D01*
X0108854Y0074094D01*
X0108618Y0074213D01*
X0108421Y0074409D01*
X0108264Y0074606D01*
X0108106Y0074803D01*
X0108028Y0075000D01*
X0107909Y0075236D01*
X0107870Y0075433D01*
X0107831Y0075630D01*
X0107791Y0075827D01*
X0107791Y0077480D01*
X0107870Y0077402D01*
X0107988Y0077323D01*
X0108106Y0077244D01*
X0108264Y0077205D01*
X0108421Y0077165D01*
X0108539Y0077126D01*
X0108736Y0077087D01*
X0108894Y0077047D01*
X0109051Y0077008D01*
X0109406Y0078661D01*
X0108894Y0078819D01*
X0108421Y0078976D01*
X0108067Y0079173D01*
X0107831Y0079488D01*
X0107791Y0079882D01*
X0107791Y0080118D01*
X0107831Y0080354D01*
X0107870Y0080512D01*
X0107949Y0080669D01*
X0108028Y0080827D01*
X0108106Y0080945D01*
X0108224Y0081063D01*
X0108343Y0081142D01*
X0108500Y0081220D01*
X0108657Y0081260D01*
X0108815Y0081339D01*
X0108972Y0081339D01*
X0109169Y0081378D01*
X0109366Y0081417D01*
X0109957Y0081417D01*
X0110193Y0081378D01*
X0110390Y0081339D01*
X0110547Y0081299D01*
X0110744Y0081260D01*
X0110902Y0081181D01*
X0111020Y0081102D01*
X0111177Y0081024D01*
X0111295Y0080906D01*
X0111413Y0080787D01*
X0111492Y0080630D01*
X0111571Y0080472D01*
X0111650Y0080315D01*
X0111689Y0080118D01*
X0111768Y0079921D01*
X0111768Y0079724D01*
X0114839Y0079724D01*
X0114760Y0080236D01*
X0114642Y0080709D01*
X0114670Y0080598D02*
X0111508Y0080598D01*
X0111653Y0080299D02*
X0114744Y0080299D01*
X0114796Y0080001D02*
X0111736Y0080001D01*
X0111305Y0080896D02*
X0114567Y0080896D01*
X0114438Y0081195D02*
X0110875Y0081195D01*
X0111354Y0083284D02*
X0107783Y0083284D01*
X0106586Y0082986D02*
X0112411Y0082986D01*
X0112978Y0082687D02*
X0105998Y0082687D01*
X0105604Y0082389D02*
X0113441Y0082389D01*
X0113841Y0082090D02*
X0105304Y0082090D01*
X0105092Y0081792D02*
X0114090Y0081792D01*
X0114289Y0081493D02*
X0104932Y0081493D01*
X0104843Y0081195D02*
X0108448Y0081195D01*
X0108074Y0080896D02*
X0104761Y0080896D01*
X0104720Y0080598D02*
X0107913Y0080598D01*
X0107821Y0080299D02*
X0104720Y0080299D01*
X0104720Y0080001D02*
X0107791Y0080001D01*
X0107809Y0079702D02*
X0104720Y0079702D01*
X0104720Y0079403D02*
X0107894Y0079403D01*
X0108190Y0079105D02*
X0104720Y0079105D01*
X0104720Y0078806D02*
X0108934Y0078806D01*
X0109406Y0078661D02*
X0109051Y0077008D01*
X0109248Y0077008D01*
X0109406Y0076969D01*
X0109602Y0076929D01*
X0109760Y0076929D01*
X0109957Y0076890D01*
X0110154Y0076850D01*
X0110311Y0076811D01*
X0110508Y0076772D01*
X0110665Y0076732D01*
X0110823Y0076693D01*
X0111413Y0078425D01*
X0110705Y0078504D01*
X0110035Y0078583D01*
X0109406Y0078661D01*
X0109373Y0078508D02*
X0104720Y0078508D01*
X0104720Y0078209D02*
X0109309Y0078209D01*
X0111340Y0078209D01*
X0112537Y0078209D01*
X0113425Y0077911D02*
X0111238Y0077911D01*
X0109245Y0077911D01*
X0104720Y0077911D01*
X0104720Y0077612D02*
X0109181Y0077612D01*
X0111136Y0077612D01*
X0113889Y0077612D01*
X0114262Y0077314D02*
X0111035Y0077314D01*
X0109117Y0077314D01*
X0108002Y0077314D01*
X0107791Y0077314D02*
X0104720Y0077314D01*
X0104720Y0077015D02*
X0107791Y0077015D01*
X0107791Y0076717D02*
X0104720Y0076717D01*
X0104720Y0076418D02*
X0107791Y0076418D01*
X0107791Y0076120D02*
X0104720Y0076120D01*
X0104720Y0075821D02*
X0107792Y0075821D01*
X0107852Y0075523D02*
X0104720Y0075523D01*
X0104720Y0075224D02*
X0107915Y0075224D01*
X0108057Y0074926D02*
X0104720Y0074926D01*
X0104720Y0074627D02*
X0108247Y0074627D01*
X0108502Y0074329D02*
X0104720Y0074329D01*
X0104708Y0074030D02*
X0108967Y0074030D01*
X0107908Y0072836D02*
X0114412Y0072836D01*
X0114642Y0073135D02*
X0104642Y0073135D01*
X0104681Y0073433D02*
X0114823Y0073433D01*
X0114949Y0073732D02*
X0104681Y0073732D01*
X0104593Y0072836D02*
X0107634Y0072836D01*
X0107594Y0072538D02*
X0104524Y0072538D01*
X0104429Y0072239D02*
X0107494Y0072239D01*
X0108260Y0072538D02*
X0114112Y0072538D01*
X0113669Y0072239D02*
X0108825Y0072239D01*
X0109568Y0071941D02*
X0113023Y0071941D01*
X0111521Y0074030D02*
X0115048Y0074030D01*
X0115123Y0074329D02*
X0111858Y0074329D01*
X0112034Y0074627D02*
X0115155Y0074627D01*
X0115183Y0074926D02*
X0112107Y0074926D01*
X0112122Y0075224D02*
X0115168Y0075224D01*
X0115127Y0075523D02*
X0112096Y0075523D01*
X0112007Y0075821D02*
X0115086Y0075821D01*
X0114999Y0076120D02*
X0111822Y0076120D01*
X0111510Y0076418D02*
X0114894Y0076418D01*
X0114747Y0076717D02*
X0110831Y0076717D01*
X0110727Y0076717D01*
X0110933Y0077015D02*
X0109053Y0077015D01*
X0109021Y0077015D01*
X0109373Y0078508D02*
X0110671Y0078508D01*
X0110933Y0077015D02*
X0114555Y0077015D01*
X0117610Y0073135D02*
X0124055Y0073135D01*
X0123799Y0072836D02*
X0117877Y0072836D01*
X0118292Y0072538D02*
X0123458Y0072538D01*
X0122966Y0072239D02*
X0118761Y0072239D01*
X0119548Y0071941D02*
X0122286Y0071941D01*
X0128842Y0074329D02*
X0132017Y0074329D01*
X0132487Y0074030D02*
X0128956Y0074030D01*
X0129088Y0073732D02*
X0138385Y0073732D01*
X0138524Y0074030D02*
X0134944Y0074030D01*
X0135404Y0074329D02*
X0138646Y0074329D01*
X0138768Y0074627D02*
X0135691Y0074627D01*
X0135872Y0074926D02*
X0138820Y0074926D01*
X0138868Y0075224D02*
X0135983Y0075224D01*
X0136010Y0075523D02*
X0138916Y0075523D01*
X0138156Y0073433D02*
X0129316Y0073433D01*
X0129544Y0073135D02*
X0137928Y0073135D01*
X0137551Y0072836D02*
X0129876Y0072836D01*
X0130236Y0072538D02*
X0137119Y0072538D01*
X0136522Y0072239D02*
X0130833Y0072239D01*
X0131804Y0071941D02*
X0135623Y0071941D01*
X0103028Y0072008D02*
X0103028Y0081299D01*
X0102988Y0082638D01*
X0102634Y0082717D01*
X0102240Y0082756D01*
X0101886Y0082835D01*
X0101531Y0082913D01*
X0101177Y0082953D01*
X0100823Y0083031D01*
X0100429Y0083110D01*
X0100075Y0083150D01*
X0100075Y0081102D01*
X0099799Y0081614D01*
X0099484Y0082047D01*
X0099091Y0082441D01*
X0098618Y0082795D01*
X0098146Y0083071D01*
X0097634Y0083307D01*
X0097083Y0083425D01*
X0096492Y0083465D01*
X0096256Y0083465D01*
X0096177Y0083425D01*
X0096098Y0083425D01*
X0095980Y0083386D01*
X0095902Y0083386D01*
X0095823Y0083346D01*
X0095823Y0080512D01*
X0095941Y0080551D01*
X0096059Y0080551D01*
X0096217Y0080591D01*
X0096492Y0080591D01*
X0096650Y0080630D01*
X0096925Y0080630D01*
X0097713Y0080551D01*
X0098343Y0080354D01*
X0098894Y0080000D01*
X0099287Y0079567D01*
X0099602Y0079055D01*
X0099799Y0078425D01*
X0099917Y0077756D01*
X0099957Y0077047D01*
X0099957Y0072008D01*
X0103028Y0072008D01*
X0103028Y0072239D02*
X0099957Y0072239D01*
X0099957Y0072538D02*
X0103028Y0072538D01*
X0103028Y0072836D02*
X0099957Y0072836D01*
X0099957Y0073135D02*
X0103028Y0073135D01*
X0103028Y0073433D02*
X0099957Y0073433D01*
X0099957Y0073732D02*
X0103028Y0073732D01*
X0103028Y0074030D02*
X0099957Y0074030D01*
X0099957Y0074329D02*
X0103028Y0074329D01*
X0103028Y0074627D02*
X0099957Y0074627D01*
X0099957Y0074926D02*
X0103028Y0074926D01*
X0103028Y0075224D02*
X0099957Y0075224D01*
X0099957Y0075523D02*
X0103028Y0075523D01*
X0103028Y0075821D02*
X0099957Y0075821D01*
X0099957Y0076120D02*
X0103028Y0076120D01*
X0103028Y0076418D02*
X0099957Y0076418D01*
X0099957Y0076717D02*
X0103028Y0076717D01*
X0103028Y0077015D02*
X0099957Y0077015D01*
X0099942Y0077314D02*
X0103028Y0077314D01*
X0103028Y0077612D02*
X0099925Y0077612D01*
X0099890Y0077911D02*
X0103028Y0077911D01*
X0103028Y0078209D02*
X0099837Y0078209D01*
X0099773Y0078508D02*
X0103028Y0078508D01*
X0103028Y0078806D02*
X0099680Y0078806D01*
X0099572Y0079105D02*
X0103028Y0079105D01*
X0103028Y0079403D02*
X0099388Y0079403D01*
X0099165Y0079702D02*
X0103028Y0079702D01*
X0103028Y0080001D02*
X0098893Y0080001D01*
X0098429Y0080299D02*
X0103028Y0080299D01*
X0103028Y0080598D02*
X0097249Y0080598D01*
X0096520Y0080598D02*
X0095823Y0080598D01*
X0095823Y0080896D02*
X0103028Y0080896D01*
X0103028Y0081195D02*
X0100075Y0081195D01*
X0100025Y0081195D02*
X0095823Y0081195D01*
X0095823Y0081493D02*
X0099864Y0081493D01*
X0100075Y0081493D02*
X0103022Y0081493D01*
X0103013Y0081792D02*
X0100075Y0081792D01*
X0100075Y0082090D02*
X0103004Y0082090D01*
X0102996Y0082389D02*
X0100075Y0082389D01*
X0100075Y0082687D02*
X0102766Y0082687D01*
X0101029Y0082986D02*
X0100075Y0082986D01*
X0099441Y0082090D02*
X0095823Y0082090D01*
X0095823Y0081792D02*
X0099670Y0081792D01*
X0099143Y0082389D02*
X0095823Y0082389D01*
X0095823Y0082687D02*
X0098762Y0082687D01*
X0098292Y0082986D02*
X0095823Y0082986D01*
X0095823Y0083284D02*
X0097684Y0083284D01*
X0094642Y0083284D02*
X0091571Y0083284D01*
X0091571Y0082986D02*
X0094642Y0082986D01*
X0094642Y0082687D02*
X0091571Y0082687D01*
X0091571Y0082389D02*
X0094642Y0082389D01*
X0094642Y0082090D02*
X0091571Y0082090D01*
X0091571Y0081792D02*
X0094642Y0081792D01*
X0094642Y0081493D02*
X0091571Y0081493D01*
X0091571Y0081195D02*
X0094642Y0081195D01*
X0094642Y0080896D02*
X0091571Y0080896D01*
X0091571Y0080598D02*
X0094642Y0080598D01*
X0094642Y0080299D02*
X0091571Y0080299D01*
X0091571Y0080001D02*
X0094642Y0080001D01*
X0094642Y0079702D02*
X0091571Y0079702D01*
X0091571Y0079403D02*
X0094642Y0079403D01*
X0094642Y0079105D02*
X0088252Y0079105D01*
X0088303Y0079055D02*
X0083618Y0072047D01*
X0087319Y0072047D01*
X0090390Y0077008D01*
X0091571Y0075866D01*
X0091571Y0072047D01*
X0094642Y0072047D01*
X0094642Y0085709D01*
X0091571Y0087402D01*
X0091571Y0079173D01*
X0087713Y0083150D01*
X0084091Y0083150D01*
X0088303Y0079055D01*
X0088137Y0078806D02*
X0094642Y0078806D01*
X0094642Y0078508D02*
X0087937Y0078508D01*
X0087738Y0078209D02*
X0094642Y0078209D01*
X0094642Y0077911D02*
X0087538Y0077911D01*
X0087339Y0077612D02*
X0094642Y0077612D01*
X0094642Y0077314D02*
X0087139Y0077314D01*
X0086940Y0077015D02*
X0094642Y0077015D01*
X0094642Y0076717D02*
X0090691Y0076717D01*
X0091000Y0076418D02*
X0094642Y0076418D01*
X0094642Y0076120D02*
X0091308Y0076120D01*
X0091571Y0075821D02*
X0094642Y0075821D01*
X0094642Y0075523D02*
X0091571Y0075523D01*
X0091571Y0075224D02*
X0094642Y0075224D01*
X0094642Y0074926D02*
X0091571Y0074926D01*
X0091571Y0074627D02*
X0094642Y0074627D01*
X0094642Y0074329D02*
X0091571Y0074329D01*
X0091571Y0074030D02*
X0094642Y0074030D01*
X0094642Y0073732D02*
X0091571Y0073732D01*
X0091571Y0073433D02*
X0094642Y0073433D01*
X0094642Y0073135D02*
X0091571Y0073135D01*
X0091571Y0072836D02*
X0094642Y0072836D01*
X0094642Y0072538D02*
X0091571Y0072538D01*
X0091571Y0072239D02*
X0094642Y0072239D01*
X0089470Y0075523D02*
X0085942Y0075523D01*
X0086141Y0075821D02*
X0089655Y0075821D01*
X0089840Y0076120D02*
X0086341Y0076120D01*
X0086540Y0076418D02*
X0090025Y0076418D01*
X0090210Y0076717D02*
X0086740Y0076717D01*
X0085742Y0075224D02*
X0089286Y0075224D01*
X0089101Y0074926D02*
X0085543Y0074926D01*
X0085343Y0074627D02*
X0088916Y0074627D01*
X0088731Y0074329D02*
X0085143Y0074329D01*
X0084944Y0074030D02*
X0088546Y0074030D01*
X0088362Y0073732D02*
X0084744Y0073732D01*
X0084545Y0073433D02*
X0088177Y0073433D01*
X0087992Y0073135D02*
X0084345Y0073135D01*
X0084146Y0072836D02*
X0087807Y0072836D01*
X0087623Y0072538D02*
X0083946Y0072538D01*
X0083746Y0072239D02*
X0087438Y0072239D01*
X0081768Y0072239D02*
X0078697Y0072239D01*
X0078697Y0072047D02*
X0081768Y0072047D01*
X0081768Y0080000D01*
X0081768Y0081102D01*
X0084799Y0081102D01*
X0084524Y0081378D01*
X0084248Y0081614D01*
X0084012Y0081890D01*
X0083736Y0082126D01*
X0083500Y0082402D01*
X0083224Y0082638D01*
X0082949Y0082913D01*
X0082713Y0083150D01*
X0081768Y0083150D01*
X0081768Y0084016D01*
X0081728Y0084724D01*
X0081531Y0085394D01*
X0081256Y0085945D01*
X0080862Y0086457D01*
X0080311Y0086850D01*
X0079681Y0087165D01*
X0078933Y0087323D01*
X0078028Y0087402D01*
X0077437Y0087402D01*
X0077240Y0087362D01*
X0076807Y0087362D01*
X0076610Y0087323D01*
X0076413Y0087323D01*
X0076413Y0085039D01*
X0076571Y0085079D01*
X0077280Y0085079D01*
X0077398Y0085118D01*
X0077555Y0085118D01*
X0077831Y0085079D01*
X0078067Y0085039D01*
X0078303Y0084961D01*
X0078461Y0084803D01*
X0078579Y0084646D01*
X0078657Y0084409D01*
X0078697Y0084134D01*
X0078697Y0083150D01*
X0076610Y0083150D01*
X0076610Y0081102D01*
X0078697Y0081102D01*
X0078697Y0072047D01*
X0078697Y0072538D02*
X0081768Y0072538D01*
X0081768Y0072836D02*
X0078697Y0072836D01*
X0078697Y0073135D02*
X0081768Y0073135D01*
X0081768Y0073433D02*
X0078697Y0073433D01*
X0078697Y0073732D02*
X0081768Y0073732D01*
X0081768Y0074030D02*
X0078697Y0074030D01*
X0078697Y0074329D02*
X0081768Y0074329D01*
X0081768Y0074627D02*
X0078697Y0074627D01*
X0078697Y0074926D02*
X0081768Y0074926D01*
X0081768Y0075224D02*
X0078697Y0075224D01*
X0078697Y0075523D02*
X0081768Y0075523D01*
X0081768Y0075821D02*
X0078697Y0075821D01*
X0078697Y0076120D02*
X0081768Y0076120D01*
X0081768Y0076418D02*
X0078697Y0076418D01*
X0078697Y0076717D02*
X0081768Y0076717D01*
X0081768Y0077015D02*
X0078697Y0077015D01*
X0078697Y0077314D02*
X0081768Y0077314D01*
X0081768Y0077612D02*
X0078697Y0077612D01*
X0078697Y0077911D02*
X0081768Y0077911D01*
X0081768Y0078209D02*
X0078697Y0078209D01*
X0078697Y0078508D02*
X0081768Y0078508D01*
X0081768Y0078806D02*
X0078697Y0078806D01*
X0078697Y0079105D02*
X0081768Y0079105D01*
X0081768Y0079403D02*
X0078697Y0079403D01*
X0078697Y0079702D02*
X0081768Y0079702D01*
X0081768Y0080001D02*
X0078697Y0080001D01*
X0078697Y0080299D02*
X0081768Y0080299D01*
X0081768Y0080598D02*
X0078697Y0080598D01*
X0078697Y0080896D02*
X0081768Y0080896D01*
X0083175Y0082687D02*
X0076610Y0082687D01*
X0076610Y0082389D02*
X0083511Y0082389D01*
X0083778Y0082090D02*
X0076610Y0082090D01*
X0076610Y0081792D02*
X0084096Y0081792D01*
X0084389Y0081493D02*
X0076610Y0081493D01*
X0076610Y0081195D02*
X0084707Y0081195D01*
X0085488Y0081792D02*
X0089030Y0081792D01*
X0088741Y0082090D02*
X0085181Y0082090D01*
X0084873Y0082389D02*
X0088451Y0082389D01*
X0088161Y0082687D02*
X0084566Y0082687D01*
X0084259Y0082986D02*
X0087872Y0082986D01*
X0089320Y0081493D02*
X0085795Y0081493D01*
X0086102Y0081195D02*
X0089610Y0081195D01*
X0089899Y0080896D02*
X0086409Y0080896D01*
X0086716Y0080598D02*
X0090189Y0080598D01*
X0090479Y0080299D02*
X0087023Y0080299D01*
X0087330Y0080001D02*
X0090768Y0080001D01*
X0091058Y0079702D02*
X0087638Y0079702D01*
X0087945Y0079403D02*
X0091347Y0079403D01*
X0091571Y0083583D02*
X0094642Y0083583D01*
X0094642Y0083881D02*
X0091571Y0083881D01*
X0091571Y0084180D02*
X0094642Y0084180D01*
X0094642Y0084478D02*
X0091571Y0084478D01*
X0091571Y0084777D02*
X0094642Y0084777D01*
X0094642Y0085075D02*
X0091571Y0085075D01*
X0091571Y0085374D02*
X0094642Y0085374D01*
X0094642Y0085672D02*
X0091571Y0085672D01*
X0091571Y0085971D02*
X0094166Y0085971D01*
X0093625Y0086269D02*
X0091571Y0086269D01*
X0091571Y0086568D02*
X0093083Y0086568D01*
X0092542Y0086866D02*
X0091571Y0086866D01*
X0091571Y0087165D02*
X0092000Y0087165D01*
X0088303Y0087165D02*
X0086847Y0087165D01*
X0086846Y0087165D02*
X0086413Y0087638D01*
X0085941Y0088150D01*
X0085469Y0088701D01*
X0084996Y0089213D01*
X0084602Y0089646D01*
X0084209Y0090000D01*
X0083776Y0090276D01*
X0083382Y0090472D01*
X0082909Y0090591D01*
X0081413Y0090591D01*
X0080469Y0090709D01*
X0079602Y0090984D01*
X0078815Y0091299D01*
X0078067Y0091772D01*
X0077398Y0092323D01*
X0076807Y0092953D01*
X0076256Y0093661D01*
X0075469Y0095079D01*
X0075075Y0096535D01*
X0074996Y0097913D01*
X0075193Y0099173D01*
X0075587Y0100315D01*
X0076138Y0101220D01*
X0076768Y0101890D01*
X0077437Y0102283D01*
X0077437Y0102205D01*
X0077398Y0102087D01*
X0077398Y0101654D01*
X0077476Y0101417D01*
X0077594Y0101181D01*
X0077791Y0101024D01*
X0078067Y0100906D01*
X0078303Y0100906D01*
X0078579Y0100945D01*
X0078894Y0101063D01*
X0079209Y0101220D01*
X0079484Y0101378D01*
X0079760Y0101575D01*
X0079996Y0101811D01*
X0080232Y0102047D01*
X0080429Y0102323D01*
X0080587Y0102598D01*
X0080665Y0102835D01*
X0080665Y0103307D01*
X0080587Y0103543D01*
X0080469Y0103740D01*
X0080272Y0103976D01*
X0079996Y0104213D01*
X0079681Y0104370D01*
X0079327Y0104488D01*
X0079012Y0104528D01*
X0078736Y0104528D01*
X0078500Y0104488D01*
X0078343Y0104449D01*
X0078303Y0104449D01*
X0078382Y0104528D01*
X0078697Y0104764D01*
X0079169Y0105000D01*
X0079760Y0105276D01*
X0080469Y0105433D01*
X0081256Y0105472D01*
X0082122Y0105276D01*
X0083028Y0104843D01*
X0083697Y0104252D01*
X0084130Y0103622D01*
X0084327Y0102992D01*
X0084327Y0102323D01*
X0084169Y0101614D01*
X0083776Y0100945D01*
X0083264Y0100236D01*
X0082594Y0099567D01*
X0082083Y0098976D01*
X0081846Y0098386D01*
X0081807Y0097835D01*
X0082004Y0097362D01*
X0082319Y0096929D01*
X0082791Y0096654D01*
X0083382Y0096496D01*
X0084012Y0096457D01*
X0084445Y0096575D01*
X0084799Y0096732D01*
X0085075Y0096929D01*
X0085272Y0097165D01*
X0085429Y0097441D01*
X0085508Y0097677D01*
X0085508Y0097953D01*
X0085429Y0098189D01*
X0085311Y0098386D01*
X0085154Y0098543D01*
X0084957Y0098661D01*
X0084760Y0098780D01*
X0084602Y0098898D01*
X0084445Y0098937D01*
X0084327Y0099016D01*
X0084287Y0099016D01*
X0084366Y0099016D01*
X0084484Y0099055D01*
X0084681Y0099134D01*
X0084957Y0099173D01*
X0085626Y0099173D01*
X0086059Y0099094D01*
X0086453Y0098976D01*
X0086846Y0098819D01*
X0087201Y0098583D01*
X0087555Y0098307D01*
X0087831Y0097913D01*
X0088028Y0097480D01*
X0088224Y0096929D01*
X0088303Y0096299D01*
X0088303Y0085433D01*
X0088264Y0085512D01*
X0088146Y0085669D01*
X0087909Y0085945D01*
X0087634Y0086299D01*
X0087280Y0086693D01*
X0086846Y0087165D01*
X0086573Y0087463D02*
X0088303Y0087463D01*
X0088303Y0087762D02*
X0086299Y0087762D01*
X0086023Y0088060D02*
X0088303Y0088060D01*
X0088303Y0088359D02*
X0085762Y0088359D01*
X0085506Y0088657D02*
X0088303Y0088657D01*
X0088303Y0088956D02*
X0085233Y0088956D01*
X0084958Y0089254D02*
X0088303Y0089254D01*
X0088303Y0089553D02*
X0084687Y0089553D01*
X0084374Y0089851D02*
X0088303Y0089851D01*
X0088303Y0090150D02*
X0083973Y0090150D01*
X0083430Y0090448D02*
X0088303Y0090448D01*
X0088303Y0090747D02*
X0080348Y0090747D01*
X0079449Y0091045D02*
X0088303Y0091045D01*
X0088303Y0091344D02*
X0078744Y0091344D01*
X0078271Y0091642D02*
X0088303Y0091642D01*
X0088303Y0091941D02*
X0077861Y0091941D01*
X0077499Y0092239D02*
X0088303Y0092239D01*
X0088303Y0092538D02*
X0077196Y0092538D01*
X0076916Y0092837D02*
X0088303Y0092837D01*
X0088303Y0093135D02*
X0076665Y0093135D01*
X0076433Y0093434D02*
X0088303Y0093434D01*
X0088303Y0093732D02*
X0076217Y0093732D01*
X0076051Y0094031D02*
X0088303Y0094031D01*
X0088303Y0094329D02*
X0075885Y0094329D01*
X0075719Y0094628D02*
X0088303Y0094628D01*
X0088303Y0094926D02*
X0075553Y0094926D01*
X0075429Y0095225D02*
X0088303Y0095225D01*
X0088303Y0095523D02*
X0075348Y0095523D01*
X0075268Y0095822D02*
X0088303Y0095822D01*
X0088303Y0096120D02*
X0075187Y0096120D01*
X0075106Y0096419D02*
X0088288Y0096419D01*
X0088251Y0096717D02*
X0084765Y0096717D01*
X0085147Y0097016D02*
X0088194Y0097016D01*
X0088087Y0097314D02*
X0085357Y0097314D01*
X0085486Y0097613D02*
X0087967Y0097613D01*
X0087832Y0097911D02*
X0085508Y0097911D01*
X0085417Y0098210D02*
X0087623Y0098210D01*
X0087297Y0098508D02*
X0085189Y0098508D01*
X0084724Y0098807D02*
X0086865Y0098807D01*
X0086000Y0099105D02*
X0084610Y0099105D01*
X0083309Y0100299D02*
X0075581Y0100299D01*
X0075478Y0100001D02*
X0083028Y0100001D01*
X0082730Y0099702D02*
X0075375Y0099702D01*
X0075272Y0099404D02*
X0082453Y0099404D01*
X0082194Y0099105D02*
X0075182Y0099105D01*
X0075136Y0098807D02*
X0082015Y0098807D01*
X0081895Y0098508D02*
X0075089Y0098508D01*
X0075042Y0098210D02*
X0081834Y0098210D01*
X0081813Y0097911D02*
X0074996Y0097911D01*
X0075013Y0097613D02*
X0081900Y0097613D01*
X0082039Y0097314D02*
X0075030Y0097314D01*
X0075047Y0097016D02*
X0082256Y0097016D01*
X0082682Y0096717D02*
X0075064Y0096717D01*
X0075759Y0100598D02*
X0083525Y0100598D01*
X0083741Y0100896D02*
X0075940Y0100896D01*
X0076122Y0101195D02*
X0077588Y0101195D01*
X0077451Y0101493D02*
X0076395Y0101493D01*
X0076676Y0101792D02*
X0077398Y0101792D01*
X0077399Y0102090D02*
X0077109Y0102090D01*
X0079157Y0101195D02*
X0083923Y0101195D01*
X0084098Y0101493D02*
X0079646Y0101493D01*
X0079977Y0101792D02*
X0084209Y0101792D01*
X0084275Y0102090D02*
X0080263Y0102090D01*
X0080467Y0102389D02*
X0084327Y0102389D01*
X0084327Y0102687D02*
X0080616Y0102687D01*
X0080665Y0102986D02*
X0084327Y0102986D01*
X0084235Y0103284D02*
X0080665Y0103284D01*
X0080563Y0103583D02*
X0084142Y0103583D01*
X0083952Y0103881D02*
X0080351Y0103881D01*
X0080034Y0104180D02*
X0083746Y0104180D01*
X0083440Y0104478D02*
X0079356Y0104478D01*
X0079331Y0105075D02*
X0082540Y0105075D01*
X0083102Y0104777D02*
X0078723Y0104777D01*
X0078461Y0104478D02*
X0078333Y0104478D01*
X0080203Y0105374D02*
X0081689Y0105374D01*
X0079682Y0087165D02*
X0076413Y0087165D01*
X0076413Y0086866D02*
X0080279Y0086866D01*
X0080707Y0086568D02*
X0076413Y0086568D01*
X0076413Y0086269D02*
X0081006Y0086269D01*
X0081236Y0085971D02*
X0076413Y0085971D01*
X0076413Y0085672D02*
X0081392Y0085672D01*
X0081537Y0085374D02*
X0076413Y0085374D01*
X0076413Y0085075D02*
X0076557Y0085075D01*
X0077852Y0085075D02*
X0081625Y0085075D01*
X0081713Y0084777D02*
X0078480Y0084777D01*
X0078635Y0084478D02*
X0081742Y0084478D01*
X0081759Y0084180D02*
X0078690Y0084180D01*
X0078697Y0083881D02*
X0081768Y0083881D01*
X0081768Y0083583D02*
X0078697Y0083583D01*
X0078697Y0083284D02*
X0081768Y0083284D01*
X0082877Y0082986D02*
X0076610Y0082986D01*
X0075705Y0082986D02*
X0072673Y0082986D01*
X0072673Y0083150D02*
X0072673Y0076890D01*
X0072634Y0076220D01*
X0072555Y0075669D01*
X0072398Y0075197D01*
X0072201Y0074803D01*
X0071965Y0074528D01*
X0071610Y0074291D01*
X0071177Y0074173D01*
X0070705Y0074134D01*
X0070114Y0074173D01*
X0069642Y0074331D01*
X0069209Y0074567D01*
X0068894Y0074882D01*
X0068657Y0075315D01*
X0068461Y0075866D01*
X0068343Y0076535D01*
X0068343Y0083150D01*
X0065272Y0083150D01*
X0065272Y0073425D01*
X0065311Y0072047D01*
X0068224Y0072047D01*
X0068224Y0073583D01*
X0068539Y0073150D01*
X0068933Y0072756D01*
X0069327Y0072441D01*
X0069760Y0072165D01*
X0070193Y0071969D01*
X0070665Y0071850D01*
X0071177Y0071772D01*
X0071650Y0071732D01*
X0072752Y0071811D01*
X0073657Y0072047D01*
X0074366Y0072441D01*
X0074917Y0072992D01*
X0075272Y0073661D01*
X0075547Y0074449D01*
X0075665Y0075315D01*
X0075705Y0076299D01*
X0075705Y0083150D01*
X0072673Y0083150D01*
X0072673Y0082687D02*
X0075705Y0082687D01*
X0075705Y0082389D02*
X0072673Y0082389D01*
X0072673Y0082090D02*
X0075705Y0082090D01*
X0075705Y0081792D02*
X0072673Y0081792D01*
X0072673Y0081493D02*
X0075705Y0081493D01*
X0075705Y0081195D02*
X0072673Y0081195D01*
X0072673Y0080896D02*
X0075705Y0080896D01*
X0075705Y0080598D02*
X0072673Y0080598D01*
X0072673Y0080299D02*
X0075705Y0080299D01*
X0075705Y0080001D02*
X0072673Y0080001D01*
X0072673Y0079702D02*
X0075705Y0079702D01*
X0075705Y0079403D02*
X0072673Y0079403D01*
X0072673Y0079105D02*
X0075705Y0079105D01*
X0075705Y0078806D02*
X0072673Y0078806D01*
X0072673Y0078508D02*
X0075705Y0078508D01*
X0075705Y0078209D02*
X0072673Y0078209D01*
X0072673Y0077911D02*
X0075705Y0077911D01*
X0075705Y0077612D02*
X0072673Y0077612D01*
X0072673Y0077314D02*
X0075705Y0077314D01*
X0075705Y0077015D02*
X0072673Y0077015D01*
X0072663Y0076717D02*
X0075705Y0076717D01*
X0075705Y0076418D02*
X0072646Y0076418D01*
X0072619Y0076120D02*
X0075698Y0076120D01*
X0075686Y0075821D02*
X0072577Y0075821D01*
X0072506Y0075523D02*
X0075674Y0075523D01*
X0075653Y0075224D02*
X0072407Y0075224D01*
X0072262Y0074926D02*
X0075612Y0074926D01*
X0075572Y0074627D02*
X0072050Y0074627D01*
X0071666Y0074329D02*
X0075505Y0074329D01*
X0075401Y0074030D02*
X0065272Y0074030D01*
X0065272Y0073732D02*
X0075296Y0073732D01*
X0075151Y0073433D02*
X0068333Y0073433D01*
X0068224Y0073433D02*
X0065272Y0073433D01*
X0065280Y0073135D02*
X0068224Y0073135D01*
X0068224Y0072836D02*
X0065288Y0072836D01*
X0065297Y0072538D02*
X0068224Y0072538D01*
X0068224Y0072239D02*
X0065306Y0072239D01*
X0063657Y0072239D02*
X0060587Y0072239D01*
X0060587Y0072047D02*
X0063657Y0072047D01*
X0063657Y0081772D01*
X0063618Y0083150D01*
X0060705Y0083150D01*
X0060705Y0081614D01*
X0060665Y0081614D01*
X0060350Y0082047D01*
X0059996Y0082441D01*
X0059602Y0082756D01*
X0059169Y0083031D01*
X0058697Y0083228D01*
X0058224Y0083346D01*
X0057752Y0083425D01*
X0057280Y0083465D01*
X0056177Y0083386D01*
X0055272Y0083150D01*
X0054563Y0082756D01*
X0054012Y0082205D01*
X0053618Y0081535D01*
X0053382Y0080748D01*
X0053224Y0079882D01*
X0053185Y0078898D01*
X0053185Y0072047D01*
X0056256Y0072047D01*
X0056256Y0078307D01*
X0056295Y0078976D01*
X0056374Y0079528D01*
X0056492Y0080000D01*
X0056689Y0080394D01*
X0056965Y0080669D01*
X0057319Y0080866D01*
X0057713Y0081024D01*
X0058224Y0081063D01*
X0058776Y0081024D01*
X0059287Y0080866D01*
X0059681Y0080630D01*
X0060035Y0080315D01*
X0060272Y0079882D01*
X0060429Y0079331D01*
X0060547Y0078661D01*
X0060587Y0077874D01*
X0060587Y0072047D01*
X0060587Y0072538D02*
X0063657Y0072538D01*
X0063657Y0072836D02*
X0060587Y0072836D01*
X0060587Y0073135D02*
X0063657Y0073135D01*
X0063657Y0073433D02*
X0060587Y0073433D01*
X0060587Y0073732D02*
X0063657Y0073732D01*
X0063657Y0074030D02*
X0060587Y0074030D01*
X0060587Y0074329D02*
X0063657Y0074329D01*
X0063657Y0074627D02*
X0060587Y0074627D01*
X0060587Y0074926D02*
X0063657Y0074926D01*
X0063657Y0075224D02*
X0060587Y0075224D01*
X0060587Y0075523D02*
X0063657Y0075523D01*
X0063657Y0075821D02*
X0060587Y0075821D01*
X0060587Y0076120D02*
X0063657Y0076120D01*
X0063657Y0076418D02*
X0060587Y0076418D01*
X0060587Y0076717D02*
X0063657Y0076717D01*
X0063657Y0077015D02*
X0060587Y0077015D01*
X0060587Y0077314D02*
X0063657Y0077314D01*
X0063657Y0077612D02*
X0060587Y0077612D01*
X0060585Y0077911D02*
X0063657Y0077911D01*
X0063657Y0078209D02*
X0060570Y0078209D01*
X0060555Y0078508D02*
X0063657Y0078508D01*
X0063657Y0078806D02*
X0060522Y0078806D01*
X0060469Y0079105D02*
X0063657Y0079105D01*
X0063657Y0079403D02*
X0060408Y0079403D01*
X0060323Y0079702D02*
X0063657Y0079702D01*
X0063657Y0080001D02*
X0060207Y0080001D01*
X0060044Y0080299D02*
X0063657Y0080299D01*
X0063657Y0080598D02*
X0059718Y0080598D01*
X0059190Y0080896D02*
X0063657Y0080896D01*
X0063657Y0081195D02*
X0053516Y0081195D01*
X0053605Y0081493D02*
X0063657Y0081493D01*
X0063657Y0081792D02*
X0060705Y0081792D01*
X0060536Y0081792D02*
X0053769Y0081792D01*
X0053944Y0082090D02*
X0060312Y0082090D01*
X0060705Y0082090D02*
X0063648Y0082090D01*
X0063640Y0082389D02*
X0060705Y0082389D01*
X0060705Y0082687D02*
X0063631Y0082687D01*
X0063623Y0082986D02*
X0060705Y0082986D01*
X0060043Y0082389D02*
X0054196Y0082389D01*
X0054494Y0082687D02*
X0059688Y0082687D01*
X0059241Y0082986D02*
X0054977Y0082986D01*
X0055787Y0083284D02*
X0058474Y0083284D01*
X0057394Y0080896D02*
X0053426Y0080896D01*
X0053355Y0080598D02*
X0056893Y0080598D01*
X0056642Y0080299D02*
X0053300Y0080299D01*
X0053246Y0080001D02*
X0056492Y0080001D01*
X0056418Y0079702D02*
X0053217Y0079702D01*
X0053205Y0079403D02*
X0056356Y0079403D01*
X0056314Y0079105D02*
X0053193Y0079105D01*
X0053185Y0078806D02*
X0056285Y0078806D01*
X0056268Y0078508D02*
X0053185Y0078508D01*
X0053185Y0078209D02*
X0056256Y0078209D01*
X0056256Y0077911D02*
X0053185Y0077911D01*
X0053185Y0077612D02*
X0056256Y0077612D01*
X0056256Y0077314D02*
X0053185Y0077314D01*
X0053185Y0077015D02*
X0056256Y0077015D01*
X0056256Y0076717D02*
X0053185Y0076717D01*
X0053185Y0076418D02*
X0056256Y0076418D01*
X0056256Y0076120D02*
X0053185Y0076120D01*
X0053185Y0075821D02*
X0056256Y0075821D01*
X0056256Y0075523D02*
X0053185Y0075523D01*
X0053185Y0075224D02*
X0056256Y0075224D01*
X0056256Y0074926D02*
X0053185Y0074926D01*
X0053185Y0074627D02*
X0056256Y0074627D01*
X0056256Y0074329D02*
X0053185Y0074329D01*
X0053185Y0074030D02*
X0056256Y0074030D01*
X0056256Y0073732D02*
X0053185Y0073732D01*
X0053185Y0073433D02*
X0056256Y0073433D01*
X0056256Y0073135D02*
X0053185Y0073135D01*
X0053185Y0072836D02*
X0056256Y0072836D01*
X0056256Y0072538D02*
X0053185Y0072538D01*
X0053185Y0072239D02*
X0056256Y0072239D01*
X0065272Y0074329D02*
X0069647Y0074329D01*
X0069148Y0074627D02*
X0065272Y0074627D01*
X0065272Y0074926D02*
X0068870Y0074926D01*
X0068707Y0075224D02*
X0065272Y0075224D01*
X0065272Y0075523D02*
X0068583Y0075523D01*
X0068477Y0075821D02*
X0065272Y0075821D01*
X0065272Y0076120D02*
X0068416Y0076120D01*
X0068363Y0076418D02*
X0065272Y0076418D01*
X0065272Y0076717D02*
X0068343Y0076717D01*
X0068343Y0077015D02*
X0065272Y0077015D01*
X0065272Y0077314D02*
X0068343Y0077314D01*
X0068343Y0077612D02*
X0065272Y0077612D01*
X0065272Y0077911D02*
X0068343Y0077911D01*
X0068343Y0078209D02*
X0065272Y0078209D01*
X0065272Y0078508D02*
X0068343Y0078508D01*
X0068343Y0078806D02*
X0065272Y0078806D01*
X0065272Y0079105D02*
X0068343Y0079105D01*
X0068343Y0079403D02*
X0065272Y0079403D01*
X0065272Y0079702D02*
X0068343Y0079702D01*
X0068343Y0080001D02*
X0065272Y0080001D01*
X0065272Y0080299D02*
X0068343Y0080299D01*
X0068343Y0080598D02*
X0065272Y0080598D01*
X0065272Y0080896D02*
X0068343Y0080896D01*
X0068343Y0081195D02*
X0065272Y0081195D01*
X0065272Y0081493D02*
X0068343Y0081493D01*
X0068343Y0081792D02*
X0065272Y0081792D01*
X0065272Y0082090D02*
X0068343Y0082090D01*
X0068343Y0082389D02*
X0065272Y0082389D01*
X0065272Y0082687D02*
X0068343Y0082687D01*
X0068343Y0082986D02*
X0065272Y0082986D01*
X0068554Y0073135D02*
X0074993Y0073135D01*
X0074761Y0072836D02*
X0068853Y0072836D01*
X0069206Y0072538D02*
X0074463Y0072538D01*
X0074003Y0072239D02*
X0069644Y0072239D01*
X0070304Y0071941D02*
X0073249Y0071941D01*
X0088143Y0085672D02*
X0088303Y0085672D01*
X0088303Y0085971D02*
X0087889Y0085971D01*
X0087657Y0086269D02*
X0088303Y0086269D01*
X0088303Y0086568D02*
X0087392Y0086568D01*
X0087121Y0086866D02*
X0088303Y0086866D01*
D11*
X0089098Y0139055D03*
X0091933Y0139685D03*
X0104846Y0141575D03*
D12*
X0104768Y0141417D03*
X0104768Y0137953D03*
X0101146Y0140157D03*
X0094374Y0140000D03*
X0094531Y0138583D03*
X0094374Y0138425D03*
X0094126Y0180110D03*
X0097433Y0181370D03*
X0097433Y0182157D03*
D13*
X0097130Y0141417D03*
X0098862Y0141417D03*
X0090043Y0140472D03*
X0088154Y0140472D03*
D14*
X0094453Y0139843D03*
X0101224Y0140000D03*
X0101224Y0138425D03*
X0101224Y0138268D03*
X0104689Y0138110D03*
X0104689Y0141260D03*
X0100189Y0180583D03*
X0097354Y0181528D03*
X0097354Y0181685D03*
X0097354Y0181843D03*
X0097354Y0182000D03*
X0097039Y0183575D03*
X0094047Y0183260D03*
X0094047Y0180268D03*
D15*
X0094835Y0180898D03*
X0094835Y0181055D03*
X0094835Y0181213D03*
X0094835Y0181370D03*
X0094835Y0181528D03*
X0094835Y0181685D03*
X0094835Y0181843D03*
X0094835Y0182000D03*
X0094835Y0182157D03*
X0094835Y0182315D03*
X0094835Y0182472D03*
X0092630Y0182157D03*
X0092630Y0181213D03*
X0100976Y0181213D03*
X0100976Y0181370D03*
X0100976Y0181528D03*
X0100976Y0181685D03*
X0100976Y0181843D03*
X0100976Y0182000D03*
X0100976Y0182157D03*
X0100976Y0182315D03*
X0100976Y0182472D03*
X0100976Y0182630D03*
X0100976Y0182787D03*
X0100976Y0182945D03*
X0100976Y0183102D03*
X0100976Y0183260D03*
X0100976Y0183417D03*
X0100976Y0181055D03*
X0100976Y0180898D03*
X0100976Y0180740D03*
X0098862Y0141260D03*
X0098862Y0141102D03*
X0098862Y0140945D03*
X0098862Y0140787D03*
X0098862Y0140630D03*
X0098862Y0139528D03*
X0098862Y0139370D03*
X0098862Y0139213D03*
X0098862Y0139055D03*
X0098862Y0138898D03*
X0098390Y0137953D03*
X0097130Y0138898D03*
X0097130Y0139055D03*
X0097130Y0139213D03*
X0097130Y0139370D03*
X0097130Y0139528D03*
X0097130Y0140630D03*
X0097130Y0140787D03*
X0097130Y0140945D03*
X0097130Y0141102D03*
X0097130Y0141260D03*
X0095240Y0139528D03*
X0093508Y0139528D03*
X0092406Y0138110D03*
X0091303Y0140472D03*
X0090043Y0140000D03*
X0088311Y0139843D03*
X0088154Y0140157D03*
X0088154Y0140315D03*
X0089098Y0138110D03*
X0089413Y0137323D03*
X0089571Y0137008D03*
X0096657Y0137953D03*
X0101539Y0137953D03*
X0102327Y0139055D03*
X0102327Y0139213D03*
X0102327Y0139370D03*
X0103429Y0139213D03*
X0103429Y0139055D03*
X0103587Y0140315D03*
X0103587Y0140472D03*
X0105476Y0140472D03*
X0105476Y0140315D03*
X0105476Y0140157D03*
X0105476Y0140000D03*
X0105476Y0139843D03*
X0105476Y0139685D03*
X0105476Y0139528D03*
X0105476Y0139370D03*
X0105476Y0139213D03*
X0105476Y0139055D03*
X0105476Y0138898D03*
D16*
X0104610Y0138268D03*
X0104610Y0141102D03*
X0101303Y0139843D03*
X0101303Y0139685D03*
X0101303Y0138740D03*
X0101303Y0138583D03*
X0094531Y0139055D03*
X0094531Y0139213D03*
X0094374Y0139370D03*
X0100110Y0179953D03*
X0100110Y0180110D03*
X0100110Y0180268D03*
X0100110Y0180425D03*
X0097276Y0182630D03*
X0093969Y0183102D03*
X0093969Y0180425D03*
D17*
X0093890Y0180583D03*
X0093890Y0182945D03*
X0097039Y0183260D03*
X0097039Y0183417D03*
X0097197Y0180740D03*
X0097039Y0180110D03*
X0097039Y0179953D03*
X0104531Y0140945D03*
X0104531Y0140787D03*
X0104531Y0140630D03*
X0104531Y0138583D03*
X0104531Y0138425D03*
D18*
X0094295Y0140630D03*
D19*
X0092327Y0140472D03*
X0090122Y0140315D03*
X0092327Y0137953D03*
X0094217Y0137795D03*
X0100516Y0137953D03*
X0100516Y0140472D03*
X0101618Y0140472D03*
X0089492Y0136850D03*
D20*
X0097917Y0139685D03*
X0097917Y0139843D03*
X0097917Y0140315D03*
X0097917Y0140472D03*
D21*
X0098626Y0138583D03*
X0098469Y0138268D03*
X0096736Y0138268D03*
X0094374Y0140472D03*
X0089020Y0138583D03*
X0103823Y0140157D03*
X0103980Y0139843D03*
X0092866Y0180898D03*
D22*
X0094283Y0179953D03*
X0091854Y0140315D03*
X0091854Y0139843D03*
X0094374Y0140157D03*
X0094217Y0138110D03*
X0101146Y0138110D03*
X0101146Y0140315D03*
D23*
X0094374Y0140315D03*
X0094217Y0137953D03*
X0089020Y0138898D03*
D24*
X0097839Y0140000D03*
X0097839Y0140157D03*
D25*
X0091224Y0140157D03*
D26*
X0089098Y0138740D03*
X0096815Y0138583D03*
X0096815Y0138425D03*
X0098547Y0138425D03*
X0103902Y0139528D03*
X0103902Y0139685D03*
X0103902Y0140000D03*
X0094362Y0183575D03*
D27*
X0094205Y0183417D03*
X0091776Y0140000D03*
X0089098Y0139370D03*
X0089098Y0139213D03*
X0094295Y0138268D03*
X0094610Y0138898D03*
D28*
X0095161Y0138740D03*
X0093587Y0139685D03*
X0092327Y0139528D03*
X0092327Y0139370D03*
X0092327Y0139213D03*
X0092327Y0139055D03*
X0092327Y0138898D03*
X0092327Y0138740D03*
X0092327Y0138583D03*
X0092327Y0138425D03*
X0092327Y0138268D03*
X0089807Y0139528D03*
X0089807Y0139685D03*
X0089965Y0139843D03*
X0088390Y0139685D03*
X0088390Y0139528D03*
X0088232Y0140000D03*
X0089020Y0138268D03*
X0089177Y0137953D03*
X0089177Y0137795D03*
X0089335Y0137638D03*
X0089335Y0137480D03*
X0089492Y0137165D03*
X0100516Y0139055D03*
X0100516Y0139213D03*
X0100516Y0139370D03*
X0102248Y0139528D03*
X0102248Y0138898D03*
X0103508Y0138898D03*
X0103508Y0139370D03*
X0098063Y0180898D03*
X0098063Y0181055D03*
X0098063Y0181213D03*
X0098063Y0182315D03*
X0098063Y0182472D03*
X0092709Y0182315D03*
X0092551Y0182000D03*
X0092551Y0181843D03*
X0092551Y0181685D03*
X0092551Y0181528D03*
X0092551Y0181370D03*
X0092709Y0181055D03*
D29*
X0092787Y0182472D03*
X0095083Y0139685D03*
X0096972Y0138740D03*
X0096657Y0138110D03*
X0098390Y0138110D03*
X0098705Y0138740D03*
X0100594Y0138898D03*
X0100594Y0139528D03*
X0089098Y0138425D03*
D30*
X0104453Y0138740D03*
X0097118Y0180268D03*
X0097118Y0180425D03*
X0097118Y0180583D03*
X0097118Y0182787D03*
X0097118Y0182945D03*
X0097118Y0183102D03*
X0093811Y0182787D03*
X0093811Y0182630D03*
X0093811Y0180740D03*
D31*
X0116524Y0164697D03*
X0081469Y0155398D03*
X0093587Y0138740D03*
D32*
X0101055Y0183575D03*
D33*
X0083201Y0169256D03*
X0083201Y0168154D03*
X0080681Y0168154D03*
X0080681Y0159177D03*
X0083043Y0159177D03*
X0083201Y0159177D03*
X0083673Y0159177D03*
X0083831Y0159177D03*
X0084303Y0159177D03*
X0084461Y0159177D03*
X0080681Y0152720D03*
X0080681Y0150831D03*
X0116681Y0160445D03*
X0119201Y0160445D03*
X0119673Y0160445D03*
X0119043Y0157768D03*
X0120303Y0166429D03*
X0120461Y0166429D03*
X0119201Y0167531D03*
X0116681Y0168161D03*
X0116681Y0166429D03*
D34*
X0117154Y0162413D03*
X0118098Y0155012D03*
X0118886Y0154067D03*
X0084303Y0151382D03*
X0082256Y0157051D03*
X0081626Y0157681D03*
X0080681Y0157366D03*
X0080681Y0160988D03*
X0082256Y0160831D03*
X0081311Y0163508D03*
X0081154Y0163508D03*
D35*
X0082571Y0163350D03*
X0082728Y0163350D03*
X0082886Y0163350D03*
X0083043Y0163350D03*
X0082886Y0166028D03*
X0080996Y0166028D03*
X0082728Y0168705D03*
X0082886Y0168705D03*
X0081311Y0161146D03*
X0080996Y0160988D03*
X0080996Y0157366D03*
X0081154Y0157366D03*
X0081311Y0157366D03*
X0082886Y0154689D03*
X0084146Y0151382D03*
X0117154Y0164618D03*
X0117311Y0164618D03*
X0117469Y0164461D03*
X0118413Y0164461D03*
X0118571Y0164618D03*
X0118728Y0164618D03*
X0118728Y0162256D03*
X0118886Y0162256D03*
D36*
X0118256Y0163909D03*
X0117626Y0163909D03*
X0119201Y0164697D03*
X0119201Y0166429D03*
X0119358Y0166429D03*
X0119516Y0166429D03*
X0119673Y0166429D03*
X0119831Y0166429D03*
X0119988Y0166429D03*
X0120146Y0166429D03*
X0118098Y0166429D03*
X0117941Y0166429D03*
X0117783Y0166429D03*
X0117626Y0166429D03*
X0117469Y0166429D03*
X0117311Y0166429D03*
X0117154Y0166429D03*
X0116996Y0166429D03*
X0118256Y0168161D03*
X0118256Y0160445D03*
X0118413Y0160445D03*
X0118571Y0160445D03*
X0118728Y0160445D03*
X0118098Y0160445D03*
X0117941Y0160445D03*
X0117783Y0160445D03*
X0117626Y0160445D03*
X0117469Y0160445D03*
X0117311Y0160445D03*
X0117154Y0160445D03*
X0117154Y0158555D03*
X0117154Y0156980D03*
X0118571Y0157768D03*
X0118728Y0157768D03*
X0118886Y0157768D03*
X0118728Y0159185D03*
X0118728Y0156350D03*
X0117941Y0155248D03*
X0117469Y0155248D03*
X0117469Y0153673D03*
X0119043Y0153673D03*
X0119358Y0153673D03*
X0120303Y0154461D03*
X0084146Y0159177D03*
X0083988Y0159177D03*
X0082886Y0159177D03*
X0082728Y0159177D03*
X0082571Y0159177D03*
X0082413Y0159177D03*
X0082256Y0159177D03*
X0082098Y0159177D03*
X0081941Y0159177D03*
X0081783Y0159177D03*
X0081626Y0159177D03*
X0081469Y0159177D03*
X0081311Y0159177D03*
X0081154Y0159177D03*
X0080996Y0159177D03*
X0081469Y0157917D03*
X0081469Y0161697D03*
X0081626Y0165161D03*
X0082256Y0165161D03*
X0082256Y0166894D03*
X0081626Y0166894D03*
X0081626Y0168154D03*
X0081783Y0168154D03*
X0081941Y0168154D03*
X0082098Y0168154D03*
X0082256Y0168154D03*
X0081469Y0168154D03*
X0081311Y0168154D03*
X0081154Y0168154D03*
X0080996Y0168154D03*
X0082413Y0153980D03*
X0082256Y0153823D03*
X0081469Y0153823D03*
X0081154Y0152720D03*
X0080996Y0152720D03*
X0081469Y0152563D03*
X0082728Y0152720D03*
X0082886Y0152720D03*
X0083043Y0152720D03*
X0083201Y0152720D03*
D37*
X0084146Y0163193D03*
X0116681Y0158476D03*
X0116681Y0157059D03*
X0119201Y0156272D03*
X0119358Y0155169D03*
X0117783Y0153594D03*
X0119201Y0159264D03*
X0120461Y0160366D03*
X0120146Y0162098D03*
D38*
X0118413Y0158319D03*
X0117154Y0154382D03*
X0118728Y0167138D03*
X0118886Y0167138D03*
X0082571Y0166028D03*
X0081311Y0166028D03*
X0082571Y0154689D03*
X0082728Y0154689D03*
X0081783Y0154531D03*
X0083988Y0151539D03*
D39*
X0083201Y0150752D03*
X0083043Y0150752D03*
X0082886Y0150752D03*
X0082728Y0150752D03*
X0081469Y0150752D03*
X0081311Y0150752D03*
X0081154Y0150752D03*
X0080996Y0150752D03*
X0080839Y0150752D03*
X0081311Y0152642D03*
X0080839Y0152799D03*
X0080524Y0154846D03*
X0082256Y0155476D03*
X0082413Y0155476D03*
X0082413Y0156736D03*
X0080839Y0159256D03*
X0082413Y0160516D03*
X0082256Y0163193D03*
X0082098Y0163193D03*
X0081941Y0163193D03*
X0081783Y0163193D03*
X0081626Y0163193D03*
X0080681Y0163665D03*
X0081783Y0165083D03*
X0081941Y0165083D03*
X0082098Y0165083D03*
X0082098Y0166972D03*
X0081941Y0166972D03*
X0081783Y0166972D03*
X0080839Y0168232D03*
X0083358Y0163193D03*
X0083516Y0163193D03*
X0083673Y0163193D03*
X0083831Y0163193D03*
X0083988Y0163193D03*
X0116681Y0162571D03*
X0117626Y0162098D03*
X0117783Y0162098D03*
X0117941Y0162098D03*
X0118098Y0162098D03*
X0118256Y0162098D03*
X0119358Y0162098D03*
X0119516Y0162098D03*
X0119673Y0162098D03*
X0119831Y0162098D03*
X0119988Y0162098D03*
X0119988Y0160366D03*
X0119831Y0160366D03*
X0120146Y0160366D03*
X0120303Y0160366D03*
X0119043Y0160366D03*
X0118886Y0160366D03*
X0118886Y0159264D03*
X0119043Y0159264D03*
X0118571Y0159106D03*
X0116996Y0158476D03*
X0116839Y0158476D03*
X0116839Y0157059D03*
X0116996Y0157059D03*
X0118413Y0156429D03*
X0118571Y0156429D03*
X0118886Y0156272D03*
X0119043Y0156272D03*
X0117783Y0155327D03*
X0117626Y0155327D03*
X0117626Y0153594D03*
X0119201Y0153594D03*
X0116996Y0160366D03*
X0116839Y0160366D03*
X0117783Y0163831D03*
X0117941Y0163831D03*
X0118098Y0163831D03*
X0116839Y0166508D03*
X0116839Y0168240D03*
X0116996Y0168240D03*
X0117154Y0168240D03*
X0117311Y0168240D03*
X0117469Y0168240D03*
X0117626Y0168240D03*
X0117783Y0168240D03*
X0117941Y0168240D03*
X0118098Y0168240D03*
D40*
X0118413Y0167217D03*
X0118571Y0167217D03*
X0117311Y0154461D03*
X0083831Y0151618D03*
X0083673Y0151618D03*
X0082098Y0151618D03*
X0081941Y0151618D03*
X0081783Y0151618D03*
X0081626Y0151618D03*
X0081941Y0154610D03*
X0082098Y0154610D03*
X0082413Y0165949D03*
X0081469Y0165949D03*
D41*
X0082256Y0151697D03*
X0082413Y0151697D03*
X0082571Y0151697D03*
X0083358Y0151697D03*
X0083516Y0151697D03*
D42*
X0083358Y0154768D03*
X0081469Y0156657D03*
X0080524Y0157287D03*
X0081469Y0160437D03*
X0080524Y0161067D03*
X0116524Y0154461D03*
X0119201Y0157768D03*
X0118256Y0165169D03*
D43*
X0117626Y0165248D03*
X0083358Y0166028D03*
X0080524Y0166028D03*
X0083358Y0161146D03*
X0083358Y0157366D03*
D44*
X0083201Y0157445D03*
X0083201Y0154768D03*
X0083201Y0161067D03*
X0080996Y0163587D03*
X0116839Y0162492D03*
X0116996Y0162492D03*
X0117311Y0162335D03*
X0117469Y0156980D03*
X0116681Y0154461D03*
D45*
X0083043Y0154689D03*
X0082571Y0157209D03*
X0082886Y0157366D03*
X0083043Y0157366D03*
X0081941Y0157366D03*
X0081783Y0157524D03*
X0082098Y0160988D03*
X0081941Y0161146D03*
X0082571Y0160988D03*
X0083043Y0161146D03*
X0083201Y0163350D03*
X0082413Y0163350D03*
X0080839Y0166028D03*
D46*
X0080681Y0166028D03*
X0080839Y0163665D03*
X0081469Y0163350D03*
X0083201Y0166028D03*
X0116681Y0164776D03*
X0118256Y0166508D03*
X0117469Y0162256D03*
X0117469Y0158476D03*
X0117311Y0158476D03*
X0117311Y0157059D03*
D47*
X0120146Y0154461D03*
X0119043Y0164697D03*
X0116839Y0164697D03*
X0083043Y0165949D03*
X0081626Y0161382D03*
X0081783Y0161224D03*
X0082098Y0157287D03*
X0080681Y0154768D03*
D48*
X0080839Y0154768D03*
X0080839Y0157287D03*
X0082728Y0157287D03*
X0082728Y0161067D03*
X0082886Y0161067D03*
X0080839Y0161067D03*
X0082413Y0168626D03*
X0082571Y0168626D03*
X0083043Y0168783D03*
X0116996Y0164697D03*
X0118886Y0164697D03*
X0119043Y0162177D03*
X0119201Y0162177D03*
X0118571Y0162177D03*
X0118413Y0162177D03*
X0118256Y0154776D03*
X0118413Y0154618D03*
X0118571Y0154461D03*
X0118728Y0154303D03*
X0119988Y0154461D03*
X0116839Y0154461D03*
D49*
X0116996Y0154461D03*
X0119516Y0154303D03*
X0119673Y0154461D03*
X0119831Y0154461D03*
X0119043Y0167059D03*
X0082728Y0165949D03*
X0081154Y0165949D03*
X0081154Y0161067D03*
X0080996Y0154768D03*
X0081154Y0154610D03*
X0081311Y0154610D03*
X0081626Y0154453D03*
D50*
X0118256Y0157689D03*
D51*
X0118098Y0157768D03*
X0117941Y0157768D03*
D52*
X0117783Y0157768D03*
X0117626Y0157768D03*
D53*
X0108776Y0068307D03*
X0096374Y0068307D03*
X0088106Y0068307D03*
X0080665Y0068307D03*
X0062783Y0049807D03*
X0060028Y0049807D03*
X0052587Y0049807D03*
X0127823Y0049807D03*
D54*
X0127823Y0048980D03*
X0127823Y0047878D03*
X0121760Y0049807D03*
X0119280Y0045949D03*
X0116248Y0045949D03*
X0098886Y0045949D03*
X0096681Y0045949D03*
X0088138Y0045949D03*
X0087311Y0047878D03*
X0086760Y0048980D03*
X0084004Y0047878D03*
X0084004Y0045949D03*
X0077665Y0045949D03*
X0062783Y0045949D03*
X0062783Y0047878D03*
X0062783Y0048980D03*
X0060028Y0048980D03*
X0052587Y0048980D03*
X0052587Y0047878D03*
X0046524Y0047878D03*
X0046524Y0048980D03*
X0046524Y0045949D03*
X0080665Y0066378D03*
X0080665Y0067480D03*
X0085902Y0064449D03*
X0088106Y0064449D03*
X0088106Y0067480D03*
X0096374Y0067480D03*
X0096374Y0066378D03*
X0108776Y0066378D03*
X0108776Y0067480D03*
X0108776Y0064449D03*
D55*
X0086622Y0049807D03*
X0100402Y0047878D03*
X0104260Y0045949D03*
D56*
X0083039Y0049807D03*
X0080559Y0049807D03*
X0068157Y0049807D03*
X0074740Y0067480D03*
X0091000Y0068307D03*
D57*
X0088106Y0068012D03*
X0088106Y0067185D03*
X0088106Y0065807D03*
X0088106Y0065531D03*
X0088106Y0065256D03*
X0088106Y0064980D03*
X0088106Y0064705D03*
X0088106Y0064154D03*
X0088106Y0063878D03*
X0088106Y0063602D03*
X0088106Y0063327D03*
X0088106Y0063051D03*
X0088106Y0062776D03*
X0088106Y0062500D03*
X0088106Y0061949D03*
X0090311Y0061673D03*
X0093343Y0061949D03*
X0093343Y0062500D03*
X0093343Y0062776D03*
X0093343Y0063051D03*
X0093343Y0063327D03*
X0093343Y0063602D03*
X0093343Y0063878D03*
X0093343Y0064154D03*
X0096374Y0064154D03*
X0096374Y0063878D03*
X0096374Y0063602D03*
X0096374Y0063327D03*
X0096374Y0063051D03*
X0096374Y0062776D03*
X0096374Y0062500D03*
X0096374Y0061949D03*
X0100508Y0064705D03*
X0102988Y0064154D03*
X0102988Y0063878D03*
X0102988Y0063602D03*
X0106020Y0063602D03*
X0106020Y0063878D03*
X0106020Y0064154D03*
X0108776Y0064154D03*
X0108776Y0063878D03*
X0108776Y0063602D03*
X0108776Y0063327D03*
X0108776Y0064705D03*
X0108776Y0064980D03*
X0108776Y0065256D03*
X0108776Y0065531D03*
X0108776Y0065807D03*
X0108776Y0066083D03*
X0108776Y0066909D03*
X0108776Y0067185D03*
X0108776Y0068012D03*
X0114287Y0061949D03*
X0096374Y0066083D03*
X0096374Y0066909D03*
X0096374Y0067185D03*
X0096374Y0068012D03*
X0085902Y0064154D03*
X0085902Y0063602D03*
X0084799Y0066083D03*
X0080665Y0066083D03*
X0080665Y0066909D03*
X0080665Y0067185D03*
X0080665Y0068012D03*
X0080665Y0064154D03*
X0080665Y0063878D03*
X0080665Y0063602D03*
X0080665Y0063327D03*
X0080665Y0063051D03*
X0080665Y0062776D03*
X0080665Y0062500D03*
X0080665Y0061949D03*
X0082870Y0061673D03*
X0077634Y0061949D03*
X0077634Y0062500D03*
X0077634Y0062776D03*
X0077634Y0063051D03*
X0077634Y0063327D03*
X0077634Y0063602D03*
X0077634Y0063878D03*
X0077634Y0064154D03*
X0087035Y0048409D03*
X0087311Y0047583D03*
X0087587Y0047031D03*
X0087862Y0046480D03*
X0088413Y0045378D03*
X0088689Y0044827D03*
X0088965Y0044276D03*
X0089516Y0043173D03*
X0091445Y0043449D03*
X0091445Y0044000D03*
X0091445Y0044276D03*
X0091445Y0044551D03*
X0091445Y0044827D03*
X0091445Y0045102D03*
X0091445Y0045378D03*
X0091445Y0045654D03*
X0094201Y0043449D03*
X0096681Y0043449D03*
X0096681Y0044000D03*
X0096681Y0044276D03*
X0096681Y0044551D03*
X0096681Y0044827D03*
X0096681Y0045102D03*
X0096681Y0045378D03*
X0096681Y0045654D03*
X0098886Y0045654D03*
X0098886Y0045102D03*
X0098886Y0044827D03*
X0106602Y0045102D03*
X0106602Y0045654D03*
X0108807Y0044276D03*
X0108807Y0043449D03*
X0111012Y0043449D03*
X0111012Y0044000D03*
X0111012Y0044276D03*
X0111012Y0044551D03*
X0111012Y0044827D03*
X0111012Y0045102D03*
X0111012Y0045378D03*
X0111012Y0045654D03*
X0112114Y0047583D03*
X0114043Y0045654D03*
X0114043Y0045378D03*
X0114043Y0045102D03*
X0114043Y0044827D03*
X0114043Y0044551D03*
X0114043Y0044276D03*
X0114043Y0044000D03*
X0114043Y0043449D03*
X0116248Y0045102D03*
X0116248Y0045378D03*
X0116248Y0045654D03*
X0116248Y0046205D03*
X0116248Y0046480D03*
X0116248Y0046756D03*
X0116248Y0047031D03*
X0116248Y0047307D03*
X0119280Y0047307D03*
X0119280Y0047031D03*
X0119280Y0046756D03*
X0119280Y0046480D03*
X0119280Y0046205D03*
X0119280Y0045654D03*
X0119280Y0045378D03*
X0119280Y0045102D03*
X0118177Y0043173D03*
X0125618Y0047031D03*
X0127823Y0047031D03*
X0127823Y0046756D03*
X0127823Y0047307D03*
X0127823Y0047583D03*
X0127823Y0048409D03*
X0127823Y0048685D03*
X0127823Y0049512D03*
X0127823Y0044000D03*
X0127823Y0043449D03*
X0131681Y0043449D03*
X0135815Y0043173D03*
X0137193Y0045102D03*
X0137193Y0045378D03*
X0137193Y0045654D03*
X0139122Y0045654D03*
X0139122Y0045378D03*
X0139122Y0045102D03*
X0142154Y0045102D03*
X0142154Y0045378D03*
X0142154Y0045654D03*
X0142154Y0043173D03*
X0142154Y0042622D03*
X0142154Y0042071D03*
X0142154Y0041795D03*
X0146563Y0046205D03*
X0084004Y0045654D03*
X0084004Y0045378D03*
X0084004Y0045102D03*
X0084004Y0044827D03*
X0084004Y0044551D03*
X0084004Y0044276D03*
X0084004Y0044000D03*
X0084004Y0043449D03*
X0076563Y0043173D03*
X0076563Y0047583D03*
X0072429Y0046205D03*
X0068020Y0043449D03*
X0064988Y0043449D03*
X0064988Y0044000D03*
X0064988Y0044276D03*
X0064988Y0044551D03*
X0064988Y0044827D03*
X0064988Y0045102D03*
X0064988Y0045378D03*
X0064988Y0045654D03*
X0062783Y0045654D03*
X0062783Y0045378D03*
X0062783Y0045102D03*
X0062783Y0044827D03*
X0062783Y0046205D03*
X0062783Y0046480D03*
X0062783Y0046756D03*
X0062783Y0047031D03*
X0062783Y0047307D03*
X0062783Y0047583D03*
X0062783Y0048409D03*
X0062783Y0048685D03*
X0062783Y0049512D03*
X0060028Y0049512D03*
X0060028Y0048685D03*
X0060028Y0047307D03*
X0060028Y0047031D03*
X0057823Y0045654D03*
X0057823Y0045378D03*
X0057823Y0045102D03*
X0060028Y0043449D03*
X0054791Y0043173D03*
X0054791Y0045102D03*
X0054791Y0045378D03*
X0054791Y0045654D03*
X0052587Y0045654D03*
X0052587Y0045378D03*
X0052587Y0045102D03*
X0052587Y0044827D03*
X0052587Y0044551D03*
X0052587Y0044276D03*
X0052587Y0044000D03*
X0052587Y0043449D03*
X0049555Y0043449D03*
X0049555Y0044000D03*
X0049555Y0044276D03*
X0049555Y0044551D03*
X0049555Y0044827D03*
X0049555Y0045102D03*
X0049555Y0045378D03*
X0049555Y0045654D03*
X0046524Y0045654D03*
X0046524Y0045378D03*
X0046524Y0045102D03*
X0046524Y0044827D03*
X0045697Y0043173D03*
X0052587Y0047583D03*
X0052587Y0048409D03*
X0052587Y0048685D03*
X0052587Y0049512D03*
X0046524Y0048685D03*
X0046524Y0048409D03*
D58*
X0054929Y0044827D03*
X0054929Y0042622D03*
X0057685Y0044827D03*
X0059890Y0044827D03*
X0059890Y0045102D03*
X0059890Y0045378D03*
X0059890Y0045654D03*
X0059890Y0046205D03*
X0059890Y0046480D03*
X0059890Y0046756D03*
X0059890Y0044551D03*
X0059890Y0044276D03*
X0059890Y0044000D03*
X0062094Y0043173D03*
X0068157Y0044000D03*
X0068157Y0044276D03*
X0068157Y0044551D03*
X0068157Y0044827D03*
X0068157Y0045102D03*
X0068157Y0045378D03*
X0068157Y0045654D03*
X0068157Y0047583D03*
X0068157Y0048409D03*
X0068157Y0048685D03*
X0070362Y0044551D03*
X0074772Y0044827D03*
X0074772Y0045102D03*
X0074772Y0045378D03*
X0074772Y0045654D03*
X0077803Y0045654D03*
X0077803Y0045378D03*
X0077803Y0045102D03*
X0077803Y0044827D03*
X0080559Y0044827D03*
X0080559Y0045102D03*
X0080559Y0045378D03*
X0080559Y0045654D03*
X0080559Y0046205D03*
X0080559Y0046480D03*
X0080559Y0046756D03*
X0080559Y0047031D03*
X0080559Y0047307D03*
X0080559Y0047583D03*
X0080559Y0048409D03*
X0080559Y0048685D03*
X0083039Y0049512D03*
X0086898Y0048685D03*
X0087449Y0047307D03*
X0087724Y0046756D03*
X0088000Y0046205D03*
X0088276Y0045654D03*
X0088551Y0045102D03*
X0088827Y0044551D03*
X0089102Y0044000D03*
X0089378Y0043449D03*
X0094063Y0044000D03*
X0094063Y0044276D03*
X0094063Y0044551D03*
X0094063Y0044827D03*
X0094063Y0045102D03*
X0094063Y0045378D03*
X0094063Y0045654D03*
X0098748Y0045378D03*
X0102055Y0045378D03*
X0102055Y0045654D03*
X0102055Y0045102D03*
X0102055Y0044827D03*
X0105087Y0043173D03*
X0106465Y0044827D03*
X0106740Y0045378D03*
X0108669Y0044000D03*
X0105087Y0047583D03*
X0116386Y0044827D03*
X0119142Y0044827D03*
X0122724Y0044827D03*
X0122724Y0045102D03*
X0122724Y0045378D03*
X0122724Y0045654D03*
X0122724Y0044551D03*
X0122724Y0044276D03*
X0122724Y0044000D03*
X0121898Y0049512D03*
X0131819Y0045654D03*
X0131819Y0045378D03*
X0131819Y0045102D03*
X0131819Y0044827D03*
X0131819Y0044551D03*
X0131819Y0044276D03*
X0131819Y0044000D03*
X0134024Y0045102D03*
X0134024Y0045378D03*
X0134024Y0045654D03*
X0137055Y0044827D03*
X0139260Y0044827D03*
X0142016Y0044827D03*
X0144496Y0044551D03*
X0114425Y0062500D03*
X0114425Y0062776D03*
X0114425Y0063051D03*
X0114425Y0063327D03*
X0114425Y0063602D03*
X0114425Y0065807D03*
X0114425Y0066083D03*
X0108087Y0061673D03*
X0105882Y0063327D03*
X0103126Y0063327D03*
X0098441Y0063051D03*
X0091000Y0063327D03*
X0091000Y0063602D03*
X0091000Y0063878D03*
X0091000Y0064154D03*
X0091000Y0064705D03*
X0091000Y0064980D03*
X0091000Y0065256D03*
X0091000Y0065531D03*
X0091000Y0065807D03*
X0091000Y0066083D03*
X0091000Y0066909D03*
X0091000Y0067185D03*
X0086039Y0063878D03*
X0085764Y0063327D03*
X0083008Y0063602D03*
X0083008Y0063878D03*
X0083008Y0064154D03*
X0083283Y0061122D03*
X0074740Y0063327D03*
X0074740Y0063602D03*
X0074740Y0063878D03*
X0074740Y0064154D03*
X0073913Y0061673D03*
X0074740Y0066909D03*
X0074740Y0067185D03*
X0080008Y0043173D03*
D59*
X0083866Y0043173D03*
X0091583Y0043173D03*
X0094063Y0043173D03*
X0096819Y0043173D03*
X0094890Y0047583D03*
X0092409Y0047583D03*
X0086622Y0049512D03*
X0080559Y0049512D03*
X0068157Y0049512D03*
X0066228Y0047583D03*
X0059890Y0047583D03*
X0059890Y0048409D03*
X0056583Y0047583D03*
X0054654Y0047583D03*
X0050795Y0047583D03*
X0049417Y0043173D03*
X0052449Y0043173D03*
X0059890Y0043173D03*
X0065126Y0043173D03*
X0068157Y0043173D03*
X0074772Y0043173D03*
X0080803Y0061673D03*
X0087969Y0061673D03*
X0093205Y0061673D03*
X0096236Y0061673D03*
X0102850Y0061673D03*
X0104780Y0061673D03*
X0104780Y0066083D03*
X0102850Y0066083D03*
X0094583Y0066083D03*
X0091000Y0068012D03*
X0083008Y0066083D03*
X0078874Y0066083D03*
X0114425Y0061673D03*
X0129890Y0047583D03*
X0131819Y0047583D03*
X0134024Y0047583D03*
X0135953Y0047583D03*
X0140362Y0047583D03*
X0142291Y0041244D03*
X0134024Y0043173D03*
X0131819Y0043173D03*
X0127685Y0043173D03*
X0125205Y0043449D03*
X0122724Y0043449D03*
X0122724Y0043173D03*
X0110874Y0043173D03*
X0108669Y0043173D03*
X0108669Y0044551D03*
D60*
X0111012Y0043744D03*
X0114043Y0043744D03*
X0127823Y0043744D03*
X0127823Y0048154D03*
X0127823Y0049256D03*
X0142154Y0042917D03*
X0142154Y0042366D03*
X0142154Y0041539D03*
X0108776Y0066654D03*
X0108776Y0067756D03*
X0096374Y0067756D03*
X0096374Y0066654D03*
X0096374Y0062244D03*
X0093343Y0062244D03*
X0088106Y0062244D03*
X0080665Y0062244D03*
X0077634Y0062244D03*
X0080665Y0066654D03*
X0080665Y0067756D03*
X0088106Y0067756D03*
X0062783Y0049256D03*
X0062783Y0048154D03*
X0060028Y0049256D03*
X0060028Y0043744D03*
X0064988Y0043744D03*
X0054791Y0042917D03*
X0052587Y0043744D03*
X0049555Y0043744D03*
X0046524Y0048154D03*
X0052587Y0048154D03*
X0052587Y0049256D03*
X0084004Y0048154D03*
X0084004Y0043744D03*
X0089240Y0043744D03*
X0091445Y0043744D03*
X0096681Y0043744D03*
D61*
X0080008Y0043744D03*
X0062370Y0043744D03*
X0045835Y0043744D03*
X0090449Y0062244D03*
X0121898Y0049256D03*
D62*
X0122724Y0048154D03*
X0122724Y0043744D03*
X0125205Y0043744D03*
X0131819Y0043744D03*
X0108669Y0043744D03*
X0094063Y0043744D03*
X0087173Y0048154D03*
X0086622Y0049256D03*
X0080559Y0049256D03*
X0080559Y0048154D03*
X0068157Y0048154D03*
X0068157Y0049256D03*
X0068157Y0043744D03*
X0083008Y0061417D03*
X0091000Y0066654D03*
X0091000Y0067756D03*
X0074740Y0066654D03*
X0114425Y0062244D03*
D63*
X0108224Y0062244D03*
X0083177Y0049256D03*
D64*
X0099681Y0061417D03*
X0074878Y0067756D03*
X0046524Y0049256D03*
X0145461Y0042917D03*
D65*
X0122035Y0048980D03*
X0099957Y0064449D03*
X0071878Y0045949D03*
D66*
X0083315Y0048980D03*
X0145874Y0045949D03*
D67*
X0142016Y0045949D03*
X0139260Y0045949D03*
X0137055Y0045949D03*
X0131819Y0045949D03*
X0122724Y0045949D03*
X0122724Y0047878D03*
X0113906Y0045949D03*
X0111150Y0045949D03*
X0106465Y0045949D03*
X0102055Y0045949D03*
X0094063Y0045949D03*
X0091583Y0045949D03*
X0080559Y0045949D03*
X0080559Y0047878D03*
X0080559Y0048980D03*
X0074772Y0045949D03*
X0068157Y0047878D03*
X0068157Y0048980D03*
X0065126Y0045949D03*
X0059890Y0045949D03*
X0057685Y0045949D03*
X0054929Y0045949D03*
X0052449Y0045949D03*
X0049693Y0045949D03*
X0074740Y0064449D03*
X0074740Y0066378D03*
X0077772Y0064449D03*
X0080528Y0064449D03*
X0083008Y0064449D03*
X0091000Y0064449D03*
X0091000Y0066378D03*
X0091000Y0067480D03*
X0093480Y0064449D03*
X0096236Y0064449D03*
X0103126Y0064449D03*
X0105882Y0064449D03*
D68*
X0108362Y0062776D03*
X0108362Y0062500D03*
X0099543Y0066083D03*
X0090449Y0062500D03*
X0074465Y0063051D03*
X0074189Y0062776D03*
X0083315Y0048685D03*
X0080283Y0044276D03*
X0080008Y0044000D03*
X0080008Y0043449D03*
X0071465Y0047583D03*
X0062370Y0044276D03*
X0062370Y0044000D03*
X0056307Y0041244D03*
X0046110Y0044276D03*
X0045835Y0043449D03*
X0100402Y0043173D03*
X0100402Y0047583D03*
X0122173Y0048685D03*
X0145323Y0047583D03*
D69*
X0144909Y0044827D03*
X0145461Y0043173D03*
X0122311Y0048409D03*
X0099681Y0061673D03*
X0083453Y0048409D03*
X0071602Y0043173D03*
X0045972Y0044000D03*
X0074051Y0062500D03*
D70*
X0071327Y0047878D03*
X0099406Y0066378D03*
X0145461Y0047878D03*
X0144996Y0169921D03*
X0086374Y0199961D03*
X0095705Y0206654D03*
X0089878Y0212205D03*
X0086374Y0214528D03*
D71*
X0088106Y0066909D03*
X0088106Y0066083D03*
X0084799Y0061673D03*
X0085626Y0061122D03*
X0077634Y0061673D03*
X0074634Y0047583D03*
X0057272Y0042622D03*
X0096681Y0047583D03*
X0114043Y0047583D03*
X0116248Y0047583D03*
X0119280Y0047583D03*
X0116248Y0043173D03*
X0114043Y0043173D03*
X0140500Y0043173D03*
X0142154Y0047583D03*
D72*
X0141189Y0047307D03*
X0145323Y0047031D03*
X0145598Y0046480D03*
X0145598Y0043449D03*
X0141189Y0043449D03*
X0135126Y0043449D03*
X0135126Y0047307D03*
X0130992Y0046480D03*
X0130992Y0046205D03*
X0130717Y0047307D03*
X0126858Y0044827D03*
X0122449Y0046205D03*
X0122449Y0046480D03*
X0122449Y0047307D03*
X0122449Y0047583D03*
X0105087Y0047031D03*
X0100402Y0047031D03*
X0095717Y0047307D03*
X0071465Y0047031D03*
X0071465Y0046756D03*
X0071465Y0043449D03*
X0056307Y0041795D03*
X0055756Y0043449D03*
X0055756Y0047307D03*
X0046386Y0047307D03*
X0046386Y0047583D03*
X0046386Y0046480D03*
X0046386Y0046205D03*
X0074465Y0064705D03*
X0074465Y0064980D03*
X0074465Y0065807D03*
X0074465Y0066083D03*
X0099543Y0065531D03*
X0099543Y0065256D03*
X0113598Y0063878D03*
D73*
X0099681Y0064154D03*
X0099406Y0063878D03*
X0099681Y0064980D03*
X0099406Y0065807D03*
X0099681Y0061949D03*
X0083728Y0047583D03*
X0083728Y0046205D03*
X0071602Y0046480D03*
X0071602Y0045654D03*
X0071327Y0045378D03*
X0071327Y0047307D03*
X0126996Y0045654D03*
X0126996Y0045102D03*
X0145185Y0045102D03*
X0145461Y0045378D03*
X0145461Y0046756D03*
D74*
X0145323Y0047307D03*
X0145598Y0045654D03*
X0127134Y0045378D03*
X0105087Y0047307D03*
X0100402Y0047307D03*
X0100402Y0043449D03*
X0105087Y0043449D03*
X0071189Y0045102D03*
X0070913Y0044827D03*
X0098992Y0063327D03*
X0099268Y0063602D03*
D75*
X0056307Y0040969D03*
X0056583Y0043173D03*
X0072567Y0044551D03*
X0089378Y0042622D03*
X0104260Y0044827D03*
X0125205Y0043173D03*
X0125480Y0047307D03*
X0146701Y0044551D03*
X0100921Y0063051D03*
D76*
X0099681Y0062500D03*
X0099406Y0062776D03*
X0104091Y0061949D03*
X0104091Y0065807D03*
X0095272Y0065807D03*
X0083972Y0065807D03*
X0079563Y0065807D03*
X0074602Y0065531D03*
X0074602Y0065256D03*
X0083972Y0061949D03*
X0084524Y0060571D03*
X0084524Y0060295D03*
X0083728Y0047307D03*
X0083728Y0047031D03*
X0083728Y0046756D03*
X0083728Y0046480D03*
X0075736Y0047307D03*
X0071327Y0044276D03*
X0075736Y0043449D03*
X0056169Y0042071D03*
X0051484Y0047307D03*
X0046248Y0047031D03*
X0046248Y0046756D03*
X0105224Y0046756D03*
X0105500Y0046205D03*
X0105500Y0044551D03*
X0105224Y0044000D03*
X0112941Y0047307D03*
X0117350Y0043449D03*
X0126720Y0044551D03*
X0126720Y0046205D03*
X0130854Y0046756D03*
X0130854Y0047031D03*
X0141051Y0047031D03*
X0145461Y0044276D03*
X0145461Y0044000D03*
D77*
X0134161Y0044827D03*
X0125343Y0044000D03*
X0108224Y0061949D03*
X0108500Y0063051D03*
X0090862Y0063051D03*
X0090587Y0062776D03*
X0090311Y0061949D03*
X0084524Y0059744D03*
X0083146Y0063327D03*
X0074051Y0061949D03*
X0092272Y0047307D03*
X0080421Y0044551D03*
X0062508Y0044551D03*
X0062232Y0043449D03*
X0046248Y0044551D03*
D78*
X0051346Y0047031D03*
X0056031Y0047031D03*
X0056031Y0046756D03*
X0056031Y0044000D03*
X0067055Y0047307D03*
X0071465Y0044000D03*
X0075874Y0047031D03*
X0100402Y0046756D03*
X0100402Y0044000D03*
X0105362Y0044276D03*
X0105362Y0046480D03*
X0112803Y0047031D03*
X0122449Y0047031D03*
X0126583Y0046480D03*
X0126583Y0044276D03*
X0135126Y0047031D03*
X0140913Y0046756D03*
X0140913Y0044000D03*
X0113323Y0064154D03*
X0113323Y0065531D03*
X0104228Y0065531D03*
X0095134Y0065531D03*
X0084110Y0065531D03*
X0079425Y0065531D03*
D79*
X0094201Y0047031D03*
X0094201Y0046756D03*
X0094201Y0046480D03*
D80*
X0112665Y0046756D03*
X0117626Y0044276D03*
X0117626Y0044000D03*
X0135264Y0044000D03*
X0135264Y0046756D03*
X0140776Y0046480D03*
X0140776Y0046205D03*
X0140776Y0044551D03*
X0140776Y0044276D03*
X0113185Y0064705D03*
X0113185Y0064980D03*
X0113185Y0065256D03*
X0112634Y0068012D03*
X0104366Y0065256D03*
X0104366Y0064980D03*
X0104366Y0062776D03*
X0104366Y0062500D03*
X0094996Y0064980D03*
X0094996Y0065256D03*
X0084248Y0065256D03*
X0079287Y0065256D03*
X0079287Y0064980D03*
X0084248Y0062776D03*
X0084248Y0062500D03*
X0076012Y0046756D03*
X0076012Y0044000D03*
X0066917Y0046756D03*
X0066917Y0047031D03*
X0056169Y0046480D03*
X0056169Y0046205D03*
X0056169Y0044551D03*
X0056169Y0044276D03*
X0051209Y0046480D03*
X0051209Y0046756D03*
D81*
X0123689Y0046756D03*
D82*
X0117764Y0044551D03*
X0112528Y0046205D03*
X0112528Y0046480D03*
X0100402Y0046480D03*
X0100402Y0046205D03*
X0100402Y0044551D03*
X0100402Y0044276D03*
X0076150Y0044276D03*
X0076150Y0044551D03*
X0076150Y0046205D03*
X0076150Y0046480D03*
X0066780Y0046480D03*
X0066780Y0046205D03*
X0051071Y0046205D03*
X0079150Y0064705D03*
X0084386Y0064705D03*
X0084386Y0064980D03*
X0084386Y0063051D03*
X0094858Y0064705D03*
X0104504Y0064705D03*
X0104504Y0063051D03*
X0135402Y0046480D03*
X0135402Y0046205D03*
X0135402Y0044551D03*
X0135402Y0044276D03*
D83*
X0094063Y0046205D03*
D84*
X0068020Y0045949D03*
X0134161Y0045949D03*
D85*
X0126858Y0045949D03*
D86*
X0141051Y0043744D03*
X0145461Y0043744D03*
X0099681Y0062244D03*
X0071602Y0043744D03*
X0055894Y0043744D03*
D87*
X0135264Y0043744D03*
D88*
X0117488Y0043744D03*
X0104228Y0062244D03*
X0084386Y0060866D03*
X0084110Y0062244D03*
X0075874Y0043744D03*
X0056031Y0042366D03*
D89*
X0100402Y0043744D03*
X0105087Y0043744D03*
D90*
X0105087Y0042917D03*
X0057409Y0042917D03*
D91*
X0071465Y0042917D03*
X0100402Y0042917D03*
D92*
X0089378Y0042917D03*
D93*
X0056307Y0041539D03*
D94*
X0084524Y0059469D03*
X0142154Y0040969D03*
X0144996Y0169626D03*
X0146453Y0173130D03*
X0146453Y0173406D03*
X0091335Y0203445D03*
X0094248Y0205492D03*
X0087831Y0201122D03*
D95*
X0112634Y0067756D03*
D96*
X0112634Y0067480D03*
D97*
X0112772Y0067185D03*
X0112772Y0066909D03*
D98*
X0112772Y0066654D03*
D99*
X0113047Y0066378D03*
D100*
X0113185Y0064449D03*
D101*
X0074051Y0062244D03*
D102*
X0085626Y0061417D03*
D103*
X0084524Y0060039D03*
D104*
X0056925Y0155630D03*
X0053421Y0157953D03*
X0053421Y0165827D03*
X0055744Y0172244D03*
X0090469Y0216575D03*
D105*
X0093815Y0216280D03*
X0093815Y0216004D03*
D106*
X0090469Y0216280D03*
X0090469Y0215413D03*
X0051098Y0166988D03*
X0055744Y0164665D03*
X0051098Y0159114D03*
X0055744Y0156791D03*
D107*
X0056197Y0155335D03*
X0054150Y0157657D03*
X0051827Y0158839D03*
X0050961Y0160295D03*
X0052417Y0161161D03*
X0055606Y0163209D03*
X0054150Y0165531D03*
X0051827Y0166713D03*
X0050646Y0168169D03*
X0050055Y0167579D03*
X0051512Y0168760D03*
X0056197Y0171083D03*
X0055016Y0172539D03*
X0053559Y0173406D03*
X0085646Y0199665D03*
X0087102Y0200531D03*
X0094976Y0206083D03*
X0096157Y0208130D03*
X0093795Y0209587D03*
X0090331Y0211909D03*
X0087102Y0213957D03*
X0085646Y0214823D03*
X0090606Y0216004D03*
X0094110Y0215413D03*
D108*
X0093953Y0215118D03*
X0093953Y0215709D03*
X0056630Y0164370D03*
X0056039Y0163504D03*
X0056630Y0156496D03*
D109*
X0053874Y0154173D03*
X0052417Y0158543D03*
X0052969Y0161457D03*
X0052417Y0166417D03*
X0050055Y0167874D03*
X0052969Y0169331D03*
X0053874Y0169921D03*
X0090606Y0202874D03*
X0094110Y0209291D03*
X0090606Y0211614D03*
X0090606Y0215709D03*
D110*
X0088717Y0213957D03*
X0091039Y0212500D03*
X0091039Y0211319D03*
X0091906Y0213366D03*
X0096591Y0213366D03*
X0096591Y0212776D03*
X0096591Y0212500D03*
X0096591Y0211909D03*
X0096591Y0211319D03*
X0096591Y0211043D03*
X0096591Y0210453D03*
X0096591Y0209862D03*
X0096591Y0209587D03*
X0096591Y0208996D03*
X0096591Y0208406D03*
X0096591Y0206358D03*
X0096591Y0206083D03*
X0096591Y0205492D03*
X0096591Y0204902D03*
X0096591Y0204626D03*
X0096591Y0204035D03*
X0096591Y0203445D03*
X0096591Y0203169D03*
X0096591Y0202579D03*
X0096591Y0201988D03*
X0096591Y0201713D03*
X0096591Y0201122D03*
X0096591Y0200531D03*
X0096591Y0200256D03*
X0096591Y0199665D03*
X0088992Y0201988D03*
X0085213Y0201988D03*
X0085213Y0201713D03*
X0085213Y0201122D03*
X0085213Y0200531D03*
X0085213Y0200256D03*
X0085213Y0199075D03*
X0085213Y0202579D03*
X0085213Y0203169D03*
X0085213Y0203445D03*
X0085213Y0204035D03*
X0085213Y0204626D03*
X0085213Y0204902D03*
X0085213Y0205492D03*
X0085213Y0206083D03*
X0085213Y0206358D03*
X0085213Y0207539D03*
X0085213Y0208130D03*
X0085213Y0208406D03*
X0085213Y0208996D03*
X0085213Y0209587D03*
X0085213Y0209862D03*
X0085213Y0210453D03*
X0085213Y0211043D03*
X0085213Y0211319D03*
X0085213Y0211909D03*
X0085213Y0212500D03*
X0085213Y0212776D03*
X0085213Y0213366D03*
X0085213Y0213957D03*
X0085213Y0214232D03*
X0085213Y0215413D03*
X0096591Y0215413D03*
X0096591Y0214823D03*
X0096591Y0214232D03*
X0096591Y0213957D03*
X0093362Y0209862D03*
X0094543Y0208996D03*
X0053126Y0206358D03*
X0053126Y0206083D03*
X0053126Y0205492D03*
X0053126Y0204902D03*
X0053126Y0204626D03*
X0053126Y0204035D03*
X0053126Y0203445D03*
X0053126Y0203169D03*
X0053126Y0202579D03*
X0053126Y0201988D03*
X0053126Y0201713D03*
X0053126Y0201122D03*
X0053126Y0200531D03*
X0053126Y0200256D03*
X0053126Y0199665D03*
X0053126Y0199075D03*
X0053126Y0198484D03*
X0053126Y0198209D03*
X0053126Y0197618D03*
X0053126Y0197028D03*
X0053126Y0196752D03*
X0053126Y0196161D03*
X0053126Y0195571D03*
X0053126Y0195295D03*
X0053126Y0194705D03*
X0053126Y0194114D03*
X0053126Y0193839D03*
X0053126Y0193248D03*
X0053126Y0192657D03*
X0053126Y0192382D03*
X0053126Y0191791D03*
X0053126Y0191201D03*
X0053126Y0190610D03*
X0053126Y0190335D03*
X0053126Y0189744D03*
X0053126Y0189154D03*
X0053126Y0188878D03*
X0053126Y0188287D03*
X0053126Y0187697D03*
X0053126Y0187421D03*
X0053126Y0186831D03*
X0053126Y0186240D03*
X0053126Y0185965D03*
X0053126Y0185374D03*
X0053126Y0184783D03*
X0053126Y0184508D03*
X0053126Y0183917D03*
X0053126Y0183327D03*
X0053126Y0182736D03*
X0053126Y0182461D03*
X0053126Y0181870D03*
X0053126Y0181280D03*
X0053126Y0181004D03*
X0053126Y0180413D03*
X0053126Y0179823D03*
X0053126Y0179547D03*
X0053126Y0178957D03*
X0053126Y0178366D03*
X0053126Y0178091D03*
X0053126Y0177500D03*
X0053126Y0176909D03*
X0053126Y0176634D03*
X0053126Y0176043D03*
X0053126Y0175453D03*
X0053126Y0174862D03*
X0053126Y0174587D03*
X0053126Y0173996D03*
X0053126Y0153287D03*
X0053126Y0153012D03*
X0053126Y0152421D03*
X0053126Y0151831D03*
X0053126Y0151240D03*
X0053126Y0150965D03*
X0053126Y0150374D03*
X0053126Y0149783D03*
X0053126Y0149508D03*
X0053126Y0148917D03*
X0053126Y0148327D03*
X0053126Y0148051D03*
X0053126Y0147461D03*
X0053126Y0146870D03*
X0053126Y0146594D03*
X0053126Y0146004D03*
X0053126Y0145413D03*
X0053126Y0145138D03*
X0053126Y0144547D03*
X0053126Y0143957D03*
X0053126Y0143366D03*
X0053126Y0143091D03*
X0053126Y0142500D03*
X0053126Y0141909D03*
X0053126Y0141634D03*
X0053126Y0141043D03*
X0053126Y0140453D03*
X0053126Y0140177D03*
X0053126Y0139587D03*
X0053126Y0138996D03*
X0053126Y0138720D03*
X0053126Y0138130D03*
X0053126Y0137539D03*
X0053126Y0137264D03*
X0053126Y0136673D03*
X0053126Y0136083D03*
X0053126Y0135492D03*
X0053126Y0135217D03*
X0053126Y0134626D03*
X0053126Y0134035D03*
X0053126Y0133760D03*
X0053126Y0133169D03*
X0053126Y0132579D03*
X0053126Y0132303D03*
X0053126Y0131713D03*
X0053126Y0131122D03*
X0053126Y0130846D03*
X0053126Y0130256D03*
X0053126Y0129665D03*
X0053126Y0129390D03*
X0053126Y0128799D03*
X0053126Y0128209D03*
X0053126Y0127618D03*
X0053126Y0127343D03*
X0053126Y0126752D03*
X0053126Y0126161D03*
X0053126Y0125886D03*
X0053126Y0125295D03*
X0053126Y0124705D03*
X0053126Y0124429D03*
X0053126Y0123839D03*
X0053126Y0123248D03*
X0053126Y0122972D03*
X0053126Y0122382D03*
X0053126Y0121791D03*
X0053126Y0121516D03*
X0053126Y0120925D03*
X0053126Y0120335D03*
X0053126Y0119744D03*
X0053126Y0119469D03*
X0053126Y0118878D03*
X0053126Y0118287D03*
X0053126Y0118012D03*
X0053126Y0117421D03*
X0092496Y0117421D03*
X0092496Y0116831D03*
X0092496Y0115965D03*
X0092496Y0115374D03*
X0092496Y0115098D03*
X0092496Y0114508D03*
X0092496Y0113917D03*
X0092496Y0113642D03*
X0092496Y0113051D03*
X0092496Y0112461D03*
X0092496Y0111870D03*
X0092496Y0111594D03*
X0092496Y0111004D03*
X0092496Y0110413D03*
X0092496Y0110138D03*
X0092496Y0109547D03*
X0092496Y0108957D03*
X0092496Y0108681D03*
X0096591Y0112461D03*
X0096591Y0113051D03*
X0096591Y0113642D03*
X0096591Y0113917D03*
X0096591Y0114508D03*
X0096591Y0115098D03*
X0096591Y0115374D03*
X0096591Y0115965D03*
X0096591Y0116555D03*
X0096591Y0116831D03*
X0096591Y0117421D03*
X0096591Y0118012D03*
X0096591Y0118287D03*
X0096591Y0118878D03*
X0096591Y0119469D03*
X0096591Y0119744D03*
X0096591Y0120335D03*
X0100370Y0120335D03*
X0100370Y0120925D03*
X0100370Y0121516D03*
X0100370Y0121791D03*
X0100370Y0122382D03*
X0100370Y0122972D03*
X0100370Y0123248D03*
X0100370Y0123839D03*
X0100370Y0124429D03*
X0100370Y0124705D03*
X0100370Y0119744D03*
X0100370Y0119469D03*
X0100370Y0118878D03*
X0100370Y0118287D03*
X0100370Y0118012D03*
X0100370Y0117421D03*
X0100370Y0116831D03*
X0100370Y0116555D03*
X0100370Y0115965D03*
X0100370Y0115374D03*
X0100370Y0115098D03*
X0100370Y0114508D03*
X0100370Y0113917D03*
X0100370Y0113642D03*
X0100370Y0113051D03*
X0100370Y0112461D03*
X0100370Y0111870D03*
X0100370Y0111594D03*
X0100370Y0111004D03*
X0100370Y0110413D03*
X0100370Y0110138D03*
X0100370Y0109547D03*
X0100370Y0108957D03*
X0104740Y0112461D03*
X0104740Y0113051D03*
X0104740Y0113642D03*
X0104740Y0113917D03*
X0104740Y0114508D03*
X0104740Y0115098D03*
X0104740Y0115374D03*
X0104740Y0115965D03*
X0104740Y0116831D03*
X0104740Y0117421D03*
X0104740Y0118012D03*
X0104740Y0118287D03*
X0104740Y0118878D03*
X0104740Y0119469D03*
X0104740Y0119744D03*
X0104740Y0120335D03*
X0092496Y0120335D03*
X0092496Y0120925D03*
X0092496Y0121516D03*
X0092496Y0121791D03*
X0092496Y0122382D03*
X0092496Y0122972D03*
X0092496Y0123248D03*
X0092496Y0123839D03*
X0092496Y0124429D03*
X0092496Y0124705D03*
X0092496Y0119744D03*
X0092496Y0119469D03*
X0092496Y0118878D03*
X0092496Y0118287D03*
X0092496Y0118012D03*
X0143835Y0118012D03*
X0143835Y0118287D03*
X0143835Y0118878D03*
X0143835Y0119469D03*
X0143835Y0119744D03*
X0143835Y0120335D03*
X0143835Y0120925D03*
X0143835Y0121516D03*
X0143835Y0121791D03*
X0143835Y0122382D03*
X0143835Y0122972D03*
X0143835Y0123248D03*
X0143835Y0123839D03*
X0143835Y0124429D03*
X0143835Y0124705D03*
X0143835Y0125295D03*
X0143835Y0125886D03*
X0143835Y0126161D03*
X0143835Y0126752D03*
X0143835Y0127343D03*
X0143835Y0127618D03*
X0143835Y0128209D03*
X0143835Y0128799D03*
X0143835Y0129390D03*
X0143835Y0129665D03*
X0143835Y0130256D03*
X0143835Y0130846D03*
X0143835Y0131122D03*
X0143835Y0131713D03*
X0143835Y0132303D03*
X0143835Y0132579D03*
X0143835Y0133169D03*
X0143835Y0133760D03*
X0143835Y0134035D03*
X0143835Y0134626D03*
X0143835Y0135217D03*
X0143835Y0135492D03*
X0143835Y0136083D03*
X0143835Y0136673D03*
X0143835Y0137264D03*
X0143835Y0137539D03*
X0143835Y0138130D03*
X0143835Y0138720D03*
X0143835Y0138996D03*
X0143835Y0139587D03*
X0143835Y0140177D03*
X0143835Y0140453D03*
X0143835Y0141043D03*
X0143835Y0141634D03*
X0143835Y0141909D03*
X0143835Y0142500D03*
X0143835Y0143091D03*
X0143835Y0143366D03*
X0143835Y0143957D03*
X0143835Y0144547D03*
X0143835Y0145138D03*
X0143835Y0145413D03*
X0143835Y0146004D03*
X0143835Y0146594D03*
X0143835Y0146870D03*
X0143835Y0147461D03*
X0143835Y0148051D03*
X0143835Y0148327D03*
X0143835Y0148917D03*
X0143835Y0149508D03*
X0143835Y0149783D03*
X0143835Y0150374D03*
X0143835Y0150965D03*
X0143835Y0151240D03*
X0143835Y0151831D03*
X0143835Y0152421D03*
X0143835Y0153012D03*
X0143835Y0153287D03*
X0143835Y0153878D03*
X0143835Y0154469D03*
X0143835Y0154744D03*
X0143835Y0155335D03*
X0143835Y0155925D03*
X0143835Y0156201D03*
X0143835Y0156791D03*
X0143835Y0157382D03*
X0143835Y0157657D03*
X0143835Y0158248D03*
X0143835Y0158839D03*
X0143835Y0159114D03*
X0143835Y0159705D03*
X0143835Y0160295D03*
X0143835Y0160886D03*
X0143835Y0161161D03*
X0143835Y0161752D03*
X0143835Y0162343D03*
X0143835Y0162618D03*
X0143835Y0163209D03*
X0143835Y0163799D03*
X0143835Y0164075D03*
X0143835Y0164665D03*
X0143835Y0165256D03*
X0143835Y0165531D03*
X0143835Y0166122D03*
X0143835Y0166713D03*
X0143835Y0166988D03*
X0143835Y0167579D03*
X0144110Y0168169D03*
X0145291Y0170492D03*
X0146157Y0172539D03*
X0147024Y0173996D03*
X0147339Y0174862D03*
X0147614Y0175453D03*
X0147614Y0176043D03*
X0144110Y0176043D03*
X0144110Y0176634D03*
X0144110Y0176909D03*
X0144110Y0177500D03*
X0144110Y0178091D03*
X0144110Y0178366D03*
X0144110Y0178957D03*
X0144110Y0179547D03*
X0144110Y0179823D03*
X0144110Y0180413D03*
X0144110Y0181004D03*
X0144110Y0181280D03*
X0144110Y0181870D03*
X0144110Y0182461D03*
X0144110Y0182736D03*
X0144110Y0183327D03*
X0144110Y0183917D03*
X0144110Y0184508D03*
X0144110Y0184783D03*
X0144110Y0185374D03*
X0144110Y0185965D03*
X0144110Y0186240D03*
X0144110Y0186831D03*
X0144110Y0187421D03*
X0144110Y0187697D03*
X0144110Y0188287D03*
X0144110Y0188878D03*
X0144110Y0189154D03*
X0144110Y0189744D03*
X0144110Y0190335D03*
X0144110Y0190610D03*
X0144110Y0191201D03*
X0144110Y0191791D03*
X0144110Y0192382D03*
X0144110Y0192657D03*
X0144110Y0193248D03*
X0144110Y0193839D03*
X0144110Y0194114D03*
X0144110Y0194705D03*
X0144110Y0195295D03*
X0144110Y0195571D03*
X0144110Y0196161D03*
X0144110Y0196752D03*
X0144110Y0197028D03*
X0144110Y0197618D03*
X0144110Y0198209D03*
X0144110Y0198484D03*
X0144110Y0199075D03*
X0144110Y0199665D03*
X0144110Y0200256D03*
X0144110Y0200531D03*
X0144110Y0201122D03*
X0144110Y0201713D03*
X0144110Y0201988D03*
X0144110Y0202579D03*
X0144110Y0203169D03*
X0144110Y0203445D03*
X0144110Y0204035D03*
X0144110Y0204626D03*
X0144110Y0204902D03*
X0144110Y0205492D03*
X0144110Y0206083D03*
X0144110Y0206358D03*
X0143835Y0117421D03*
X0143835Y0116831D03*
X0143835Y0115965D03*
D111*
X0143835Y0117126D03*
X0143835Y0117717D03*
X0143835Y0118583D03*
X0143835Y0119173D03*
X0143835Y0120039D03*
X0143835Y0120630D03*
X0143835Y0121220D03*
X0143835Y0122087D03*
X0143835Y0122677D03*
X0143835Y0123543D03*
X0143835Y0124134D03*
X0143835Y0125000D03*
X0143835Y0125591D03*
X0143835Y0126457D03*
X0143835Y0127047D03*
X0143835Y0127913D03*
X0143835Y0128504D03*
X0143835Y0129094D03*
X0143835Y0129961D03*
X0143835Y0130551D03*
X0143835Y0131417D03*
X0143835Y0132008D03*
X0143835Y0132874D03*
X0143835Y0133465D03*
X0143835Y0134331D03*
X0143835Y0134921D03*
X0143835Y0135787D03*
X0143835Y0136378D03*
X0143835Y0136969D03*
X0143835Y0137835D03*
X0143835Y0138425D03*
X0143835Y0139291D03*
X0143835Y0139882D03*
X0143835Y0140748D03*
X0143835Y0141339D03*
X0143835Y0142205D03*
X0143835Y0142795D03*
X0143835Y0143661D03*
X0143835Y0144252D03*
X0143835Y0144843D03*
X0143835Y0145709D03*
X0143835Y0146299D03*
X0143835Y0147165D03*
X0143835Y0147756D03*
X0143835Y0148622D03*
X0143835Y0149213D03*
X0143835Y0150079D03*
X0143835Y0150669D03*
X0143835Y0151535D03*
X0143835Y0152126D03*
X0143835Y0152717D03*
X0143835Y0153583D03*
X0143835Y0154173D03*
X0143835Y0155039D03*
X0143835Y0155630D03*
X0143835Y0156496D03*
X0143835Y0157087D03*
X0143835Y0157953D03*
X0143835Y0158543D03*
X0143835Y0159409D03*
X0143835Y0160000D03*
X0143835Y0160591D03*
X0143835Y0161457D03*
X0143835Y0162047D03*
X0143835Y0162913D03*
X0143835Y0163504D03*
X0143835Y0164370D03*
X0143835Y0164961D03*
X0143835Y0165827D03*
X0143835Y0166417D03*
X0143835Y0167283D03*
X0144110Y0168465D03*
X0144701Y0169331D03*
X0145291Y0170787D03*
X0146157Y0172835D03*
X0147024Y0174291D03*
X0147339Y0175157D03*
X0147614Y0175748D03*
X0144110Y0175748D03*
X0144110Y0176339D03*
X0144110Y0177205D03*
X0144110Y0177795D03*
X0144110Y0178661D03*
X0144110Y0179252D03*
X0144110Y0180118D03*
X0144110Y0180709D03*
X0144110Y0181575D03*
X0144110Y0182165D03*
X0144110Y0183031D03*
X0144110Y0183622D03*
X0144110Y0184213D03*
X0144110Y0185079D03*
X0144110Y0185669D03*
X0144110Y0186535D03*
X0144110Y0187126D03*
X0144110Y0187992D03*
X0144110Y0188583D03*
X0144110Y0189449D03*
X0144110Y0190039D03*
X0144110Y0190906D03*
X0144110Y0191496D03*
X0144110Y0192087D03*
X0144110Y0192953D03*
X0144110Y0193543D03*
X0144110Y0194409D03*
X0144110Y0195000D03*
X0144110Y0195866D03*
X0144110Y0196457D03*
X0144110Y0197323D03*
X0144110Y0197913D03*
X0144110Y0198780D03*
X0144110Y0199370D03*
X0144110Y0199961D03*
X0144110Y0200827D03*
X0144110Y0201417D03*
X0144110Y0202283D03*
X0144110Y0202874D03*
X0144110Y0203740D03*
X0144110Y0204331D03*
X0144110Y0205197D03*
X0144110Y0205787D03*
X0144110Y0206654D03*
X0096591Y0206654D03*
X0096591Y0205787D03*
X0096591Y0205197D03*
X0096591Y0204331D03*
X0096591Y0203740D03*
X0096591Y0202874D03*
X0096591Y0202283D03*
X0096591Y0201417D03*
X0096591Y0200827D03*
X0096591Y0199961D03*
X0096591Y0199370D03*
X0087535Y0200827D03*
X0085213Y0200827D03*
X0085213Y0201417D03*
X0085213Y0202283D03*
X0085213Y0202874D03*
X0085213Y0203740D03*
X0085213Y0204331D03*
X0085213Y0205197D03*
X0085213Y0205787D03*
X0085213Y0206654D03*
X0085213Y0207835D03*
X0085213Y0208701D03*
X0085213Y0209291D03*
X0085213Y0210157D03*
X0085213Y0210748D03*
X0085213Y0211614D03*
X0085213Y0212205D03*
X0085213Y0213071D03*
X0085213Y0213661D03*
X0085213Y0214528D03*
X0088992Y0214528D03*
X0091039Y0215118D03*
X0092220Y0213661D03*
X0093087Y0214528D03*
X0094543Y0214528D03*
X0096591Y0214528D03*
X0096591Y0215118D03*
X0096591Y0213661D03*
X0096591Y0213071D03*
X0096591Y0212205D03*
X0096591Y0211614D03*
X0096591Y0210748D03*
X0096591Y0210157D03*
X0096591Y0209291D03*
X0096591Y0208701D03*
X0085213Y0199961D03*
X0053126Y0199961D03*
X0053126Y0199370D03*
X0053126Y0198780D03*
X0053126Y0197913D03*
X0053126Y0197323D03*
X0053126Y0196457D03*
X0053126Y0195866D03*
X0053126Y0195000D03*
X0053126Y0194409D03*
X0053126Y0193543D03*
X0053126Y0192953D03*
X0053126Y0192087D03*
X0053126Y0191496D03*
X0053126Y0190906D03*
X0053126Y0190039D03*
X0053126Y0189449D03*
X0053126Y0188583D03*
X0053126Y0187992D03*
X0053126Y0187126D03*
X0053126Y0186535D03*
X0053126Y0185669D03*
X0053126Y0185079D03*
X0053126Y0184213D03*
X0053126Y0183622D03*
X0053126Y0183031D03*
X0053126Y0182165D03*
X0053126Y0181575D03*
X0053126Y0180709D03*
X0053126Y0180118D03*
X0053126Y0179252D03*
X0053126Y0178661D03*
X0053126Y0177795D03*
X0053126Y0177205D03*
X0053126Y0176339D03*
X0053126Y0175748D03*
X0053126Y0175157D03*
X0053126Y0174291D03*
X0053126Y0173701D03*
X0055173Y0162913D03*
X0053126Y0152717D03*
X0053126Y0152126D03*
X0053126Y0151535D03*
X0053126Y0150669D03*
X0053126Y0150079D03*
X0053126Y0149213D03*
X0053126Y0148622D03*
X0053126Y0147756D03*
X0053126Y0147165D03*
X0053126Y0146299D03*
X0053126Y0145709D03*
X0053126Y0144843D03*
X0053126Y0144252D03*
X0053126Y0143661D03*
X0053126Y0142795D03*
X0053126Y0142205D03*
X0053126Y0141339D03*
X0053126Y0140748D03*
X0053126Y0139882D03*
X0053126Y0139291D03*
X0053126Y0138425D03*
X0053126Y0137835D03*
X0053126Y0136969D03*
X0053126Y0136378D03*
X0053126Y0135787D03*
X0053126Y0134921D03*
X0053126Y0134331D03*
X0053126Y0133465D03*
X0053126Y0132874D03*
X0053126Y0132008D03*
X0053126Y0131417D03*
X0053126Y0130551D03*
X0053126Y0129961D03*
X0053126Y0129094D03*
X0053126Y0128504D03*
X0053126Y0127913D03*
X0053126Y0127047D03*
X0053126Y0126457D03*
X0053126Y0125591D03*
X0053126Y0125000D03*
X0053126Y0124134D03*
X0053126Y0123543D03*
X0053126Y0122677D03*
X0053126Y0122087D03*
X0053126Y0121220D03*
X0053126Y0120630D03*
X0053126Y0120039D03*
X0053126Y0119173D03*
X0053126Y0118583D03*
X0053126Y0117717D03*
X0053126Y0117126D03*
X0092496Y0117126D03*
X0092496Y0117717D03*
X0092496Y0118583D03*
X0092496Y0119173D03*
X0092496Y0120039D03*
X0092496Y0120630D03*
X0092496Y0121220D03*
X0092496Y0122087D03*
X0092496Y0122677D03*
X0092496Y0123543D03*
X0092496Y0124134D03*
X0096591Y0120630D03*
X0096591Y0120039D03*
X0096591Y0119173D03*
X0096591Y0118583D03*
X0096591Y0117717D03*
X0096591Y0117126D03*
X0096591Y0116260D03*
X0096591Y0115669D03*
X0096591Y0114803D03*
X0096591Y0114213D03*
X0096591Y0113346D03*
X0096591Y0112756D03*
X0100370Y0112756D03*
X0100370Y0113346D03*
X0100370Y0114213D03*
X0100370Y0114803D03*
X0100370Y0115669D03*
X0100370Y0116260D03*
X0100370Y0117126D03*
X0100370Y0117717D03*
X0100370Y0118583D03*
X0100370Y0119173D03*
X0100370Y0120039D03*
X0100370Y0120630D03*
X0100370Y0121220D03*
X0100370Y0122087D03*
X0100370Y0122677D03*
X0100370Y0123543D03*
X0100370Y0124134D03*
X0104740Y0120630D03*
X0104740Y0120039D03*
X0104740Y0119173D03*
X0104740Y0118583D03*
X0104740Y0117717D03*
X0104740Y0117126D03*
X0104740Y0115669D03*
X0104740Y0114803D03*
X0104740Y0114213D03*
X0104740Y0113346D03*
X0104740Y0112756D03*
X0100370Y0112165D03*
X0100370Y0111299D03*
X0100370Y0110709D03*
X0100370Y0109843D03*
X0100370Y0109252D03*
X0092496Y0109252D03*
X0092496Y0109843D03*
X0092496Y0110709D03*
X0092496Y0111299D03*
X0092496Y0112165D03*
X0092496Y0112756D03*
X0092496Y0113346D03*
X0092496Y0114213D03*
X0092496Y0114803D03*
X0092496Y0115669D03*
X0092496Y0116260D03*
X0053126Y0200827D03*
X0053126Y0201417D03*
X0053126Y0202283D03*
X0053126Y0202874D03*
X0053126Y0203740D03*
X0053126Y0204331D03*
X0053126Y0205197D03*
X0053126Y0205787D03*
X0053126Y0206654D03*
D112*
X0089720Y0215118D03*
X0091492Y0213071D03*
X0094681Y0205787D03*
X0091768Y0203740D03*
X0146610Y0173701D03*
X0146020Y0172244D03*
X0143972Y0167874D03*
X0055311Y0164961D03*
X0050665Y0167283D03*
X0050665Y0159409D03*
X0055311Y0157087D03*
X0053264Y0153583D03*
D113*
X0055744Y0155039D03*
X0051374Y0160591D03*
X0050508Y0160000D03*
X0051098Y0168465D03*
X0055744Y0170787D03*
X0085508Y0199370D03*
X0088421Y0201417D03*
X0093657Y0205197D03*
X0096295Y0207835D03*
X0095114Y0208701D03*
X0092791Y0210157D03*
X0091925Y0210748D03*
X0088421Y0213071D03*
X0087831Y0213661D03*
X0085508Y0215118D03*
D114*
X0088854Y0214232D03*
X0089445Y0214823D03*
X0091177Y0212776D03*
X0092358Y0213957D03*
X0092634Y0214232D03*
X0093224Y0214823D03*
X0094406Y0214823D03*
X0095547Y0206358D03*
X0092949Y0204626D03*
X0090902Y0203169D03*
X0056177Y0171949D03*
X0055035Y0170492D03*
X0053854Y0173130D03*
X0052988Y0166122D03*
X0050350Y0159705D03*
X0052988Y0158248D03*
X0055035Y0154744D03*
X0057358Y0155925D03*
X0053264Y0116831D03*
X0144563Y0168760D03*
X0144563Y0169035D03*
X0145154Y0170217D03*
D115*
X0094681Y0214232D03*
D116*
X0092496Y0210453D03*
X0091630Y0211043D03*
X0088126Y0213366D03*
X0086669Y0214232D03*
X0095409Y0208406D03*
X0086669Y0200256D03*
X0054583Y0165256D03*
X0056630Y0163799D03*
X0054583Y0162618D03*
X0051669Y0160886D03*
X0054583Y0157382D03*
D117*
X0056925Y0156201D03*
X0053421Y0153878D03*
X0053421Y0161752D03*
X0054287Y0162343D03*
X0056925Y0164075D03*
X0053421Y0169626D03*
X0056925Y0171673D03*
X0088697Y0201713D03*
X0089878Y0202579D03*
X0092201Y0204035D03*
X0093382Y0204902D03*
X0096571Y0207539D03*
X0089287Y0212500D03*
X0089012Y0212776D03*
D118*
X0120193Y0207244D03*
D119*
X0069169Y0207244D03*
D120*
X0120055Y0206949D03*
D121*
X0069169Y0206949D03*
D122*
X0089583Y0202283D03*
X0092496Y0204331D03*
X0054583Y0172835D03*
X0056630Y0171378D03*
X0053717Y0162047D03*
D123*
X0145724Y0171083D03*
X0145724Y0171673D03*
X0145724Y0171949D03*
X0147181Y0174587D03*
D124*
X0145724Y0171378D03*
D125*
X0054583Y0170217D03*
X0052260Y0169035D03*
X0054583Y0154469D03*
D126*
X0092654Y0125000D03*
X0100528Y0125000D03*
X0092654Y0108386D03*
D127*
X0124287Y0116555D03*
D128*
X0072811Y0116555D03*
D129*
X0124287Y0116260D03*
D130*
X0072535Y0116260D03*
M02*
