G75*
%MOIN*%
%OFA0B0*%
%FSLAX25Y25*%
%IPPOS*%
%LPD*%
%AMOC8*
5,1,8,0,0,1.08239X$1,22.5*
%
%ADD10C,0.00800*%
%ADD11C,0.00000*%
D10*
X0031728Y0040000D02*
X0161728Y0040000D01*
X0161970Y0040003D01*
X0162211Y0040012D01*
X0162452Y0040026D01*
X0162693Y0040047D01*
X0162933Y0040073D01*
X0163173Y0040105D01*
X0163412Y0040143D01*
X0163649Y0040186D01*
X0163886Y0040236D01*
X0164121Y0040291D01*
X0164355Y0040351D01*
X0164587Y0040418D01*
X0164818Y0040489D01*
X0165047Y0040567D01*
X0165274Y0040650D01*
X0165499Y0040738D01*
X0165722Y0040832D01*
X0165942Y0040931D01*
X0166160Y0041036D01*
X0166375Y0041145D01*
X0166588Y0041260D01*
X0166798Y0041380D01*
X0167004Y0041505D01*
X0167208Y0041635D01*
X0167409Y0041770D01*
X0167606Y0041910D01*
X0167800Y0042054D01*
X0167990Y0042203D01*
X0168176Y0042357D01*
X0168359Y0042515D01*
X0168538Y0042677D01*
X0168713Y0042844D01*
X0168884Y0043015D01*
X0169051Y0043190D01*
X0169213Y0043369D01*
X0169371Y0043552D01*
X0169525Y0043738D01*
X0169674Y0043928D01*
X0169818Y0044122D01*
X0169958Y0044319D01*
X0170093Y0044520D01*
X0170223Y0044724D01*
X0170348Y0044930D01*
X0170468Y0045140D01*
X0170583Y0045353D01*
X0170692Y0045568D01*
X0170797Y0045786D01*
X0170896Y0046006D01*
X0170990Y0046229D01*
X0171078Y0046454D01*
X0171161Y0046681D01*
X0171239Y0046910D01*
X0171310Y0047141D01*
X0171377Y0047373D01*
X0171437Y0047607D01*
X0171492Y0047842D01*
X0171542Y0048079D01*
X0171585Y0048316D01*
X0171623Y0048555D01*
X0171655Y0048795D01*
X0171681Y0049035D01*
X0171702Y0049276D01*
X0171716Y0049517D01*
X0171725Y0049758D01*
X0171728Y0050000D01*
X0171728Y0230000D01*
X0171725Y0230242D01*
X0171716Y0230483D01*
X0171702Y0230724D01*
X0171681Y0230965D01*
X0171655Y0231205D01*
X0171623Y0231445D01*
X0171585Y0231684D01*
X0171542Y0231921D01*
X0171492Y0232158D01*
X0171437Y0232393D01*
X0171377Y0232627D01*
X0171310Y0232859D01*
X0171239Y0233090D01*
X0171161Y0233319D01*
X0171078Y0233546D01*
X0170990Y0233771D01*
X0170896Y0233994D01*
X0170797Y0234214D01*
X0170692Y0234432D01*
X0170583Y0234647D01*
X0170468Y0234860D01*
X0170348Y0235070D01*
X0170223Y0235276D01*
X0170093Y0235480D01*
X0169958Y0235681D01*
X0169818Y0235878D01*
X0169674Y0236072D01*
X0169525Y0236262D01*
X0169371Y0236448D01*
X0169213Y0236631D01*
X0169051Y0236810D01*
X0168884Y0236985D01*
X0168713Y0237156D01*
X0168538Y0237323D01*
X0168359Y0237485D01*
X0168176Y0237643D01*
X0167990Y0237797D01*
X0167800Y0237946D01*
X0167606Y0238090D01*
X0167409Y0238230D01*
X0167208Y0238365D01*
X0167004Y0238495D01*
X0166798Y0238620D01*
X0166588Y0238740D01*
X0166375Y0238855D01*
X0166160Y0238964D01*
X0165942Y0239069D01*
X0165722Y0239168D01*
X0165499Y0239262D01*
X0165274Y0239350D01*
X0165047Y0239433D01*
X0164818Y0239511D01*
X0164587Y0239582D01*
X0164355Y0239649D01*
X0164121Y0239709D01*
X0163886Y0239764D01*
X0163649Y0239814D01*
X0163412Y0239857D01*
X0163173Y0239895D01*
X0162933Y0239927D01*
X0162693Y0239953D01*
X0162452Y0239974D01*
X0162211Y0239988D01*
X0161970Y0239997D01*
X0161728Y0240000D01*
X0126728Y0240000D01*
X0126486Y0239997D01*
X0126245Y0239988D01*
X0126004Y0239974D01*
X0125763Y0239953D01*
X0125523Y0239927D01*
X0125283Y0239895D01*
X0125044Y0239857D01*
X0124807Y0239814D01*
X0124570Y0239764D01*
X0124335Y0239709D01*
X0124101Y0239649D01*
X0123869Y0239582D01*
X0123638Y0239511D01*
X0123409Y0239433D01*
X0123182Y0239350D01*
X0122957Y0239262D01*
X0122734Y0239168D01*
X0122514Y0239069D01*
X0122296Y0238964D01*
X0122081Y0238855D01*
X0121868Y0238740D01*
X0121658Y0238620D01*
X0121452Y0238495D01*
X0121248Y0238365D01*
X0121047Y0238230D01*
X0120850Y0238090D01*
X0120656Y0237946D01*
X0120466Y0237797D01*
X0120280Y0237643D01*
X0120097Y0237485D01*
X0119918Y0237323D01*
X0119743Y0237156D01*
X0119572Y0236985D01*
X0119405Y0236810D01*
X0119243Y0236631D01*
X0119085Y0236448D01*
X0118931Y0236262D01*
X0118782Y0236072D01*
X0118638Y0235878D01*
X0118498Y0235681D01*
X0118363Y0235480D01*
X0118233Y0235276D01*
X0118108Y0235070D01*
X0117988Y0234860D01*
X0117873Y0234647D01*
X0117764Y0234432D01*
X0117659Y0234214D01*
X0117560Y0233994D01*
X0117466Y0233771D01*
X0117378Y0233546D01*
X0117295Y0233319D01*
X0117217Y0233090D01*
X0117146Y0232859D01*
X0117079Y0232627D01*
X0117019Y0232393D01*
X0116964Y0232158D01*
X0116914Y0231921D01*
X0116871Y0231684D01*
X0116833Y0231445D01*
X0116801Y0231205D01*
X0116775Y0230965D01*
X0116754Y0230724D01*
X0116740Y0230483D01*
X0116731Y0230242D01*
X0116728Y0230000D01*
X0116725Y0229758D01*
X0116716Y0229517D01*
X0116702Y0229276D01*
X0116681Y0229035D01*
X0116655Y0228795D01*
X0116623Y0228555D01*
X0116585Y0228316D01*
X0116542Y0228079D01*
X0116492Y0227842D01*
X0116437Y0227607D01*
X0116377Y0227373D01*
X0116310Y0227141D01*
X0116239Y0226910D01*
X0116161Y0226681D01*
X0116078Y0226454D01*
X0115990Y0226229D01*
X0115896Y0226006D01*
X0115797Y0225786D01*
X0115692Y0225568D01*
X0115583Y0225353D01*
X0115468Y0225140D01*
X0115348Y0224930D01*
X0115223Y0224724D01*
X0115093Y0224520D01*
X0114958Y0224319D01*
X0114818Y0224122D01*
X0114674Y0223928D01*
X0114525Y0223738D01*
X0114371Y0223552D01*
X0114213Y0223369D01*
X0114051Y0223190D01*
X0113884Y0223015D01*
X0113713Y0222844D01*
X0113538Y0222677D01*
X0113359Y0222515D01*
X0113176Y0222357D01*
X0112990Y0222203D01*
X0112800Y0222054D01*
X0112606Y0221910D01*
X0112409Y0221770D01*
X0112208Y0221635D01*
X0112004Y0221505D01*
X0111798Y0221380D01*
X0111588Y0221260D01*
X0111375Y0221145D01*
X0111160Y0221036D01*
X0110942Y0220931D01*
X0110722Y0220832D01*
X0110499Y0220738D01*
X0110274Y0220650D01*
X0110047Y0220567D01*
X0109818Y0220489D01*
X0109587Y0220418D01*
X0109355Y0220351D01*
X0109121Y0220291D01*
X0108886Y0220236D01*
X0108649Y0220186D01*
X0108412Y0220143D01*
X0108173Y0220105D01*
X0107933Y0220073D01*
X0107693Y0220047D01*
X0107452Y0220026D01*
X0107211Y0220012D01*
X0106970Y0220003D01*
X0106728Y0220000D01*
X0086728Y0220000D01*
X0086486Y0220003D01*
X0086245Y0220012D01*
X0086004Y0220026D01*
X0085763Y0220047D01*
X0085523Y0220073D01*
X0085283Y0220105D01*
X0085044Y0220143D01*
X0084807Y0220186D01*
X0084570Y0220236D01*
X0084335Y0220291D01*
X0084101Y0220351D01*
X0083869Y0220418D01*
X0083638Y0220489D01*
X0083409Y0220567D01*
X0083182Y0220650D01*
X0082957Y0220738D01*
X0082734Y0220832D01*
X0082514Y0220931D01*
X0082296Y0221036D01*
X0082081Y0221145D01*
X0081868Y0221260D01*
X0081658Y0221380D01*
X0081452Y0221505D01*
X0081248Y0221635D01*
X0081047Y0221770D01*
X0080850Y0221910D01*
X0080656Y0222054D01*
X0080466Y0222203D01*
X0080280Y0222357D01*
X0080097Y0222515D01*
X0079918Y0222677D01*
X0079743Y0222844D01*
X0079572Y0223015D01*
X0079405Y0223190D01*
X0079243Y0223369D01*
X0079085Y0223552D01*
X0078931Y0223738D01*
X0078782Y0223928D01*
X0078638Y0224122D01*
X0078498Y0224319D01*
X0078363Y0224520D01*
X0078233Y0224724D01*
X0078108Y0224930D01*
X0077988Y0225140D01*
X0077873Y0225353D01*
X0077764Y0225568D01*
X0077659Y0225786D01*
X0077560Y0226006D01*
X0077466Y0226229D01*
X0077378Y0226454D01*
X0077295Y0226681D01*
X0077217Y0226910D01*
X0077146Y0227141D01*
X0077079Y0227373D01*
X0077019Y0227607D01*
X0076964Y0227842D01*
X0076914Y0228079D01*
X0076871Y0228316D01*
X0076833Y0228555D01*
X0076801Y0228795D01*
X0076775Y0229035D01*
X0076754Y0229276D01*
X0076740Y0229517D01*
X0076731Y0229758D01*
X0076728Y0230000D01*
X0076725Y0230242D01*
X0076716Y0230483D01*
X0076702Y0230724D01*
X0076681Y0230965D01*
X0076655Y0231205D01*
X0076623Y0231445D01*
X0076585Y0231684D01*
X0076542Y0231921D01*
X0076492Y0232158D01*
X0076437Y0232393D01*
X0076377Y0232627D01*
X0076310Y0232859D01*
X0076239Y0233090D01*
X0076161Y0233319D01*
X0076078Y0233546D01*
X0075990Y0233771D01*
X0075896Y0233994D01*
X0075797Y0234214D01*
X0075692Y0234432D01*
X0075583Y0234647D01*
X0075468Y0234860D01*
X0075348Y0235070D01*
X0075223Y0235276D01*
X0075093Y0235480D01*
X0074958Y0235681D01*
X0074818Y0235878D01*
X0074674Y0236072D01*
X0074525Y0236262D01*
X0074371Y0236448D01*
X0074213Y0236631D01*
X0074051Y0236810D01*
X0073884Y0236985D01*
X0073713Y0237156D01*
X0073538Y0237323D01*
X0073359Y0237485D01*
X0073176Y0237643D01*
X0072990Y0237797D01*
X0072800Y0237946D01*
X0072606Y0238090D01*
X0072409Y0238230D01*
X0072208Y0238365D01*
X0072004Y0238495D01*
X0071798Y0238620D01*
X0071588Y0238740D01*
X0071375Y0238855D01*
X0071160Y0238964D01*
X0070942Y0239069D01*
X0070722Y0239168D01*
X0070499Y0239262D01*
X0070274Y0239350D01*
X0070047Y0239433D01*
X0069818Y0239511D01*
X0069587Y0239582D01*
X0069355Y0239649D01*
X0069121Y0239709D01*
X0068886Y0239764D01*
X0068649Y0239814D01*
X0068412Y0239857D01*
X0068173Y0239895D01*
X0067933Y0239927D01*
X0067693Y0239953D01*
X0067452Y0239974D01*
X0067211Y0239988D01*
X0066970Y0239997D01*
X0066728Y0240000D01*
X0031728Y0240000D01*
X0031486Y0239997D01*
X0031245Y0239988D01*
X0031004Y0239974D01*
X0030763Y0239953D01*
X0030523Y0239927D01*
X0030283Y0239895D01*
X0030044Y0239857D01*
X0029807Y0239814D01*
X0029570Y0239764D01*
X0029335Y0239709D01*
X0029101Y0239649D01*
X0028869Y0239582D01*
X0028638Y0239511D01*
X0028409Y0239433D01*
X0028182Y0239350D01*
X0027957Y0239262D01*
X0027734Y0239168D01*
X0027514Y0239069D01*
X0027296Y0238964D01*
X0027081Y0238855D01*
X0026868Y0238740D01*
X0026658Y0238620D01*
X0026452Y0238495D01*
X0026248Y0238365D01*
X0026047Y0238230D01*
X0025850Y0238090D01*
X0025656Y0237946D01*
X0025466Y0237797D01*
X0025280Y0237643D01*
X0025097Y0237485D01*
X0024918Y0237323D01*
X0024743Y0237156D01*
X0024572Y0236985D01*
X0024405Y0236810D01*
X0024243Y0236631D01*
X0024085Y0236448D01*
X0023931Y0236262D01*
X0023782Y0236072D01*
X0023638Y0235878D01*
X0023498Y0235681D01*
X0023363Y0235480D01*
X0023233Y0235276D01*
X0023108Y0235070D01*
X0022988Y0234860D01*
X0022873Y0234647D01*
X0022764Y0234432D01*
X0022659Y0234214D01*
X0022560Y0233994D01*
X0022466Y0233771D01*
X0022378Y0233546D01*
X0022295Y0233319D01*
X0022217Y0233090D01*
X0022146Y0232859D01*
X0022079Y0232627D01*
X0022019Y0232393D01*
X0021964Y0232158D01*
X0021914Y0231921D01*
X0021871Y0231684D01*
X0021833Y0231445D01*
X0021801Y0231205D01*
X0021775Y0230965D01*
X0021754Y0230724D01*
X0021740Y0230483D01*
X0021731Y0230242D01*
X0021728Y0230000D01*
X0021728Y0050000D01*
X0021731Y0049758D01*
X0021740Y0049517D01*
X0021754Y0049276D01*
X0021775Y0049035D01*
X0021801Y0048795D01*
X0021833Y0048555D01*
X0021871Y0048316D01*
X0021914Y0048079D01*
X0021964Y0047842D01*
X0022019Y0047607D01*
X0022079Y0047373D01*
X0022146Y0047141D01*
X0022217Y0046910D01*
X0022295Y0046681D01*
X0022378Y0046454D01*
X0022466Y0046229D01*
X0022560Y0046006D01*
X0022659Y0045786D01*
X0022764Y0045568D01*
X0022873Y0045353D01*
X0022988Y0045140D01*
X0023108Y0044930D01*
X0023233Y0044724D01*
X0023363Y0044520D01*
X0023498Y0044319D01*
X0023638Y0044122D01*
X0023782Y0043928D01*
X0023931Y0043738D01*
X0024085Y0043552D01*
X0024243Y0043369D01*
X0024405Y0043190D01*
X0024572Y0043015D01*
X0024743Y0042844D01*
X0024918Y0042677D01*
X0025097Y0042515D01*
X0025280Y0042357D01*
X0025466Y0042203D01*
X0025656Y0042054D01*
X0025850Y0041910D01*
X0026047Y0041770D01*
X0026248Y0041635D01*
X0026452Y0041505D01*
X0026658Y0041380D01*
X0026868Y0041260D01*
X0027081Y0041145D01*
X0027296Y0041036D01*
X0027514Y0040931D01*
X0027734Y0040832D01*
X0027957Y0040738D01*
X0028182Y0040650D01*
X0028409Y0040567D01*
X0028638Y0040489D01*
X0028869Y0040418D01*
X0029101Y0040351D01*
X0029335Y0040291D01*
X0029570Y0040236D01*
X0029807Y0040186D01*
X0030044Y0040143D01*
X0030283Y0040105D01*
X0030523Y0040073D01*
X0030763Y0040047D01*
X0031004Y0040026D01*
X0031245Y0040012D01*
X0031486Y0040003D01*
X0031728Y0040000D01*
D11*
X0030228Y0055000D02*
X0030230Y0055161D01*
X0030236Y0055321D01*
X0030246Y0055482D01*
X0030260Y0055642D01*
X0030278Y0055802D01*
X0030299Y0055961D01*
X0030325Y0056120D01*
X0030355Y0056278D01*
X0030388Y0056435D01*
X0030426Y0056592D01*
X0030467Y0056747D01*
X0030512Y0056901D01*
X0030561Y0057054D01*
X0030614Y0057206D01*
X0030670Y0057357D01*
X0030731Y0057506D01*
X0030794Y0057654D01*
X0030862Y0057800D01*
X0030933Y0057944D01*
X0031007Y0058086D01*
X0031085Y0058227D01*
X0031167Y0058365D01*
X0031252Y0058502D01*
X0031340Y0058636D01*
X0031432Y0058768D01*
X0031527Y0058898D01*
X0031625Y0059026D01*
X0031726Y0059151D01*
X0031830Y0059273D01*
X0031937Y0059393D01*
X0032047Y0059510D01*
X0032160Y0059625D01*
X0032276Y0059736D01*
X0032395Y0059845D01*
X0032516Y0059950D01*
X0032640Y0060053D01*
X0032766Y0060153D01*
X0032894Y0060249D01*
X0033025Y0060342D01*
X0033159Y0060432D01*
X0033294Y0060519D01*
X0033432Y0060602D01*
X0033571Y0060682D01*
X0033713Y0060758D01*
X0033856Y0060831D01*
X0034001Y0060900D01*
X0034148Y0060966D01*
X0034296Y0061028D01*
X0034446Y0061086D01*
X0034597Y0061141D01*
X0034750Y0061192D01*
X0034904Y0061239D01*
X0035059Y0061282D01*
X0035215Y0061321D01*
X0035371Y0061357D01*
X0035529Y0061388D01*
X0035687Y0061416D01*
X0035846Y0061440D01*
X0036006Y0061460D01*
X0036166Y0061476D01*
X0036326Y0061488D01*
X0036487Y0061496D01*
X0036648Y0061500D01*
X0036808Y0061500D01*
X0036969Y0061496D01*
X0037130Y0061488D01*
X0037290Y0061476D01*
X0037450Y0061460D01*
X0037610Y0061440D01*
X0037769Y0061416D01*
X0037927Y0061388D01*
X0038085Y0061357D01*
X0038241Y0061321D01*
X0038397Y0061282D01*
X0038552Y0061239D01*
X0038706Y0061192D01*
X0038859Y0061141D01*
X0039010Y0061086D01*
X0039160Y0061028D01*
X0039308Y0060966D01*
X0039455Y0060900D01*
X0039600Y0060831D01*
X0039743Y0060758D01*
X0039885Y0060682D01*
X0040024Y0060602D01*
X0040162Y0060519D01*
X0040297Y0060432D01*
X0040431Y0060342D01*
X0040562Y0060249D01*
X0040690Y0060153D01*
X0040816Y0060053D01*
X0040940Y0059950D01*
X0041061Y0059845D01*
X0041180Y0059736D01*
X0041296Y0059625D01*
X0041409Y0059510D01*
X0041519Y0059393D01*
X0041626Y0059273D01*
X0041730Y0059151D01*
X0041831Y0059026D01*
X0041929Y0058898D01*
X0042024Y0058768D01*
X0042116Y0058636D01*
X0042204Y0058502D01*
X0042289Y0058365D01*
X0042371Y0058227D01*
X0042449Y0058086D01*
X0042523Y0057944D01*
X0042594Y0057800D01*
X0042662Y0057654D01*
X0042725Y0057506D01*
X0042786Y0057357D01*
X0042842Y0057206D01*
X0042895Y0057054D01*
X0042944Y0056901D01*
X0042989Y0056747D01*
X0043030Y0056592D01*
X0043068Y0056435D01*
X0043101Y0056278D01*
X0043131Y0056120D01*
X0043157Y0055961D01*
X0043178Y0055802D01*
X0043196Y0055642D01*
X0043210Y0055482D01*
X0043220Y0055321D01*
X0043226Y0055161D01*
X0043228Y0055000D01*
X0043226Y0054839D01*
X0043220Y0054679D01*
X0043210Y0054518D01*
X0043196Y0054358D01*
X0043178Y0054198D01*
X0043157Y0054039D01*
X0043131Y0053880D01*
X0043101Y0053722D01*
X0043068Y0053565D01*
X0043030Y0053408D01*
X0042989Y0053253D01*
X0042944Y0053099D01*
X0042895Y0052946D01*
X0042842Y0052794D01*
X0042786Y0052643D01*
X0042725Y0052494D01*
X0042662Y0052346D01*
X0042594Y0052200D01*
X0042523Y0052056D01*
X0042449Y0051914D01*
X0042371Y0051773D01*
X0042289Y0051635D01*
X0042204Y0051498D01*
X0042116Y0051364D01*
X0042024Y0051232D01*
X0041929Y0051102D01*
X0041831Y0050974D01*
X0041730Y0050849D01*
X0041626Y0050727D01*
X0041519Y0050607D01*
X0041409Y0050490D01*
X0041296Y0050375D01*
X0041180Y0050264D01*
X0041061Y0050155D01*
X0040940Y0050050D01*
X0040816Y0049947D01*
X0040690Y0049847D01*
X0040562Y0049751D01*
X0040431Y0049658D01*
X0040297Y0049568D01*
X0040162Y0049481D01*
X0040024Y0049398D01*
X0039885Y0049318D01*
X0039743Y0049242D01*
X0039600Y0049169D01*
X0039455Y0049100D01*
X0039308Y0049034D01*
X0039160Y0048972D01*
X0039010Y0048914D01*
X0038859Y0048859D01*
X0038706Y0048808D01*
X0038552Y0048761D01*
X0038397Y0048718D01*
X0038241Y0048679D01*
X0038085Y0048643D01*
X0037927Y0048612D01*
X0037769Y0048584D01*
X0037610Y0048560D01*
X0037450Y0048540D01*
X0037290Y0048524D01*
X0037130Y0048512D01*
X0036969Y0048504D01*
X0036808Y0048500D01*
X0036648Y0048500D01*
X0036487Y0048504D01*
X0036326Y0048512D01*
X0036166Y0048524D01*
X0036006Y0048540D01*
X0035846Y0048560D01*
X0035687Y0048584D01*
X0035529Y0048612D01*
X0035371Y0048643D01*
X0035215Y0048679D01*
X0035059Y0048718D01*
X0034904Y0048761D01*
X0034750Y0048808D01*
X0034597Y0048859D01*
X0034446Y0048914D01*
X0034296Y0048972D01*
X0034148Y0049034D01*
X0034001Y0049100D01*
X0033856Y0049169D01*
X0033713Y0049242D01*
X0033571Y0049318D01*
X0033432Y0049398D01*
X0033294Y0049481D01*
X0033159Y0049568D01*
X0033025Y0049658D01*
X0032894Y0049751D01*
X0032766Y0049847D01*
X0032640Y0049947D01*
X0032516Y0050050D01*
X0032395Y0050155D01*
X0032276Y0050264D01*
X0032160Y0050375D01*
X0032047Y0050490D01*
X0031937Y0050607D01*
X0031830Y0050727D01*
X0031726Y0050849D01*
X0031625Y0050974D01*
X0031527Y0051102D01*
X0031432Y0051232D01*
X0031340Y0051364D01*
X0031252Y0051498D01*
X0031167Y0051635D01*
X0031085Y0051773D01*
X0031007Y0051914D01*
X0030933Y0052056D01*
X0030862Y0052200D01*
X0030794Y0052346D01*
X0030731Y0052494D01*
X0030670Y0052643D01*
X0030614Y0052794D01*
X0030561Y0052946D01*
X0030512Y0053099D01*
X0030467Y0053253D01*
X0030426Y0053408D01*
X0030388Y0053565D01*
X0030355Y0053722D01*
X0030325Y0053880D01*
X0030299Y0054039D01*
X0030278Y0054198D01*
X0030260Y0054358D01*
X0030246Y0054518D01*
X0030236Y0054679D01*
X0030230Y0054839D01*
X0030228Y0055000D01*
X0150228Y0055000D02*
X0150230Y0055161D01*
X0150236Y0055321D01*
X0150246Y0055482D01*
X0150260Y0055642D01*
X0150278Y0055802D01*
X0150299Y0055961D01*
X0150325Y0056120D01*
X0150355Y0056278D01*
X0150388Y0056435D01*
X0150426Y0056592D01*
X0150467Y0056747D01*
X0150512Y0056901D01*
X0150561Y0057054D01*
X0150614Y0057206D01*
X0150670Y0057357D01*
X0150731Y0057506D01*
X0150794Y0057654D01*
X0150862Y0057800D01*
X0150933Y0057944D01*
X0151007Y0058086D01*
X0151085Y0058227D01*
X0151167Y0058365D01*
X0151252Y0058502D01*
X0151340Y0058636D01*
X0151432Y0058768D01*
X0151527Y0058898D01*
X0151625Y0059026D01*
X0151726Y0059151D01*
X0151830Y0059273D01*
X0151937Y0059393D01*
X0152047Y0059510D01*
X0152160Y0059625D01*
X0152276Y0059736D01*
X0152395Y0059845D01*
X0152516Y0059950D01*
X0152640Y0060053D01*
X0152766Y0060153D01*
X0152894Y0060249D01*
X0153025Y0060342D01*
X0153159Y0060432D01*
X0153294Y0060519D01*
X0153432Y0060602D01*
X0153571Y0060682D01*
X0153713Y0060758D01*
X0153856Y0060831D01*
X0154001Y0060900D01*
X0154148Y0060966D01*
X0154296Y0061028D01*
X0154446Y0061086D01*
X0154597Y0061141D01*
X0154750Y0061192D01*
X0154904Y0061239D01*
X0155059Y0061282D01*
X0155215Y0061321D01*
X0155371Y0061357D01*
X0155529Y0061388D01*
X0155687Y0061416D01*
X0155846Y0061440D01*
X0156006Y0061460D01*
X0156166Y0061476D01*
X0156326Y0061488D01*
X0156487Y0061496D01*
X0156648Y0061500D01*
X0156808Y0061500D01*
X0156969Y0061496D01*
X0157130Y0061488D01*
X0157290Y0061476D01*
X0157450Y0061460D01*
X0157610Y0061440D01*
X0157769Y0061416D01*
X0157927Y0061388D01*
X0158085Y0061357D01*
X0158241Y0061321D01*
X0158397Y0061282D01*
X0158552Y0061239D01*
X0158706Y0061192D01*
X0158859Y0061141D01*
X0159010Y0061086D01*
X0159160Y0061028D01*
X0159308Y0060966D01*
X0159455Y0060900D01*
X0159600Y0060831D01*
X0159743Y0060758D01*
X0159885Y0060682D01*
X0160024Y0060602D01*
X0160162Y0060519D01*
X0160297Y0060432D01*
X0160431Y0060342D01*
X0160562Y0060249D01*
X0160690Y0060153D01*
X0160816Y0060053D01*
X0160940Y0059950D01*
X0161061Y0059845D01*
X0161180Y0059736D01*
X0161296Y0059625D01*
X0161409Y0059510D01*
X0161519Y0059393D01*
X0161626Y0059273D01*
X0161730Y0059151D01*
X0161831Y0059026D01*
X0161929Y0058898D01*
X0162024Y0058768D01*
X0162116Y0058636D01*
X0162204Y0058502D01*
X0162289Y0058365D01*
X0162371Y0058227D01*
X0162449Y0058086D01*
X0162523Y0057944D01*
X0162594Y0057800D01*
X0162662Y0057654D01*
X0162725Y0057506D01*
X0162786Y0057357D01*
X0162842Y0057206D01*
X0162895Y0057054D01*
X0162944Y0056901D01*
X0162989Y0056747D01*
X0163030Y0056592D01*
X0163068Y0056435D01*
X0163101Y0056278D01*
X0163131Y0056120D01*
X0163157Y0055961D01*
X0163178Y0055802D01*
X0163196Y0055642D01*
X0163210Y0055482D01*
X0163220Y0055321D01*
X0163226Y0055161D01*
X0163228Y0055000D01*
X0163226Y0054839D01*
X0163220Y0054679D01*
X0163210Y0054518D01*
X0163196Y0054358D01*
X0163178Y0054198D01*
X0163157Y0054039D01*
X0163131Y0053880D01*
X0163101Y0053722D01*
X0163068Y0053565D01*
X0163030Y0053408D01*
X0162989Y0053253D01*
X0162944Y0053099D01*
X0162895Y0052946D01*
X0162842Y0052794D01*
X0162786Y0052643D01*
X0162725Y0052494D01*
X0162662Y0052346D01*
X0162594Y0052200D01*
X0162523Y0052056D01*
X0162449Y0051914D01*
X0162371Y0051773D01*
X0162289Y0051635D01*
X0162204Y0051498D01*
X0162116Y0051364D01*
X0162024Y0051232D01*
X0161929Y0051102D01*
X0161831Y0050974D01*
X0161730Y0050849D01*
X0161626Y0050727D01*
X0161519Y0050607D01*
X0161409Y0050490D01*
X0161296Y0050375D01*
X0161180Y0050264D01*
X0161061Y0050155D01*
X0160940Y0050050D01*
X0160816Y0049947D01*
X0160690Y0049847D01*
X0160562Y0049751D01*
X0160431Y0049658D01*
X0160297Y0049568D01*
X0160162Y0049481D01*
X0160024Y0049398D01*
X0159885Y0049318D01*
X0159743Y0049242D01*
X0159600Y0049169D01*
X0159455Y0049100D01*
X0159308Y0049034D01*
X0159160Y0048972D01*
X0159010Y0048914D01*
X0158859Y0048859D01*
X0158706Y0048808D01*
X0158552Y0048761D01*
X0158397Y0048718D01*
X0158241Y0048679D01*
X0158085Y0048643D01*
X0157927Y0048612D01*
X0157769Y0048584D01*
X0157610Y0048560D01*
X0157450Y0048540D01*
X0157290Y0048524D01*
X0157130Y0048512D01*
X0156969Y0048504D01*
X0156808Y0048500D01*
X0156648Y0048500D01*
X0156487Y0048504D01*
X0156326Y0048512D01*
X0156166Y0048524D01*
X0156006Y0048540D01*
X0155846Y0048560D01*
X0155687Y0048584D01*
X0155529Y0048612D01*
X0155371Y0048643D01*
X0155215Y0048679D01*
X0155059Y0048718D01*
X0154904Y0048761D01*
X0154750Y0048808D01*
X0154597Y0048859D01*
X0154446Y0048914D01*
X0154296Y0048972D01*
X0154148Y0049034D01*
X0154001Y0049100D01*
X0153856Y0049169D01*
X0153713Y0049242D01*
X0153571Y0049318D01*
X0153432Y0049398D01*
X0153294Y0049481D01*
X0153159Y0049568D01*
X0153025Y0049658D01*
X0152894Y0049751D01*
X0152766Y0049847D01*
X0152640Y0049947D01*
X0152516Y0050050D01*
X0152395Y0050155D01*
X0152276Y0050264D01*
X0152160Y0050375D01*
X0152047Y0050490D01*
X0151937Y0050607D01*
X0151830Y0050727D01*
X0151726Y0050849D01*
X0151625Y0050974D01*
X0151527Y0051102D01*
X0151432Y0051232D01*
X0151340Y0051364D01*
X0151252Y0051498D01*
X0151167Y0051635D01*
X0151085Y0051773D01*
X0151007Y0051914D01*
X0150933Y0052056D01*
X0150862Y0052200D01*
X0150794Y0052346D01*
X0150731Y0052494D01*
X0150670Y0052643D01*
X0150614Y0052794D01*
X0150561Y0052946D01*
X0150512Y0053099D01*
X0150467Y0053253D01*
X0150426Y0053408D01*
X0150388Y0053565D01*
X0150355Y0053722D01*
X0150325Y0053880D01*
X0150299Y0054039D01*
X0150278Y0054198D01*
X0150260Y0054358D01*
X0150246Y0054518D01*
X0150236Y0054679D01*
X0150230Y0054839D01*
X0150228Y0055000D01*
X0150228Y0210000D02*
X0150230Y0210161D01*
X0150236Y0210321D01*
X0150246Y0210482D01*
X0150260Y0210642D01*
X0150278Y0210802D01*
X0150299Y0210961D01*
X0150325Y0211120D01*
X0150355Y0211278D01*
X0150388Y0211435D01*
X0150426Y0211592D01*
X0150467Y0211747D01*
X0150512Y0211901D01*
X0150561Y0212054D01*
X0150614Y0212206D01*
X0150670Y0212357D01*
X0150731Y0212506D01*
X0150794Y0212654D01*
X0150862Y0212800D01*
X0150933Y0212944D01*
X0151007Y0213086D01*
X0151085Y0213227D01*
X0151167Y0213365D01*
X0151252Y0213502D01*
X0151340Y0213636D01*
X0151432Y0213768D01*
X0151527Y0213898D01*
X0151625Y0214026D01*
X0151726Y0214151D01*
X0151830Y0214273D01*
X0151937Y0214393D01*
X0152047Y0214510D01*
X0152160Y0214625D01*
X0152276Y0214736D01*
X0152395Y0214845D01*
X0152516Y0214950D01*
X0152640Y0215053D01*
X0152766Y0215153D01*
X0152894Y0215249D01*
X0153025Y0215342D01*
X0153159Y0215432D01*
X0153294Y0215519D01*
X0153432Y0215602D01*
X0153571Y0215682D01*
X0153713Y0215758D01*
X0153856Y0215831D01*
X0154001Y0215900D01*
X0154148Y0215966D01*
X0154296Y0216028D01*
X0154446Y0216086D01*
X0154597Y0216141D01*
X0154750Y0216192D01*
X0154904Y0216239D01*
X0155059Y0216282D01*
X0155215Y0216321D01*
X0155371Y0216357D01*
X0155529Y0216388D01*
X0155687Y0216416D01*
X0155846Y0216440D01*
X0156006Y0216460D01*
X0156166Y0216476D01*
X0156326Y0216488D01*
X0156487Y0216496D01*
X0156648Y0216500D01*
X0156808Y0216500D01*
X0156969Y0216496D01*
X0157130Y0216488D01*
X0157290Y0216476D01*
X0157450Y0216460D01*
X0157610Y0216440D01*
X0157769Y0216416D01*
X0157927Y0216388D01*
X0158085Y0216357D01*
X0158241Y0216321D01*
X0158397Y0216282D01*
X0158552Y0216239D01*
X0158706Y0216192D01*
X0158859Y0216141D01*
X0159010Y0216086D01*
X0159160Y0216028D01*
X0159308Y0215966D01*
X0159455Y0215900D01*
X0159600Y0215831D01*
X0159743Y0215758D01*
X0159885Y0215682D01*
X0160024Y0215602D01*
X0160162Y0215519D01*
X0160297Y0215432D01*
X0160431Y0215342D01*
X0160562Y0215249D01*
X0160690Y0215153D01*
X0160816Y0215053D01*
X0160940Y0214950D01*
X0161061Y0214845D01*
X0161180Y0214736D01*
X0161296Y0214625D01*
X0161409Y0214510D01*
X0161519Y0214393D01*
X0161626Y0214273D01*
X0161730Y0214151D01*
X0161831Y0214026D01*
X0161929Y0213898D01*
X0162024Y0213768D01*
X0162116Y0213636D01*
X0162204Y0213502D01*
X0162289Y0213365D01*
X0162371Y0213227D01*
X0162449Y0213086D01*
X0162523Y0212944D01*
X0162594Y0212800D01*
X0162662Y0212654D01*
X0162725Y0212506D01*
X0162786Y0212357D01*
X0162842Y0212206D01*
X0162895Y0212054D01*
X0162944Y0211901D01*
X0162989Y0211747D01*
X0163030Y0211592D01*
X0163068Y0211435D01*
X0163101Y0211278D01*
X0163131Y0211120D01*
X0163157Y0210961D01*
X0163178Y0210802D01*
X0163196Y0210642D01*
X0163210Y0210482D01*
X0163220Y0210321D01*
X0163226Y0210161D01*
X0163228Y0210000D01*
X0163226Y0209839D01*
X0163220Y0209679D01*
X0163210Y0209518D01*
X0163196Y0209358D01*
X0163178Y0209198D01*
X0163157Y0209039D01*
X0163131Y0208880D01*
X0163101Y0208722D01*
X0163068Y0208565D01*
X0163030Y0208408D01*
X0162989Y0208253D01*
X0162944Y0208099D01*
X0162895Y0207946D01*
X0162842Y0207794D01*
X0162786Y0207643D01*
X0162725Y0207494D01*
X0162662Y0207346D01*
X0162594Y0207200D01*
X0162523Y0207056D01*
X0162449Y0206914D01*
X0162371Y0206773D01*
X0162289Y0206635D01*
X0162204Y0206498D01*
X0162116Y0206364D01*
X0162024Y0206232D01*
X0161929Y0206102D01*
X0161831Y0205974D01*
X0161730Y0205849D01*
X0161626Y0205727D01*
X0161519Y0205607D01*
X0161409Y0205490D01*
X0161296Y0205375D01*
X0161180Y0205264D01*
X0161061Y0205155D01*
X0160940Y0205050D01*
X0160816Y0204947D01*
X0160690Y0204847D01*
X0160562Y0204751D01*
X0160431Y0204658D01*
X0160297Y0204568D01*
X0160162Y0204481D01*
X0160024Y0204398D01*
X0159885Y0204318D01*
X0159743Y0204242D01*
X0159600Y0204169D01*
X0159455Y0204100D01*
X0159308Y0204034D01*
X0159160Y0203972D01*
X0159010Y0203914D01*
X0158859Y0203859D01*
X0158706Y0203808D01*
X0158552Y0203761D01*
X0158397Y0203718D01*
X0158241Y0203679D01*
X0158085Y0203643D01*
X0157927Y0203612D01*
X0157769Y0203584D01*
X0157610Y0203560D01*
X0157450Y0203540D01*
X0157290Y0203524D01*
X0157130Y0203512D01*
X0156969Y0203504D01*
X0156808Y0203500D01*
X0156648Y0203500D01*
X0156487Y0203504D01*
X0156326Y0203512D01*
X0156166Y0203524D01*
X0156006Y0203540D01*
X0155846Y0203560D01*
X0155687Y0203584D01*
X0155529Y0203612D01*
X0155371Y0203643D01*
X0155215Y0203679D01*
X0155059Y0203718D01*
X0154904Y0203761D01*
X0154750Y0203808D01*
X0154597Y0203859D01*
X0154446Y0203914D01*
X0154296Y0203972D01*
X0154148Y0204034D01*
X0154001Y0204100D01*
X0153856Y0204169D01*
X0153713Y0204242D01*
X0153571Y0204318D01*
X0153432Y0204398D01*
X0153294Y0204481D01*
X0153159Y0204568D01*
X0153025Y0204658D01*
X0152894Y0204751D01*
X0152766Y0204847D01*
X0152640Y0204947D01*
X0152516Y0205050D01*
X0152395Y0205155D01*
X0152276Y0205264D01*
X0152160Y0205375D01*
X0152047Y0205490D01*
X0151937Y0205607D01*
X0151830Y0205727D01*
X0151726Y0205849D01*
X0151625Y0205974D01*
X0151527Y0206102D01*
X0151432Y0206232D01*
X0151340Y0206364D01*
X0151252Y0206498D01*
X0151167Y0206635D01*
X0151085Y0206773D01*
X0151007Y0206914D01*
X0150933Y0207056D01*
X0150862Y0207200D01*
X0150794Y0207346D01*
X0150731Y0207494D01*
X0150670Y0207643D01*
X0150614Y0207794D01*
X0150561Y0207946D01*
X0150512Y0208099D01*
X0150467Y0208253D01*
X0150426Y0208408D01*
X0150388Y0208565D01*
X0150355Y0208722D01*
X0150325Y0208880D01*
X0150299Y0209039D01*
X0150278Y0209198D01*
X0150260Y0209358D01*
X0150246Y0209518D01*
X0150236Y0209679D01*
X0150230Y0209839D01*
X0150228Y0210000D01*
X0030228Y0210000D02*
X0030230Y0210161D01*
X0030236Y0210321D01*
X0030246Y0210482D01*
X0030260Y0210642D01*
X0030278Y0210802D01*
X0030299Y0210961D01*
X0030325Y0211120D01*
X0030355Y0211278D01*
X0030388Y0211435D01*
X0030426Y0211592D01*
X0030467Y0211747D01*
X0030512Y0211901D01*
X0030561Y0212054D01*
X0030614Y0212206D01*
X0030670Y0212357D01*
X0030731Y0212506D01*
X0030794Y0212654D01*
X0030862Y0212800D01*
X0030933Y0212944D01*
X0031007Y0213086D01*
X0031085Y0213227D01*
X0031167Y0213365D01*
X0031252Y0213502D01*
X0031340Y0213636D01*
X0031432Y0213768D01*
X0031527Y0213898D01*
X0031625Y0214026D01*
X0031726Y0214151D01*
X0031830Y0214273D01*
X0031937Y0214393D01*
X0032047Y0214510D01*
X0032160Y0214625D01*
X0032276Y0214736D01*
X0032395Y0214845D01*
X0032516Y0214950D01*
X0032640Y0215053D01*
X0032766Y0215153D01*
X0032894Y0215249D01*
X0033025Y0215342D01*
X0033159Y0215432D01*
X0033294Y0215519D01*
X0033432Y0215602D01*
X0033571Y0215682D01*
X0033713Y0215758D01*
X0033856Y0215831D01*
X0034001Y0215900D01*
X0034148Y0215966D01*
X0034296Y0216028D01*
X0034446Y0216086D01*
X0034597Y0216141D01*
X0034750Y0216192D01*
X0034904Y0216239D01*
X0035059Y0216282D01*
X0035215Y0216321D01*
X0035371Y0216357D01*
X0035529Y0216388D01*
X0035687Y0216416D01*
X0035846Y0216440D01*
X0036006Y0216460D01*
X0036166Y0216476D01*
X0036326Y0216488D01*
X0036487Y0216496D01*
X0036648Y0216500D01*
X0036808Y0216500D01*
X0036969Y0216496D01*
X0037130Y0216488D01*
X0037290Y0216476D01*
X0037450Y0216460D01*
X0037610Y0216440D01*
X0037769Y0216416D01*
X0037927Y0216388D01*
X0038085Y0216357D01*
X0038241Y0216321D01*
X0038397Y0216282D01*
X0038552Y0216239D01*
X0038706Y0216192D01*
X0038859Y0216141D01*
X0039010Y0216086D01*
X0039160Y0216028D01*
X0039308Y0215966D01*
X0039455Y0215900D01*
X0039600Y0215831D01*
X0039743Y0215758D01*
X0039885Y0215682D01*
X0040024Y0215602D01*
X0040162Y0215519D01*
X0040297Y0215432D01*
X0040431Y0215342D01*
X0040562Y0215249D01*
X0040690Y0215153D01*
X0040816Y0215053D01*
X0040940Y0214950D01*
X0041061Y0214845D01*
X0041180Y0214736D01*
X0041296Y0214625D01*
X0041409Y0214510D01*
X0041519Y0214393D01*
X0041626Y0214273D01*
X0041730Y0214151D01*
X0041831Y0214026D01*
X0041929Y0213898D01*
X0042024Y0213768D01*
X0042116Y0213636D01*
X0042204Y0213502D01*
X0042289Y0213365D01*
X0042371Y0213227D01*
X0042449Y0213086D01*
X0042523Y0212944D01*
X0042594Y0212800D01*
X0042662Y0212654D01*
X0042725Y0212506D01*
X0042786Y0212357D01*
X0042842Y0212206D01*
X0042895Y0212054D01*
X0042944Y0211901D01*
X0042989Y0211747D01*
X0043030Y0211592D01*
X0043068Y0211435D01*
X0043101Y0211278D01*
X0043131Y0211120D01*
X0043157Y0210961D01*
X0043178Y0210802D01*
X0043196Y0210642D01*
X0043210Y0210482D01*
X0043220Y0210321D01*
X0043226Y0210161D01*
X0043228Y0210000D01*
X0043226Y0209839D01*
X0043220Y0209679D01*
X0043210Y0209518D01*
X0043196Y0209358D01*
X0043178Y0209198D01*
X0043157Y0209039D01*
X0043131Y0208880D01*
X0043101Y0208722D01*
X0043068Y0208565D01*
X0043030Y0208408D01*
X0042989Y0208253D01*
X0042944Y0208099D01*
X0042895Y0207946D01*
X0042842Y0207794D01*
X0042786Y0207643D01*
X0042725Y0207494D01*
X0042662Y0207346D01*
X0042594Y0207200D01*
X0042523Y0207056D01*
X0042449Y0206914D01*
X0042371Y0206773D01*
X0042289Y0206635D01*
X0042204Y0206498D01*
X0042116Y0206364D01*
X0042024Y0206232D01*
X0041929Y0206102D01*
X0041831Y0205974D01*
X0041730Y0205849D01*
X0041626Y0205727D01*
X0041519Y0205607D01*
X0041409Y0205490D01*
X0041296Y0205375D01*
X0041180Y0205264D01*
X0041061Y0205155D01*
X0040940Y0205050D01*
X0040816Y0204947D01*
X0040690Y0204847D01*
X0040562Y0204751D01*
X0040431Y0204658D01*
X0040297Y0204568D01*
X0040162Y0204481D01*
X0040024Y0204398D01*
X0039885Y0204318D01*
X0039743Y0204242D01*
X0039600Y0204169D01*
X0039455Y0204100D01*
X0039308Y0204034D01*
X0039160Y0203972D01*
X0039010Y0203914D01*
X0038859Y0203859D01*
X0038706Y0203808D01*
X0038552Y0203761D01*
X0038397Y0203718D01*
X0038241Y0203679D01*
X0038085Y0203643D01*
X0037927Y0203612D01*
X0037769Y0203584D01*
X0037610Y0203560D01*
X0037450Y0203540D01*
X0037290Y0203524D01*
X0037130Y0203512D01*
X0036969Y0203504D01*
X0036808Y0203500D01*
X0036648Y0203500D01*
X0036487Y0203504D01*
X0036326Y0203512D01*
X0036166Y0203524D01*
X0036006Y0203540D01*
X0035846Y0203560D01*
X0035687Y0203584D01*
X0035529Y0203612D01*
X0035371Y0203643D01*
X0035215Y0203679D01*
X0035059Y0203718D01*
X0034904Y0203761D01*
X0034750Y0203808D01*
X0034597Y0203859D01*
X0034446Y0203914D01*
X0034296Y0203972D01*
X0034148Y0204034D01*
X0034001Y0204100D01*
X0033856Y0204169D01*
X0033713Y0204242D01*
X0033571Y0204318D01*
X0033432Y0204398D01*
X0033294Y0204481D01*
X0033159Y0204568D01*
X0033025Y0204658D01*
X0032894Y0204751D01*
X0032766Y0204847D01*
X0032640Y0204947D01*
X0032516Y0205050D01*
X0032395Y0205155D01*
X0032276Y0205264D01*
X0032160Y0205375D01*
X0032047Y0205490D01*
X0031937Y0205607D01*
X0031830Y0205727D01*
X0031726Y0205849D01*
X0031625Y0205974D01*
X0031527Y0206102D01*
X0031432Y0206232D01*
X0031340Y0206364D01*
X0031252Y0206498D01*
X0031167Y0206635D01*
X0031085Y0206773D01*
X0031007Y0206914D01*
X0030933Y0207056D01*
X0030862Y0207200D01*
X0030794Y0207346D01*
X0030731Y0207494D01*
X0030670Y0207643D01*
X0030614Y0207794D01*
X0030561Y0207946D01*
X0030512Y0208099D01*
X0030467Y0208253D01*
X0030426Y0208408D01*
X0030388Y0208565D01*
X0030355Y0208722D01*
X0030325Y0208880D01*
X0030299Y0209039D01*
X0030278Y0209198D01*
X0030260Y0209358D01*
X0030246Y0209518D01*
X0030236Y0209679D01*
X0030230Y0209839D01*
X0030228Y0210000D01*
M02*
